  0
SECTION
  2
ENTITIES
  0
LINE
  8
LAYER
 10
       24.23
 20
       -3.82
 30
         .00
 11
       24.23
 21
       -3.82
 31
         .00
  0
LINE
  8
LAYER
 10
       24.23
 20
       -3.82
 30
         .00
 11
       24.29
 21
       -3.45
 31
         .00
  0
LINE
  8
LAYER
 10
       24.29
 20
       -3.45
 30
         .00
 11
       24.30
 21
       -3.07
 31
         .00
  0
LINE
  8
LAYER
 10
       24.30
 20
       -3.07
 30
         .00
 11
       24.25
 21
       -2.69
 31
         .00
  0
LINE
  8
LAYER
 10
       24.25
 20
       -2.69
 30
         .00
 11
       24.15
 21
       -2.30
 31
         .00
  0
LINE
  8
LAYER
 10
       24.15
 20
       -2.30
 30
         .00
 11
       23.99
 21
       -1.90
 31
         .00
  0
LINE
  8
LAYER
 10
       23.99
 20
       -1.90
 30
         .00
 11
       23.78
 21
       -1.51
 31
         .00
  0
LINE
  8
LAYER
 10
       23.78
 20
       -1.51
 30
         .00
 11
       23.52
 21
       -1.12
 31
         .00
  0
LINE
  8
LAYER
 10
       23.52
 20
       -1.12
 30
         .00
 11
       23.21
 21
        -.74
 31
         .00
  0
LINE
  8
LAYER
 10
       23.21
 20
        -.74
 30
         .00
 11
       22.85
 21
        -.37
 31
         .00
  0
LINE
  8
LAYER
 10
       22.85
 20
        -.37
 30
         .00
 11
       22.45
 21
        -.01
 31
         .00
  0
LINE
  8
LAYER
 10
       22.45
 20
        -.01
 30
         .00
 11
       22.01
 21
         .33
 31
         .00
  0
LINE
  8
LAYER
 10
       22.01
 20
         .33
 30
         .00
 11
       21.53
 21
         .65
 31
         .00
  0
LINE
  8
LAYER
 10
       21.53
 20
         .65
 30
         .00
 11
       21.01
 21
         .96
 31
         .00
  0
LINE
  8
LAYER
 10
       21.01
 20
         .96
 30
         .00
 11
       20.47
 21
        1.24
 31
         .00
  0
LINE
  8
LAYER
 10
       20.47
 20
        1.24
 30
         .00
 11
       19.90
 21
        1.50
 31
         .00
  0
LINE
  8
LAYER
 10
       19.90
 20
        1.50
 30
         .00
 11
       19.31
 21
        1.73
 31
         .00
  0
LINE
  8
LAYER
 10
       19.31
 20
        1.73
 30
         .00
 11
       18.70
 21
        1.93
 31
         .00
  0
LINE
  8
LAYER
 10
       18.70
 20
        1.93
 30
         .00
 11
       18.07
 21
        2.10
 31
         .00
  0
LINE
  8
LAYER
 10
       18.07
 20
        2.10
 30
         .00
 11
       17.45
 21
        2.24
 31
         .00
  0
LINE
  8
LAYER
 10
       17.45
 20
        2.24
 30
         .00
 11
       16.81
 21
        2.35
 31
         .00
  0
LINE
  8
LAYER
 10
       16.81
 20
        2.35
 30
         .00
 11
       16.18
 21
        2.42
 31
         .00
  0
LINE
  8
LAYER
 10
       16.18
 20
        2.42
 30
         .00
 11
       15.56
 21
        2.47
 31
         .00
  0
LINE
  8
LAYER
 10
       15.56
 20
        2.47
 30
         .00
 11
       14.94
 21
        2.47
 31
         .00
  0
LINE
  8
LAYER
 10
       14.94
 20
        2.47
 30
         .00
 11
       14.35
 21
        2.44
 31
         .00
  0
LINE
  8
LAYER
 10
       14.35
 20
        2.44
 30
         .00
 11
       13.77
 21
        2.38
 31
         .00
  0
LINE
  8
LAYER
 10
       13.77
 20
        2.38
 30
         .00
 11
       13.22
 21
        2.29
 31
         .00
  0
LINE
  8
LAYER
 10
       13.22
 20
        2.29
 30
         .00
 11
       12.70
 21
        2.16
 31
         .00
  0
LINE
  8
LAYER
 10
       12.70
 20
        2.16
 30
         .00
 11
       12.21
 21
        2.00
 31
         .00
  0
LINE
  8
LAYER
 10
       12.21
 20
        2.00
 30
         .00
 11
       11.75
 21
        1.81
 31
         .00
  0
LINE
  8
LAYER
 10
       11.75
 20
        1.81
 30
         .00
 11
       11.34
 21
        1.59
 31
         .00
  0
LINE
  8
LAYER
 10
       11.34
 20
        1.59
 30
         .00
 11
       10.97
 21
        1.34
 31
         .00
  0
LINE
  8
LAYER
 10
       10.97
 20
        1.34
 30
         .00
 11
       10.65
 21
        1.07
 31
         .00
  0
LINE
  8
LAYER
 10
       10.65
 20
        1.07
 30
         .00
 11
       10.38
 21
         .77
 31
         .00
  0
LINE
  8
LAYER
 10
       10.38
 20
         .77
 30
         .00
 11
       10.15
 21
         .45
 31
         .00
  0
LINE
  8
LAYER
 10
       10.15
 20
         .45
 30
         .00
 11
        9.98
 21
         .11
 31
         .00
  0
LINE
  8
LAYER
 10
        9.98
 20
         .11
 30
         .00
 11
        9.86
 21
        -.24
 31
         .00
  0
LINE
  8
LAYER
 10
        9.86
 20
        -.24
 30
         .00
 11
        9.80
 21
        -.60
 31
         .00
  0
LINE
  8
LAYER
 10
        9.80
 20
        -.60
 30
         .00
 11
        9.79
 21
        -.98
 31
         .00
  0
LINE
  8
LAYER
 10
        9.79
 20
        -.98
 30
         .00
 11
        9.84
 21
       -1.37
 31
         .00
  0
LINE
  8
LAYER
 10
        9.84
 20
       -1.37
 30
         .00
 11
        9.95
 21
       -1.76
 31
         .00
  0
LINE
  8
LAYER
 10
        9.95
 20
       -1.76
 30
         .00
 11
       10.10
 21
       -2.15
 31
         .00
  0
LINE
  8
LAYER
 10
       10.10
 20
       -2.15
 30
         .00
 11
       10.31
 21
       -2.54
 31
         .00
  0
LINE
  8
LAYER
 10
       10.31
 20
       -2.54
 30
         .00
 11
       10.57
 21
       -2.93
 31
         .00
  0
LINE
  8
LAYER
 10
       10.57
 20
       -2.93
 30
         .00
 11
       10.88
 21
       -3.31
 31
         .00
  0
LINE
  8
LAYER
 10
       10.88
 20
       -3.31
 30
         .00
 11
       11.24
 21
       -3.68
 31
         .00
  0
LINE
  8
LAYER
 10
       11.24
 20
       -3.68
 30
         .00
 11
       11.64
 21
       -4.04
 31
         .00
  0
LINE
  8
LAYER
 10
       11.64
 20
       -4.04
 30
         .00
 11
       12.08
 21
       -4.38
 31
         .00
  0
LINE
  8
LAYER
 10
       12.08
 20
       -4.38
 30
         .00
 11
       12.56
 21
       -4.71
 31
         .00
  0
LINE
  8
LAYER
 10
       12.56
 20
       -4.71
 30
         .00
 11
       13.08
 21
       -5.01
 31
         .00
  0
LINE
  8
LAYER
 10
       13.08
 20
       -5.01
 30
         .00
 11
       13.62
 21
       -5.30
 31
         .00
  0
LINE
  8
LAYER
 10
       13.62
 20
       -5.30
 30
         .00
 11
       14.19
 21
       -5.55
 31
         .00
  0
LINE
  8
LAYER
 10
       14.19
 20
       -5.55
 30
         .00
 11
       14.79
 21
       -5.78
 31
         .00
  0
LINE
  8
LAYER
 10
       14.79
 20
       -5.78
 30
         .00
 11
       15.40
 21
       -5.98
 31
         .00
  0
LINE
  8
LAYER
 10
       15.40
 20
       -5.98
 30
         .00
 11
       16.02
 21
       -6.16
 31
         .00
  0
LINE
  8
LAYER
 10
       16.02
 20
       -6.16
 30
         .00
 11
       16.65
 21
       -6.30
 31
         .00
  0
LINE
  8
LAYER
 10
       16.65
 20
       -6.30
 30
         .00
 11
       17.28
 21
       -6.40
 31
         .00
  0
LINE
  8
LAYER
 10
       17.28
 20
       -6.40
 30
         .00
 11
       17.91
 21
       -6.48
 31
         .00
  0
LINE
  8
LAYER
 10
       17.91
 20
       -6.48
 30
         .00
 11
       18.54
 21
       -6.52
 31
         .00
  0
LINE
  8
LAYER
 10
       18.54
 20
       -6.52
 30
         .00
 11
       19.15
 21
       -6.53
 31
         .00
  0
LINE
  8
LAYER
 10
       19.15
 20
       -6.53
 30
         .00
 11
       19.75
 21
       -6.50
 31
         .00
  0
LINE
  8
LAYER
 10
       19.75
 20
       -6.50
 30
         .00
 11
       20.32
 21
       -6.44
 31
         .00
  0
LINE
  8
LAYER
 10
       20.32
 20
       -6.44
 30
         .00
 11
       20.88
 21
       -6.34
 31
         .00
  0
LINE
  8
LAYER
 10
       20.88
 20
       -6.34
 30
         .00
 11
       21.40
 21
       -6.21
 31
         .00
  0
LINE
  8
LAYER
 10
       21.40
 20
       -6.21
 30
         .00
 11
       21.89
 21
       -6.05
 31
         .00
  0
LINE
  8
LAYER
 10
       21.89
 20
       -6.05
 30
         .00
 11
       22.34
 21
       -5.86
 31
         .00
  0
LINE
  8
LAYER
 10
       22.34
 20
       -5.86
 30
         .00
 11
       22.75
 21
       -5.64
 31
         .00
  0
LINE
  8
LAYER
 10
       22.75
 20
       -5.64
 30
         .00
 11
       23.12
 21
       -5.39
 31
         .00
  0
LINE
  8
LAYER
 10
       23.12
 20
       -5.39
 30
         .00
 11
       23.44
 21
       -5.12
 31
         .00
  0
LINE
  8
LAYER
 10
       23.44
 20
       -5.12
 30
         .00
 11
       23.72
 21
       -4.82
 31
         .00
  0
LINE
  8
LAYER
 10
       23.72
 20
       -4.82
 30
         .00
 11
       23.94
 21
       -4.51
 31
         .00
  0
LINE
  8
LAYER
 10
       23.94
 20
       -4.51
 30
         .00
 11
       24.11
 21
       -4.17
 31
         .00
  0
LINE
  8
LAYER
 10
       24.11
 20
       -4.17
 30
         .00
 11
       24.23
 21
       -3.82
 31
         .00
  0
LINE
  8
LAYER
 10
       17.45
 20
       39.97
 30
         .00
 11
       17.45
 21
       39.97
 31
         .00
  0
LINE
  8
LAYER
 10
       17.45
 20
       39.97
 30
         .00
 11
       17.52
 21
       41.00
 31
         .00
  0
LINE
  8
LAYER
 10
       17.52
 20
       41.00
 30
         .00
 11
       17.45
 21
       42.05
 31
         .00
  0
LINE
  8
LAYER
 10
       17.45
 20
       42.05
 30
         .00
 11
       17.25
 21
       43.10
 31
         .00
  0
LINE
  8
LAYER
 10
       17.25
 20
       43.10
 30
         .00
 11
       16.91
 21
       44.15
 31
         .00
  0
LINE
  8
LAYER
 10
       16.91
 20
       44.15
 30
         .00
 11
       16.44
 21
       45.18
 31
         .00
  0
LINE
  8
LAYER
 10
       16.44
 20
       45.18
 30
         .00
 11
       15.83
 21
       46.20
 31
         .00
  0
LINE
  8
LAYER
 10
       15.83
 20
       46.20
 30
         .00
 11
       15.11
 21
       47.18
 31
         .00
  0
LINE
  8
LAYER
 10
       15.11
 20
       47.18
 30
         .00
 11
       14.26
 21
       48.13
 31
         .00
  0
LINE
  8
LAYER
 10
       14.26
 20
       48.13
 30
         .00
 11
       13.30
 21
       49.03
 31
         .00
  0
LINE
  8
LAYER
 10
       13.30
 20
       49.03
 30
         .00
 11
       12.23
 21
       49.89
 31
         .00
  0
LINE
  8
LAYER
 10
       12.23
 20
       49.89
 30
         .00
 11
       11.06
 21
       50.69
 31
         .00
  0
LINE
  8
LAYER
 10
       11.06
 20
       50.69
 30
         .00
 11
        9.81
 21
       51.42
 31
         .00
  0
LINE
  8
LAYER
 10
        9.81
 20
       51.42
 30
         .00
 11
        8.48
 21
       52.09
 31
         .00
  0
LINE
  8
LAYER
 10
        8.48
 20
       52.09
 30
         .00
 11
        7.07
 21
       52.68
 31
         .00
  0
LINE
  8
LAYER
 10
        7.07
 20
       52.68
 30
         .00
 11
        5.61
 21
       53.20
 31
         .00
  0
LINE
  8
LAYER
 10
        5.61
 20
       53.20
 30
         .00
 11
        4.10
 21
       53.63
 31
         .00
  0
LINE
  8
LAYER
 10
        4.10
 20
       53.63
 30
         .00
 11
        2.56
 21
       53.98
 31
         .00
  0
LINE
  8
LAYER
 10
        2.56
 20
       53.98
 30
         .00
 11
         .99
 21
       54.24
 31
         .00
  0
LINE
  8
LAYER
 10
         .99
 20
       54.24
 30
         .00
 11
        -.59
 21
       54.41
 31
         .00
  0
LINE
  8
LAYER
 10
        -.59
 20
       54.41
 30
         .00
 11
       -2.17
 21
       54.49
 31
         .00
  0
LINE
  8
LAYER
 10
       -2.17
 20
       54.49
 30
         .00
 11
       -3.74
 21
       54.48
 31
         .00
  0
LINE
  8
LAYER
 10
       -3.74
 20
       54.48
 30
         .00
 11
       -5.29
 21
       54.37
 31
         .00
  0
LINE
  8
LAYER
 10
       -5.29
 20
       54.37
 30
         .00
 11
       -6.80
 21
       54.18
 31
         .00
  0
LINE
  8
LAYER
 10
       -6.80
 20
       54.18
 30
         .00
 11
       -8.27
 21
       53.89
 31
         .00
  0
LINE
  8
LAYER
 10
       -8.27
 20
       53.89
 30
         .00
 11
       -9.67
 21
       53.52
 31
         .00
  0
LINE
  8
LAYER
 10
       -9.67
 20
       53.52
 30
         .00
 11
      -11.01
 21
       53.07
 31
         .00
  0
LINE
  8
LAYER
 10
      -11.01
 20
       53.07
 30
         .00
 11
      -12.27
 21
       52.53
 31
         .00
  0
LINE
  8
LAYER
 10
      -12.27
 20
       52.53
 30
         .00
 11
      -13.43
 21
       51.92
 31
         .00
  0
LINE
  8
LAYER
 10
      -13.43
 20
       51.92
 30
         .00
 11
      -14.51
 21
       51.23
 31
         .00
  0
LINE
  8
LAYER
 10
      -14.51
 20
       51.23
 30
         .00
 11
      -15.47
 21
       50.48
 31
         .00
  0
LINE
  8
LAYER
 10
      -15.47
 20
       50.48
 30
         .00
 11
      -16.32
 21
       49.66
 31
         .00
  0
LINE
  8
LAYER
 10
      -16.32
 20
       49.66
 30
         .00
 11
      -17.06
 21
       48.80
 31
         .00
  0
LINE
  8
LAYER
 10
      -17.06
 20
       48.80
 30
         .00
 11
      -17.67
 21
       47.88
 31
         .00
  0
LINE
  8
LAYER
 10
      -17.67
 20
       47.88
 30
         .00
 11
      -18.15
 21
       46.92
 31
         .00
  0
LINE
  8
LAYER
 10
      -18.15
 20
       46.92
 30
         .00
 11
      -18.49
 21
       45.93
 31
         .00
  0
LINE
  8
LAYER
 10
      -18.49
 20
       45.93
 30
         .00
 11
      -18.70
 21
       44.91
 31
         .00
  0
LINE
  8
LAYER
 10
      -18.70
 20
       44.91
 30
         .00
 11
      -18.77
 21
       43.87
 31
         .00
  0
LINE
  8
LAYER
 10
      -18.77
 20
       43.87
 30
         .00
 11
      -18.71
 21
       42.82
 31
         .00
  0
LINE
  8
LAYER
 10
      -18.71
 20
       42.82
 30
         .00
 11
      -18.50
 21
       41.77
 31
         .00
  0
LINE
  8
LAYER
 10
      -18.50
 20
       41.77
 30
         .00
 11
      -18.16
 21
       40.72
 31
         .00
  0
LINE
  8
LAYER
 10
      -18.16
 20
       40.72
 30
         .00
 11
      -17.69
 21
       39.69
 31
         .00
  0
LINE
  8
LAYER
 10
      -17.69
 20
       39.69
 30
         .00
 11
      -17.09
 21
       38.68
 31
         .00
  0
LINE
  8
LAYER
 10
      -17.09
 20
       38.68
 30
         .00
 11
      -16.36
 21
       37.69
 31
         .00
  0
LINE
  8
LAYER
 10
      -16.36
 20
       37.69
 30
         .00
 11
      -15.51
 21
       36.74
 31
         .00
  0
LINE
  8
LAYER
 10
      -15.51
 20
       36.74
 30
         .00
 11
      -14.55
 21
       35.84
 31
         .00
  0
LINE
  8
LAYER
 10
      -14.55
 20
       35.84
 30
         .00
 11
      -13.48
 21
       34.98
 31
         .00
  0
LINE
  8
LAYER
 10
      -13.48
 20
       34.98
 30
         .00
 11
      -12.31
 21
       34.19
 31
         .00
  0
LINE
  8
LAYER
 10
      -12.31
 20
       34.19
 30
         .00
 11
      -11.06
 21
       33.45
 31
         .00
  0
LINE
  8
LAYER
 10
      -11.06
 20
       33.45
 30
         .00
 11
       -9.73
 21
       32.79
 31
         .00
  0
LINE
  8
LAYER
 10
       -9.73
 20
       32.79
 30
         .00
 11
       -8.32
 21
       32.19
 31
         .00
  0
LINE
  8
LAYER
 10
       -8.32
 20
       32.19
 30
         .00
 11
       -6.86
 21
       31.68
 31
         .00
  0
LINE
  8
LAYER
 10
       -6.86
 20
       31.68
 30
         .00
 11
       -5.35
 21
       31.24
 31
         .00
  0
LINE
  8
LAYER
 10
       -5.35
 20
       31.24
 30
         .00
 11
       -3.81
 21
       30.90
 31
         .00
  0
LINE
  8
LAYER
 10
       -3.81
 20
       30.90
 30
         .00
 11
       -2.24
 21
       30.63
 31
         .00
  0
LINE
  8
LAYER
 10
       -2.24
 20
       30.63
 30
         .00
 11
        -.66
 21
       30.46
 31
         .00
  0
LINE
  8
LAYER
 10
        -.66
 20
       30.46
 30
         .00
 11
         .92
 21
       30.38
 31
         .00
  0
LINE
  8
LAYER
 10
         .92
 20
       30.38
 30
         .00
 11
        2.49
 21
       30.40
 31
         .00
  0
LINE
  8
LAYER
 10
        2.49
 20
       30.40
 30
         .00
 11
        4.04
 21
       30.50
 31
         .00
  0
LINE
  8
LAYER
 10
        4.04
 20
       30.50
 30
         .00
 11
        5.55
 21
       30.70
 31
         .00
  0
LINE
  8
LAYER
 10
        5.55
 20
       30.70
 30
         .00
 11
        7.01
 21
       30.98
 31
         .00
  0
LINE
  8
LAYER
 10
        7.01
 20
       30.98
 30
         .00
 11
        8.42
 21
       31.35
 31
         .00
  0
LINE
  8
LAYER
 10
        8.42
 20
       31.35
 30
         .00
 11
        9.76
 21
       31.81
 31
         .00
  0
LINE
  8
LAYER
 10
        9.76
 20
       31.81
 30
         .00
 11
       11.01
 21
       32.34
 31
         .00
  0
LINE
  8
LAYER
 10
       11.01
 20
       32.34
 30
         .00
 11
       12.18
 21
       32.96
 31
         .00
  0
LINE
  8
LAYER
 10
       12.18
 20
       32.96
 30
         .00
 11
       13.25
 21
       33.64
 31
         .00
  0
LINE
  8
LAYER
 10
       13.25
 20
       33.64
 30
         .00
 11
       14.22
 21
       34.40
 31
         .00
  0
LINE
  8
LAYER
 10
       14.22
 20
       34.40
 30
         .00
 11
       15.07
 21
       35.21
 31
         .00
  0
LINE
  8
LAYER
 10
       15.07
 20
       35.21
 30
         .00
 11
       15.81
 21
       36.08
 31
         .00
  0
LINE
  8
LAYER
 10
       15.81
 20
       36.08
 30
         .00
 11
       16.42
 21
       36.99
 31
         .00
  0
LINE
  8
LAYER
 10
       16.42
 20
       36.99
 30
         .00
 11
       16.89
 21
       37.95
 31
         .00
  0
LINE
  8
LAYER
 10
       16.89
 20
       37.95
 30
         .00
 11
       17.24
 21
       38.95
 31
         .00
  0
LINE
  8
LAYER
 10
       17.24
 20
       38.95
 30
         .00
 11
       17.45
 21
       39.97
 31
         .00
  0
LINE
  8
LAYER
 10
      -12.43
 20
       42.33
 30
         .00
 11
      -12.43
 21
       42.33
 31
         .00
  0
LINE
  8
LAYER
 10
      -12.43
 20
       42.33
 30
         .00
 11
      -12.36
 21
       41.32
 31
         .00
  0
LINE
  8
LAYER
 10
      -12.36
 20
       41.32
 30
         .00
 11
      -12.18
 21
       40.31
 31
         .00
  0
LINE
  8
LAYER
 10
      -12.18
 20
       40.31
 30
         .00
 11
      -11.87
 21
       39.32
 31
         .00
  0
LINE
  8
LAYER
 10
      -11.87
 20
       39.32
 30
         .00
 11
      -11.45
 21
       38.36
 31
         .00
  0
LINE
  8
LAYER
 10
      -11.45
 20
       38.36
 30
         .00
 11
      -10.91
 21
       37.43
 31
         .00
  0
LINE
  8
LAYER
 10
      -10.91
 20
       37.43
 30
         .00
 11
      -10.26
 21
       36.53
 31
         .00
  0
LINE
  8
LAYER
 10
      -10.26
 20
       36.53
 30
         .00
 11
       -9.51
 21
       35.68
 31
         .00
  0
LINE
  8
LAYER
 10
       -9.51
 20
       35.68
 30
         .00
 11
       -8.66
 21
       34.88
 31
         .00
  0
LINE
  8
LAYER
 10
       -8.66
 20
       34.88
 30
         .00
 11
       -7.71
 21
       34.13
 31
         .00
  0
LINE
  8
LAYER
 10
       -7.71
 20
       34.13
 30
         .00
 11
       -6.68
 21
       33.45
 31
         .00
  0
LINE
  8
LAYER
 10
       -6.68
 20
       33.45
 30
         .00
 11
       -5.58
 21
       32.84
 31
         .00
  0
LINE
  8
LAYER
 10
       -5.58
 20
       32.84
 30
         .00
 11
       -4.40
 21
       32.30
 31
         .00
  0
LINE
  8
LAYER
 10
       -4.40
 20
       32.30
 30
         .00
 11
       -3.16
 21
       31.84
 31
         .00
  0
LINE
  8
LAYER
 10
       -3.16
 20
       31.84
 30
         .00
 11
       -1.87
 21
       31.46
 31
         .00
  0
LINE
  8
LAYER
 10
       -1.87
 20
       31.46
 30
         .00
 11
        -.54
 21
       31.16
 31
         .00
  0
LINE
  8
LAYER
 10
        -.54
 20
       31.16
 30
         .00
 11
         .83
 21
       30.94
 31
         .00
  0
LINE
  8
LAYER
 10
         .83
 20
       30.94
 30
         .00
 11
        2.21
 21
       30.82
 31
         .00
  0
LINE
  8
LAYER
 10
        2.21
 20
       30.82
 30
         .00
 11
        3.60
 21
       30.78
 31
         .00
  0
LINE
  8
LAYER
 10
        3.60
 20
       30.78
 30
         .00
 11
        5.00
 21
       30.83
 31
         .00
  0
LINE
  8
LAYER
 10
        5.00
 20
       30.83
 30
         .00
 11
        6.38
 21
       30.97
 31
         .00
  0
LINE
  8
LAYER
 10
        6.38
 20
       30.97
 30
         .00
 11
        7.74
 21
       31.19
 31
         .00
  0
LINE
  8
LAYER
 10
        7.74
 20
       31.19
 30
         .00
 11
        9.07
 21
       31.50
 31
         .00
  0
LINE
  8
LAYER
 10
        9.07
 20
       31.50
 30
         .00
 11
       10.35
 21
       31.89
 31
         .00
  0
LINE
  8
LAYER
 10
       10.35
 20
       31.89
 30
         .00
 11
       11.59
 21
       32.37
 31
         .00
  0
LINE
  8
LAYER
 10
       11.59
 20
       32.37
 30
         .00
 11
       12.76
 21
       32.92
 31
         .00
  0
LINE
  8
LAYER
 10
       12.76
 20
       32.92
 30
         .00
 11
       13.87
 21
       33.54
 31
         .00
  0
LINE
  8
LAYER
 10
       13.87
 20
       33.54
 30
         .00
 11
       14.89
 21
       34.23
 31
         .00
  0
LINE
  8
LAYER
 10
       14.89
 20
       34.23
 30
         .00
 11
       15.83
 21
       34.98
 31
         .00
  0
LINE
  8
LAYER
 10
       15.83
 20
       34.98
 30
         .00
 11
       16.68
 21
       35.78
 31
         .00
  0
LINE
  8
LAYER
 10
       16.68
 20
       35.78
 30
         .00
 11
       17.42
 21
       36.64
 31
         .00
  0
LINE
  8
LAYER
 10
       17.42
 20
       36.64
 30
         .00
 11
       18.06
 21
       37.54
 31
         .00
  0
LINE
  8
LAYER
 10
       18.06
 20
       37.54
 30
         .00
 11
       18.59
 21
       38.48
 31
         .00
  0
LINE
  8
LAYER
 10
       18.59
 20
       38.48
 30
         .00
 11
       19.01
 21
       39.45
 31
         .00
  0
LINE
  8
LAYER
 10
       19.01
 20
       39.45
 30
         .00
 11
       19.31
 21
       40.44
 31
         .00
  0
LINE
  8
LAYER
 10
       19.31
 20
       40.44
 30
         .00
 11
       19.48
 21
       41.44
 31
         .00
  0
LINE
  8
LAYER
 10
       19.48
 20
       41.44
 30
         .00
 11
       19.54
 21
       42.46
 31
         .00
  0
LINE
  8
LAYER
 10
       19.54
 20
       42.46
 30
         .00
 11
       19.48
 21
       43.47
 31
         .00
  0
LINE
  8
LAYER
 10
       19.48
 20
       43.47
 30
         .00
 11
       19.29
 21
       44.47
 31
         .00
  0
LINE
  8
LAYER
 10
       19.29
 20
       44.47
 30
         .00
 11
       18.98
 21
       45.46
 31
         .00
  0
LINE
  8
LAYER
 10
       18.98
 20
       45.46
 30
         .00
 11
       18.56
 21
       46.42
 31
         .00
  0
LINE
  8
LAYER
 10
       18.56
 20
       46.42
 30
         .00
 11
       18.02
 21
       47.36
 31
         .00
  0
LINE
  8
LAYER
 10
       18.02
 20
       47.36
 30
         .00
 11
       17.38
 21
       48.25
 31
         .00
  0
LINE
  8
LAYER
 10
       17.38
 20
       48.25
 30
         .00
 11
       16.62
 21
       49.11
 31
         .00
  0
LINE
  8
LAYER
 10
       16.62
 20
       49.11
 30
         .00
 11
       15.77
 21
       49.91
 31
         .00
  0
LINE
  8
LAYER
 10
       15.77
 20
       49.91
 30
         .00
 11
       14.82
 21
       50.65
 31
         .00
  0
LINE
  8
LAYER
 10
       14.82
 20
       50.65
 30
         .00
 11
       13.79
 21
       51.33
 31
         .00
  0
LINE
  8
LAYER
 10
       13.79
 20
       51.33
 30
         .00
 11
       12.69
 21
       51.94
 31
         .00
  0
LINE
  8
LAYER
 10
       12.69
 20
       51.94
 30
         .00
 11
       11.51
 21
       52.48
 31
         .00
  0
LINE
  8
LAYER
 10
       11.51
 20
       52.48
 30
         .00
 11
       10.27
 21
       52.94
 31
         .00
  0
LINE
  8
LAYER
 10
       10.27
 20
       52.94
 30
         .00
 11
        8.98
 21
       53.33
 31
         .00
  0
LINE
  8
LAYER
 10
        8.98
 20
       53.33
 30
         .00
 11
        7.65
 21
       53.63
 31
         .00
  0
LINE
  8
LAYER
 10
        7.65
 20
       53.63
 30
         .00
 11
        6.28
 21
       53.84
 31
         .00
  0
LINE
  8
LAYER
 10
        6.28
 20
       53.84
 30
         .00
 11
        4.90
 21
       53.97
 31
         .00
  0
LINE
  8
LAYER
 10
        4.90
 20
       53.97
 30
         .00
 11
        3.51
 21
       54.00
 31
         .00
  0
LINE
  8
LAYER
 10
        3.51
 20
       54.00
 30
         .00
 11
        2.12
 21
       53.95
 31
         .00
  0
LINE
  8
LAYER
 10
        2.12
 20
       53.95
 30
         .00
 11
         .73
 21
       53.82
 31
         .00
  0
LINE
  8
LAYER
 10
         .73
 20
       53.82
 30
         .00
 11
        -.63
 21
       53.59
 31
         .00
  0
LINE
  8
LAYER
 10
        -.63
 20
       53.59
 30
         .00
 11
       -1.96
 21
       53.28
 31
         .00
  0
LINE
  8
LAYER
 10
       -1.96
 20
       53.28
 30
         .00
 11
       -3.24
 21
       52.89
 31
         .00
  0
LINE
  8
LAYER
 10
       -3.24
 20
       52.89
 30
         .00
 11
       -4.48
 21
       52.42
 31
         .00
  0
LINE
  8
LAYER
 10
       -4.48
 20
       52.42
 30
         .00
 11
       -5.65
 21
       51.87
 31
         .00
  0
LINE
  8
LAYER
 10
       -5.65
 20
       51.87
 30
         .00
 11
       -6.76
 21
       51.25
 31
         .00
  0
LINE
  8
LAYER
 10
       -6.76
 20
       51.25
 30
         .00
 11
       -7.78
 21
       50.56
 31
         .00
  0
LINE
  8
LAYER
 10
       -7.78
 20
       50.56
 30
         .00
 11
       -8.72
 21
       49.81
 31
         .00
  0
LINE
  8
LAYER
 10
       -8.72
 20
       49.81
 30
         .00
 11
       -9.57
 21
       49.00
 31
         .00
  0
LINE
  8
LAYER
 10
       -9.57
 20
       49.00
 30
         .00
 11
      -10.31
 21
       48.14
 31
         .00
  0
LINE
  8
LAYER
 10
      -10.31
 20
       48.14
 30
         .00
 11
      -10.95
 21
       47.24
 31
         .00
  0
LINE
  8
LAYER
 10
      -10.95
 20
       47.24
 30
         .00
 11
      -11.48
 21
       46.30
 31
         .00
  0
LINE
  8
LAYER
 10
      -11.48
 20
       46.30
 30
         .00
 11
      -11.90
 21
       45.33
 31
         .00
  0
LINE
  8
LAYER
 10
      -11.90
 20
       45.33
 30
         .00
 11
      -12.20
 21
       44.34
 31
         .00
  0
LINE
  8
LAYER
 10
      -12.20
 20
       44.34
 30
         .00
 11
      -12.37
 21
       43.34
 31
         .00
  0
LINE
  8
LAYER
 10
      -12.37
 20
       43.34
 30
         .00
 11
      -12.43
 21
       42.33
 31
         .00
  0
LINE
  8
LAYER
 10
       -6.47
 20
       40.57
 30
         .00
 11
       -6.47
 21
       40.57
 31
         .00
  0
LINE
  8
LAYER
 10
       -6.47
 20
       40.57
 30
         .00
 11
       -6.29
 21
       39.60
 31
         .00
  0
LINE
  8
LAYER
 10
       -6.29
 20
       39.60
 30
         .00
 11
       -6.01
 21
       38.64
 31
         .00
  0
LINE
  8
LAYER
 10
       -6.01
 20
       38.64
 30
         .00
 11
       -5.61
 21
       37.72
 31
         .00
  0
LINE
  8
LAYER
 10
       -5.61
 20
       37.72
 30
         .00
 11
       -5.11
 21
       36.82
 31
         .00
  0
LINE
  8
LAYER
 10
       -5.11
 20
       36.82
 30
         .00
 11
       -4.52
 21
       35.98
 31
         .00
  0
LINE
  8
LAYER
 10
       -4.52
 20
       35.98
 30
         .00
 11
       -3.82
 21
       35.17
 31
         .00
  0
LINE
  8
LAYER
 10
       -3.82
 20
       35.17
 30
         .00
 11
       -3.04
 21
       34.43
 31
         .00
  0
LINE
  8
LAYER
 10
       -3.04
 20
       34.43
 30
         .00
 11
       -2.17
 21
       33.74
 31
         .00
  0
LINE
  8
LAYER
 10
       -2.17
 20
       33.74
 30
         .00
 11
       -1.22
 21
       33.12
 31
         .00
  0
LINE
  8
LAYER
 10
       -1.22
 20
       33.12
 30
         .00
 11
        -.20
 21
       32.57
 31
         .00
  0
LINE
  8
LAYER
 10
        -.20
 20
       32.57
 30
         .00
 11
         .88
 21
       32.10
 31
         .00
  0
LINE
  8
LAYER
 10
         .88
 20
       32.10
 30
         .00
 11
        2.02
 21
       31.70
 31
         .00
  0
LINE
  8
LAYER
 10
        2.02
 20
       31.70
 30
         .00
 11
        3.20
 21
       31.39
 31
         .00
  0
LINE
  8
LAYER
 10
        3.20
 20
       31.39
 30
         .00
 11
        4.42
 21
       31.16
 31
         .00
  0
LINE
  8
LAYER
 10
        4.42
 20
       31.16
 30
         .00
 11
        5.67
 21
       31.01
 31
         .00
  0
LINE
  8
LAYER
 10
        5.67
 20
       31.01
 30
         .00
 11
        6.94
 21
       30.95
 31
         .00
  0
LINE
  8
LAYER
 10
        6.94
 20
       30.95
 30
         .00
 11
        8.21
 21
       30.98
 31
         .00
  0
LINE
  8
LAYER
 10
        8.21
 20
       30.98
 30
         .00
 11
        9.49
 21
       31.09
 31
         .00
  0
LINE
  8
LAYER
 10
        9.49
 20
       31.09
 30
         .00
 11
       10.75
 21
       31.29
 31
         .00
  0
LINE
  8
LAYER
 10
       10.75
 20
       31.29
 30
         .00
 11
       12.00
 21
       31.58
 31
         .00
  0
LINE
  8
LAYER
 10
       12.00
 20
       31.58
 30
         .00
 11
       13.21
 21
       31.94
 31
         .00
  0
LINE
  8
LAYER
 10
       13.21
 20
       31.94
 30
         .00
 11
       14.38
 21
       32.39
 31
         .00
  0
LINE
  8
LAYER
 10
       14.38
 20
       32.39
 30
         .00
 11
       15.51
 21
       32.91
 31
         .00
  0
LINE
  8
LAYER
 10
       15.51
 20
       32.91
 30
         .00
 11
       16.58
 21
       33.50
 31
         .00
  0
LINE
  8
LAYER
 10
       16.58
 20
       33.50
 30
         .00
 11
       17.59
 21
       34.17
 31
         .00
  0
LINE
  8
LAYER
 10
       17.59
 20
       34.17
 30
         .00
 11
       18.52
 21
       34.89
 31
         .00
  0
LINE
  8
LAYER
 10
       18.52
 20
       34.89
 30
         .00
 11
       19.38
 21
       35.67
 31
         .00
  0
LINE
  8
LAYER
 10
       19.38
 20
       35.67
 30
         .00
 11
       20.14
 21
       36.50
 31
         .00
  0
LINE
  8
LAYER
 10
       20.14
 20
       36.50
 30
         .00
 11
       20.82
 21
       37.38
 31
         .00
  0
LINE
  8
LAYER
 10
       20.82
 20
       37.38
 30
         .00
 11
       21.40
 21
       38.29
 31
         .00
  0
LINE
  8
LAYER
 10
       21.40
 20
       38.29
 30
         .00
 11
       21.88
 21
       39.24
 31
         .00
  0
LINE
  8
LAYER
 10
       21.88
 20
       39.24
 30
         .00
 11
       22.25
 21
       40.21
 31
         .00
  0
LINE
  8
LAYER
 10
       22.25
 20
       40.21
 30
         .00
 11
       22.52
 21
       41.19
 31
         .00
  0
LINE
  8
LAYER
 10
       22.52
 20
       41.19
 30
         .00
 11
       22.68
 21
       42.19
 31
         .00
  0
LINE
  8
LAYER
 10
       22.68
 20
       42.19
 30
         .00
 11
       22.72
 21
       43.19
 31
         .00
  0
LINE
  8
LAYER
 10
       22.72
 20
       43.19
 30
         .00
 11
       22.65
 21
       44.18
 31
         .00
  0
LINE
  8
LAYER
 10
       22.65
 20
       44.18
 30
         .00
 11
       22.48
 21
       45.15
 31
         .00
  0
LINE
  8
LAYER
 10
       22.48
 20
       45.15
 30
         .00
 11
       22.19
 21
       46.11
 31
         .00
  0
LINE
  8
LAYER
 10
       22.19
 20
       46.11
 30
         .00
 11
       21.80
 21
       47.03
 31
         .00
  0
LINE
  8
LAYER
 10
       21.80
 20
       47.03
 30
         .00
 11
       21.30
 21
       47.93
 31
         .00
  0
LINE
  8
LAYER
 10
       21.30
 20
       47.93
 30
         .00
 11
       20.70
 21
       48.78
 31
         .00
  0
LINE
  8
LAYER
 10
       20.70
 20
       48.78
 30
         .00
 11
       20.01
 21
       49.58
 31
         .00
  0
LINE
  8
LAYER
 10
       20.01
 20
       49.58
 30
         .00
 11
       19.22
 21
       50.32
 31
         .00
  0
LINE
  8
LAYER
 10
       19.22
 20
       50.32
 30
         .00
 11
       18.35
 21
       51.01
 31
         .00
  0
LINE
  8
LAYER
 10
       18.35
 20
       51.01
 30
         .00
 11
       17.40
 21
       51.63
 31
         .00
  0
LINE
  8
LAYER
 10
       17.40
 20
       51.63
 30
         .00
 11
       16.38
 21
       52.18
 31
         .00
  0
LINE
  8
LAYER
 10
       16.38
 20
       52.18
 30
         .00
 11
       15.30
 21
       52.65
 31
         .00
  0
LINE
  8
LAYER
 10
       15.30
 20
       52.65
 30
         .00
 11
       14.17
 21
       53.05
 31
         .00
  0
LINE
  8
LAYER
 10
       14.17
 20
       53.05
 30
         .00
 11
       12.98
 21
       53.36
 31
         .00
  0
LINE
  8
LAYER
 10
       12.98
 20
       53.36
 30
         .00
 11
       11.76
 21
       53.59
 31
         .00
  0
LINE
  8
LAYER
 10
       11.76
 20
       53.59
 30
         .00
 11
       10.51
 21
       53.74
 31
         .00
  0
LINE
  8
LAYER
 10
       10.51
 20
       53.74
 30
         .00
 11
        9.25
 21
       53.80
 31
         .00
  0
LINE
  8
LAYER
 10
        9.25
 20
       53.80
 30
         .00
 11
        7.97
 21
       53.77
 31
         .00
  0
LINE
  8
LAYER
 10
        7.97
 20
       53.77
 30
         .00
 11
        6.70
 21
       53.66
 31
         .00
  0
LINE
  8
LAYER
 10
        6.70
 20
       53.66
 30
         .00
 11
        5.43
 21
       53.46
 31
         .00
  0
LINE
  8
LAYER
 10
        5.43
 20
       53.46
 30
         .00
 11
        4.19
 21
       53.17
 31
         .00
  0
LINE
  8
LAYER
 10
        4.19
 20
       53.17
 30
         .00
 11
        2.98
 21
       52.81
 31
         .00
  0
LINE
  8
LAYER
 10
        2.98
 20
       52.81
 30
         .00
 11
        1.80
 21
       52.36
 31
         .00
  0
LINE
  8
LAYER
 10
        1.80
 20
       52.36
 30
         .00
 11
         .67
 21
       51.84
 31
         .00
  0
LINE
  8
LAYER
 10
         .67
 20
       51.84
 30
         .00
 11
        -.40
 21
       51.25
 31
         .00
  0
LINE
  8
LAYER
 10
        -.40
 20
       51.25
 30
         .00
 11
       -1.40
 21
       50.59
 31
         .00
  0
LINE
  8
LAYER
 10
       -1.40
 20
       50.59
 30
         .00
 11
       -2.34
 21
       49.86
 31
         .00
  0
LINE
  8
LAYER
 10
       -2.34
 20
       49.86
 30
         .00
 11
       -3.19
 21
       49.08
 31
         .00
  0
LINE
  8
LAYER
 10
       -3.19
 20
       49.08
 30
         .00
 11
       -3.96
 21
       48.25
 31
         .00
  0
LINE
  8
LAYER
 10
       -3.96
 20
       48.25
 30
         .00
 11
       -4.64
 21
       47.37
 31
         .00
  0
LINE
  8
LAYER
 10
       -4.64
 20
       47.37
 30
         .00
 11
       -5.22
 21
       46.46
 31
         .00
  0
LINE
  8
LAYER
 10
       -5.22
 20
       46.46
 30
         .00
 11
       -5.69
 21
       45.51
 31
         .00
  0
LINE
  8
LAYER
 10
       -5.69
 20
       45.51
 30
         .00
 11
       -6.07
 21
       44.54
 31
         .00
  0
LINE
  8
LAYER
 10
       -6.07
 20
       44.54
 30
         .00
 11
       -6.33
 21
       43.56
 31
         .00
  0
LINE
  8
LAYER
 10
       -6.33
 20
       43.56
 30
         .00
 11
       -6.49
 21
       42.56
 31
         .00
  0
LINE
  8
LAYER
 10
       -6.49
 20
       42.56
 30
         .00
 11
       -6.54
 21
       41.57
 31
         .00
  0
LINE
  8
LAYER
 10
       -6.54
 20
       41.57
 30
         .00
 11
       -6.47
 21
       40.57
 31
         .00
  0
LINE
  8
LAYER
 10
       -1.20
 20
       39.22
 30
         .00
 11
       -1.20
 21
       39.22
 31
         .00
  0
LINE
  8
LAYER
 10
       -1.20
 20
       39.22
 30
         .00
 11
        -.93
 21
       38.28
 31
         .00
  0
LINE
  8
LAYER
 10
        -.93
 20
       38.28
 30
         .00
 11
        -.55
 21
       37.37
 31
         .00
  0
LINE
  8
LAYER
 10
        -.55
 20
       37.37
 30
         .00
 11
        -.08
 21
       36.49
 31
         .00
  0
LINE
  8
LAYER
 10
        -.08
 20
       36.49
 30
         .00
 11
         .50
 21
       35.67
 31
         .00
  0
LINE
  8
LAYER
 10
         .50
 20
       35.67
 30
         .00
 11
        1.16
 21
       34.89
 31
         .00
  0
LINE
  8
LAYER
 10
        1.16
 20
       34.89
 30
         .00
 11
        1.91
 21
       34.17
 31
         .00
  0
LINE
  8
LAYER
 10
        1.91
 20
       34.17
 30
         .00
 11
        2.75
 21
       33.52
 31
         .00
  0
LINE
  8
LAYER
 10
        2.75
 20
       33.52
 30
         .00
 11
        3.66
 21
       32.93
 31
         .00
  0
LINE
  8
LAYER
 10
        3.66
 20
       32.93
 30
         .00
 11
        4.64
 21
       32.41
 31
         .00
  0
LINE
  8
LAYER
 10
        4.64
 20
       32.41
 30
         .00
 11
        5.68
 21
       31.97
 31
         .00
  0
LINE
  8
LAYER
 10
        5.68
 20
       31.97
 30
         .00
 11
        6.77
 21
       31.61
 31
         .00
  0
LINE
  8
LAYER
 10
        6.77
 20
       31.61
 30
         .00
 11
        7.91
 21
       31.33
 31
         .00
  0
LINE
  8
LAYER
 10
        7.91
 20
       31.33
 30
         .00
 11
        9.08
 21
       31.13
 31
         .00
  0
LINE
  8
LAYER
 10
        9.08
 20
       31.13
 30
         .00
 11
       10.28
 21
       31.02
 31
         .00
  0
LINE
  8
LAYER
 10
       10.28
 20
       31.02
 30
         .00
 11
       11.50
 21
       31.00
 31
         .00
  0
LINE
  8
LAYER
 10
       11.50
 20
       31.00
 30
         .00
 11
       12.73
 21
       31.06
 31
         .00
  0
LINE
  8
LAYER
 10
       12.73
 20
       31.06
 30
         .00
 11
       13.96
 21
       31.21
 31
         .00
  0
LINE
  8
LAYER
 10
       13.96
 20
       31.21
 30
         .00
 11
       15.18
 21
       31.45
 31
         .00
  0
LINE
  8
LAYER
 10
       15.18
 20
       31.45
 30
         .00
 11
       16.38
 21
       31.77
 31
         .00
  0
LINE
  8
LAYER
 10
       16.38
 20
       31.77
 30
         .00
 11
       17.55
 21
       32.17
 31
         .00
  0
LINE
  8
LAYER
 10
       17.55
 20
       32.17
 30
         .00
 11
       18.69
 21
       32.64
 31
         .00
  0
LINE
  8
LAYER
 10
       18.69
 20
       32.64
 30
         .00
 11
       19.78
 21
       33.19
 31
         .00
  0
LINE
  8
LAYER
 10
       19.78
 20
       33.19
 30
         .00
 11
       20.81
 21
       33.81
 31
         .00
  0
LINE
  8
LAYER
 10
       20.81
 20
       33.81
 30
         .00
 11
       21.78
 21
       34.50
 31
         .00
  0
LINE
  8
LAYER
 10
       21.78
 20
       34.50
 30
         .00
 11
       22.69
 21
       35.25
 31
         .00
  0
LINE
  8
LAYER
 10
       22.69
 20
       35.25
 30
         .00
 11
       23.51
 21
       36.05
 31
         .00
  0
LINE
  8
LAYER
 10
       23.51
 20
       36.05
 30
         .00
 11
       24.26
 21
       36.90
 31
         .00
  0
LINE
  8
LAYER
 10
       24.26
 20
       36.90
 30
         .00
 11
       24.92
 21
       37.79
 31
         .00
  0
LINE
  8
LAYER
 10
       24.92
 20
       37.79
 30
         .00
 11
       25.48
 21
       38.71
 31
         .00
  0
LINE
  8
LAYER
 10
       25.48
 20
       38.71
 30
         .00
 11
       25.95
 21
       39.67
 31
         .00
  0
LINE
  8
LAYER
 10
       25.95
 20
       39.67
 30
         .00
 11
       26.31
 21
       40.64
 31
         .00
  0
LINE
  8
LAYER
 10
       26.31
 20
       40.64
 30
         .00
 11
       26.57
 21
       41.63
 31
         .00
  0
LINE
  8
LAYER
 10
       26.57
 20
       41.63
 30
         .00
 11
       26.73
 21
       42.62
 31
         .00
  0
LINE
  8
LAYER
 10
       26.73
 20
       42.62
 30
         .00
 11
       26.78
 21
       43.61
 31
         .00
  0
LINE
  8
LAYER
 10
       26.78
 20
       43.61
 30
         .00
 11
       26.72
 21
       44.60
 31
         .00
  0
LINE
  8
LAYER
 10
       26.72
 20
       44.60
 30
         .00
 11
       26.56
 21
       45.56
 31
         .00
  0
LINE
  8
LAYER
 10
       26.56
 20
       45.56
 30
         .00
 11
       26.28
 21
       46.50
 31
         .00
  0
LINE
  8
LAYER
 10
       26.28
 20
       46.50
 30
         .00
 11
       25.91
 21
       47.41
 31
         .00
  0
LINE
  8
LAYER
 10
       25.91
 20
       47.41
 30
         .00
 11
       25.44
 21
       48.29
 31
         .00
  0
LINE
  8
LAYER
 10
       25.44
 20
       48.29
 30
         .00
 11
       24.86
 21
       49.11
 31
         .00
  0
LINE
  8
LAYER
 10
       24.86
 20
       49.11
 30
         .00
 11
       24.20
 21
       49.89
 31
         .00
  0
LINE
  8
LAYER
 10
       24.20
 20
       49.89
 30
         .00
 11
       23.45
 21
       50.61
 31
         .00
  0
LINE
  8
LAYER
 10
       23.45
 20
       50.61
 30
         .00
 11
       22.61
 21
       51.26
 31
         .00
  0
LINE
  8
LAYER
 10
       22.61
 20
       51.26
 30
         .00
 11
       21.70
 21
       51.85
 31
         .00
  0
LINE
  8
LAYER
 10
       21.70
 20
       51.85
 30
         .00
 11
       20.72
 21
       52.37
 31
         .00
  0
LINE
  8
LAYER
 10
       20.72
 20
       52.37
 30
         .00
 11
       19.68
 21
       52.81
 31
         .00
  0
LINE
  8
LAYER
 10
       19.68
 20
       52.81
 30
         .00
 11
       18.59
 21
       53.17
 31
         .00
  0
LINE
  8
LAYER
 10
       18.59
 20
       53.17
 30
         .00
 11
       17.45
 21
       53.45
 31
         .00
  0
LINE
  8
LAYER
 10
       17.45
 20
       53.45
 30
         .00
 11
       16.28
 21
       53.65
 31
         .00
  0
LINE
  8
LAYER
 10
       16.28
 20
       53.65
 30
         .00
 11
       15.07
 21
       53.76
 31
         .00
  0
LINE
  8
LAYER
 10
       15.07
 20
       53.76
 30
         .00
 11
       13.85
 21
       53.78
 31
         .00
  0
LINE
  8
LAYER
 10
       13.85
 20
       53.78
 30
         .00
 11
       12.63
 21
       53.71
 31
         .00
  0
LINE
  8
LAYER
 10
       12.63
 20
       53.71
 30
         .00
 11
       11.40
 21
       53.56
 31
         .00
  0
LINE
  8
LAYER
 10
       11.40
 20
       53.56
 30
         .00
 11
       10.18
 21
       53.33
 31
         .00
  0
LINE
  8
LAYER
 10
       10.18
 20
       53.33
 30
         .00
 11
        8.98
 21
       53.01
 31
         .00
  0
LINE
  8
LAYER
 10
        8.98
 20
       53.01
 30
         .00
 11
        7.81
 21
       52.61
 31
         .00
  0
LINE
  8
LAYER
 10
        7.81
 20
       52.61
 30
         .00
 11
        6.67
 21
       52.14
 31
         .00
  0
LINE
  8
LAYER
 10
        6.67
 20
       52.14
 30
         .00
 11
        5.58
 21
       51.59
 31
         .00
  0
LINE
  8
LAYER
 10
        5.58
 20
       51.59
 30
         .00
 11
        4.55
 21
       50.96
 31
         .00
  0
LINE
  8
LAYER
 10
        4.55
 20
       50.96
 30
         .00
 11
        3.58
 21
       50.28
 31
         .00
  0
LINE
  8
LAYER
 10
        3.58
 20
       50.28
 30
         .00
 11
        2.67
 21
       49.53
 31
         .00
  0
LINE
  8
LAYER
 10
        2.67
 20
       49.53
 30
         .00
 11
        1.84
 21
       48.73
 31
         .00
  0
LINE
  8
LAYER
 10
        1.84
 20
       48.73
 30
         .00
 11
        1.10
 21
       47.88
 31
         .00
  0
LINE
  8
LAYER
 10
        1.10
 20
       47.88
 30
         .00
 11
         .44
 21
       46.99
 31
         .00
  0
LINE
  8
LAYER
 10
         .44
 20
       46.99
 30
         .00
 11
        -.12
 21
       46.07
 31
         .00
  0
LINE
  8
LAYER
 10
        -.12
 20
       46.07
 30
         .00
 11
        -.59
 21
       45.11
 31
         .00
  0
LINE
  8
LAYER
 10
        -.59
 20
       45.11
 30
         .00
 11
        -.95
 21
       44.14
 31
         .00
  0
LINE
  8
LAYER
 10
        -.95
 20
       44.14
 30
         .00
 11
       -1.21
 21
       43.15
 31
         .00
  0
LINE
  8
LAYER
 10
       -1.21
 20
       43.15
 30
         .00
 11
       -1.37
 21
       42.16
 31
         .00
  0
LINE
  8
LAYER
 10
       -1.37
 20
       42.16
 30
         .00
 11
       -1.42
 21
       41.17
 31
         .00
  0
LINE
  8
LAYER
 10
       -1.42
 20
       41.17
 30
         .00
 11
       -1.36
 21
       40.18
 31
         .00
  0
LINE
  8
LAYER
 10
       -1.36
 20
       40.18
 30
         .00
 11
       -1.20
 21
       39.22
 31
         .00
  0
LINE
  8
LAYER
 10
        3.62
 20
       37.71
 30
         .00
 11
        3.62
 21
       37.71
 31
         .00
  0
LINE
  8
LAYER
 10
        3.62
 20
       37.71
 30
         .00
 11
        3.99
 21
       36.81
 31
         .00
  0
LINE
  8
LAYER
 10
        3.99
 20
       36.81
 30
         .00
 11
        4.46
 21
       35.94
 31
         .00
  0
LINE
  8
LAYER
 10
        4.46
 20
       35.94
 30
         .00
 11
        5.03
 21
       35.13
 31
         .00
  0
LINE
  8
LAYER
 10
        5.03
 20
       35.13
 30
         .00
 11
        5.70
 21
       34.37
 31
         .00
  0
LINE
  8
LAYER
 10
        5.70
 20
       34.37
 30
         .00
 11
        6.45
 21
       33.67
 31
         .00
  0
LINE
  8
LAYER
 10
        6.45
 20
       33.67
 30
         .00
 11
        7.28
 21
       33.04
 31
         .00
  0
LINE
  8
LAYER
 10
        7.28
 20
       33.04
 30
         .00
 11
        8.20
 21
       32.48
 31
         .00
  0
LINE
  8
LAYER
 10
        8.20
 20
       32.48
 30
         .00
 11
        9.18
 21
       32.00
 31
         .00
  0
LINE
  8
LAYER
 10
        9.18
 20
       32.00
 30
         .00
 11
       10.22
 21
       31.59
 31
         .00
  0
LINE
  8
LAYER
 10
       10.22
 20
       31.59
 30
         .00
 11
       11.32
 21
       31.27
 31
         .00
  0
LINE
  8
LAYER
 10
       11.32
 20
       31.27
 30
         .00
 11
       12.46
 21
       31.03
 31
         .00
  0
LINE
  8
LAYER
 10
       12.46
 20
       31.03
 30
         .00
 11
       13.64
 21
       30.88
 31
         .00
  0
LINE
  8
LAYER
 10
       13.64
 20
       30.88
 30
         .00
 11
       14.85
 21
       30.82
 31
         .00
  0
LINE
  8
LAYER
 10
       14.85
 20
       30.82
 30
         .00
 11
       16.08
 21
       30.85
 31
         .00
  0
LINE
  8
LAYER
 10
       16.08
 20
       30.85
 30
         .00
 11
       17.31
 21
       30.96
 31
         .00
  0
LINE
  8
LAYER
 10
       17.31
 20
       30.96
 30
         .00
 11
       18.55
 21
       31.17
 31
         .00
  0
LINE
  8
LAYER
 10
       18.55
 20
       31.17
 30
         .00
 11
       19.78
 21
       31.45
 31
         .00
  0
LINE
  8
LAYER
 10
       19.78
 20
       31.45
 30
         .00
 11
       20.98
 21
       31.83
 31
         .00
  0
LINE
  8
LAYER
 10
       20.98
 20
       31.83
 30
         .00
 11
       22.16
 21
       32.28
 31
         .00
  0
LINE
  8
LAYER
 10
       22.16
 20
       32.28
 30
         .00
 11
       23.31
 21
       32.81
 31
         .00
  0
LINE
  8
LAYER
 10
       23.31
 20
       32.81
 30
         .00
 11
       24.41
 21
       33.41
 31
         .00
  0
LINE
  8
LAYER
 10
       24.41
 20
       33.41
 30
         .00
 11
       25.45
 21
       34.08
 31
         .00
  0
LINE
  8
LAYER
 10
       25.45
 20
       34.08
 30
         .00
 11
       26.43
 21
       34.82
 31
         .00
  0
LINE
  8
LAYER
 10
       26.43
 20
       34.82
 30
         .00
 11
       27.34
 21
       35.61
 31
         .00
  0
LINE
  8
LAYER
 10
       27.34
 20
       35.61
 30
         .00
 11
       28.18
 21
       36.46
 31
         .00
  0
LINE
  8
LAYER
 10
       28.18
 20
       36.46
 30
         .00
 11
       28.93
 21
       37.35
 31
         .00
  0
LINE
  8
LAYER
 10
       28.93
 20
       37.35
 30
         .00
 11
       29.60
 21
       38.28
 31
         .00
  0
LINE
  8
LAYER
 10
       29.60
 20
       38.28
 30
         .00
 11
       30.17
 21
       39.24
 31
         .00
  0
LINE
  8
LAYER
 10
       30.17
 20
       39.24
 30
         .00
 11
       30.65
 21
       40.23
 31
         .00
  0
LINE
  8
LAYER
 10
       30.65
 20
       40.23
 30
         .00
 11
       31.02
 21
       41.23
 31
         .00
  0
LINE
  8
LAYER
 10
       31.02
 20
       41.23
 30
         .00
 11
       31.29
 21
       42.24
 31
         .00
  0
LINE
  8
LAYER
 10
       31.29
 20
       42.24
 30
         .00
 11
       31.45
 21
       43.26
 31
         .00
  0
LINE
  8
LAYER
 10
       31.45
 20
       43.26
 30
         .00
 11
       31.50
 21
       44.26
 31
         .00
  0
LINE
  8
LAYER
 10
       31.50
 20
       44.26
 30
         .00
 11
       31.45
 21
       45.26
 31
         .00
  0
LINE
  8
LAYER
 10
       31.45
 20
       45.26
 30
         .00
 11
       31.29
 21
       46.23
 31
         .00
  0
LINE
  8
LAYER
 10
       31.29
 20
       46.23
 30
         .00
 11
       31.02
 21
       47.17
 31
         .00
  0
LINE
  8
LAYER
 10
       31.02
 20
       47.17
 30
         .00
 11
       30.65
 21
       48.08
 31
         .00
  0
LINE
  8
LAYER
 10
       30.65
 20
       48.08
 30
         .00
 11
       30.18
 21
       48.95
 31
         .00
  0
LINE
  8
LAYER
 10
       30.18
 20
       48.95
 30
         .00
 11
       29.61
 21
       49.76
 31
         .00
  0
LINE
  8
LAYER
 10
       29.61
 20
       49.76
 30
         .00
 11
       28.94
 21
       50.52
 31
         .00
  0
LINE
  8
LAYER
 10
       28.94
 20
       50.52
 30
         .00
 11
       28.19
 21
       51.22
 31
         .00
  0
LINE
  8
LAYER
 10
       28.19
 20
       51.22
 30
         .00
 11
       27.35
 21
       51.85
 31
         .00
  0
LINE
  8
LAYER
 10
       27.35
 20
       51.85
 30
         .00
 11
       26.44
 21
       52.41
 31
         .00
  0
LINE
  8
LAYER
 10
       26.44
 20
       52.41
 30
         .00
 11
       25.46
 21
       52.89
 31
         .00
  0
LINE
  8
LAYER
 10
       25.46
 20
       52.89
 30
         .00
 11
       24.42
 21
       53.30
 31
         .00
  0
LINE
  8
LAYER
 10
       24.42
 20
       53.30
 30
         .00
 11
       23.32
 21
       53.62
 31
         .00
  0
LINE
  8
LAYER
 10
       23.32
 20
       53.62
 30
         .00
 11
       22.18
 21
       53.85
 31
         .00
  0
LINE
  8
LAYER
 10
       22.18
 20
       53.85
 30
         .00
 11
       21.00
 21
       54.00
 31
         .00
  0
LINE
  8
LAYER
 10
       21.00
 20
       54.00
 30
         .00
 11
       19.79
 21
       54.07
 31
         .00
  0
LINE
  8
LAYER
 10
       19.79
 20
       54.07
 30
         .00
 11
       18.56
 21
       54.04
 31
         .00
  0
LINE
  8
LAYER
 10
       18.56
 20
       54.04
 30
         .00
 11
       17.33
 21
       53.92
 31
         .00
  0
LINE
  8
LAYER
 10
       17.33
 20
       53.92
 30
         .00
 11
       16.09
 21
       53.72
 31
         .00
  0
LINE
  8
LAYER
 10
       16.09
 20
       53.72
 30
         .00
 11
       14.86
 21
       53.43
 31
         .00
  0
LINE
  8
LAYER
 10
       14.86
 20
       53.43
 30
         .00
 11
       13.65
 21
       53.06
 31
         .00
  0
LINE
  8
LAYER
 10
       13.65
 20
       53.06
 30
         .00
 11
       12.47
 21
       52.61
 31
         .00
  0
LINE
  8
LAYER
 10
       12.47
 20
       52.61
 30
         .00
 11
       11.33
 21
       52.08
 31
         .00
  0
LINE
  8
LAYER
 10
       11.33
 20
       52.08
 30
         .00
 11
       10.23
 21
       51.48
 31
         .00
  0
LINE
  8
LAYER
 10
       10.23
 20
       51.48
 30
         .00
 11
        9.19
 21
       50.80
 31
         .00
  0
LINE
  8
LAYER
 10
        9.19
 20
       50.80
 30
         .00
 11
        8.21
 21
       50.07
 31
         .00
  0
LINE
  8
LAYER
 10
        8.21
 20
       50.07
 30
         .00
 11
        7.29
 21
       49.28
 31
         .00
  0
LINE
  8
LAYER
 10
        7.29
 20
       49.28
 30
         .00
 11
        6.46
 21
       48.43
 31
         .00
  0
LINE
  8
LAYER
 10
        6.46
 20
       48.43
 30
         .00
 11
        5.70
 21
       47.54
 31
         .00
  0
LINE
  8
LAYER
 10
        5.70
 20
       47.54
 30
         .00
 11
        5.04
 21
       46.61
 31
         .00
  0
LINE
  8
LAYER
 10
        5.04
 20
       46.61
 30
         .00
 11
        4.47
 21
       45.65
 31
         .00
  0
LINE
  8
LAYER
 10
        4.47
 20
       45.65
 30
         .00
 11
        3.99
 21
       44.66
 31
         .00
  0
LINE
  8
LAYER
 10
        3.99
 20
       44.66
 30
         .00
 11
        3.62
 21
       43.66
 31
         .00
  0
LINE
  8
LAYER
 10
        3.62
 20
       43.66
 30
         .00
 11
        3.35
 21
       42.65
 31
         .00
  0
LINE
  8
LAYER
 10
        3.35
 20
       42.65
 30
         .00
 11
        3.19
 21
       41.63
 31
         .00
  0
LINE
  8
LAYER
 10
        3.19
 20
       41.63
 30
         .00
 11
        3.14
 21
       40.62
 31
         .00
  0
LINE
  8
LAYER
 10
        3.14
 20
       40.62
 30
         .00
 11
        3.19
 21
       39.63
 31
         .00
  0
LINE
  8
LAYER
 10
        3.19
 20
       39.63
 30
         .00
 11
        3.35
 21
       38.66
 31
         .00
  0
LINE
  8
LAYER
 10
        3.35
 20
       38.66
 30
         .00
 11
        3.62
 21
       37.71
 31
         .00
  0
LINE
  8
LAYER
 10
       18.33
 20
       41.04
 30
         .00
 11
       18.33
 21
       41.04
 31
         .00
  0
LINE
  8
LAYER
 10
       18.33
 20
       41.04
 30
         .00
 11
       18.32
 21
       42.02
 31
         .00
  0
LINE
  8
LAYER
 10
       18.32
 20
       42.02
 30
         .00
 11
       18.16
 21
       43.00
 31
         .00
  0
LINE
  8
LAYER
 10
       18.16
 20
       43.00
 30
         .00
 11
       17.86
 21
       43.98
 31
         .00
  0
LINE
  8
LAYER
 10
       17.86
 20
       43.98
 30
         .00
 11
       17.42
 21
       44.94
 31
         .00
  0
LINE
  8
LAYER
 10
       17.42
 20
       44.94
 30
         .00
 11
       16.84
 21
       45.88
 31
         .00
  0
LINE
  8
LAYER
 10
       16.84
 20
       45.88
 30
         .00
 11
       16.13
 21
       46.79
 31
         .00
  0
LINE
  8
LAYER
 10
       16.13
 20
       46.79
 30
         .00
 11
       15.29
 21
       47.67
 31
         .00
  0
LINE
  8
LAYER
 10
       15.29
 20
       47.67
 30
         .00
 11
       14.33
 21
       48.51
 31
         .00
  0
LINE
  8
LAYER
 10
       14.33
 20
       48.51
 30
         .00
 11
       13.25
 21
       49.30
 31
         .00
  0
LINE
  8
LAYER
 10
       13.25
 20
       49.30
 30
         .00
 11
       12.07
 21
       50.03
 31
         .00
  0
LINE
  8
LAYER
 10
       12.07
 20
       50.03
 30
         .00
 11
       10.79
 21
       50.71
 31
         .00
  0
LINE
  8
LAYER
 10
       10.79
 20
       50.71
 30
         .00
 11
        9.43
 21
       51.32
 31
         .00
  0
LINE
  8
LAYER
 10
        9.43
 20
       51.32
 30
         .00
 11
        7.99
 21
       51.86
 31
         .00
  0
LINE
  8
LAYER
 10
        7.99
 20
       51.86
 30
         .00
 11
        6.48
 21
       52.33
 31
         .00
  0
LINE
  8
LAYER
 10
        6.48
 20
       52.33
 30
         .00
 11
        4.92
 21
       52.72
 31
         .00
  0
LINE
  8
LAYER
 10
        4.92
 20
       52.72
 30
         .00
 11
        3.31
 21
       53.04
 31
         .00
  0
LINE
  8
LAYER
 10
        3.31
 20
       53.04
 30
         .00
 11
        1.67
 21
       53.27
 31
         .00
  0
LINE
  8
LAYER
 10
        1.67
 20
       53.27
 30
         .00
 11
         .02
 21
       53.41
 31
         .00
  0
LINE
  8
LAYER
 10
         .02
 20
       53.41
 30
         .00
 11
       -1.64
 21
       53.47
 31
         .00
  0
LINE
  8
LAYER
 10
       -1.64
 20
       53.47
 30
         .00
 11
       -3.29
 21
       53.45
 31
         .00
  0
LINE
  8
LAYER
 10
       -3.29
 20
       53.45
 30
         .00
 11
       -4.92
 21
       53.34
 31
         .00
  0
LINE
  8
LAYER
 10
       -4.92
 20
       53.34
 30
         .00
 11
       -6.52
 21
       53.14
 31
         .00
  0
LINE
  8
LAYER
 10
       -6.52
 20
       53.14
 30
         .00
 11
       -8.07
 21
       52.86
 31
         .00
  0
LINE
  8
LAYER
 10
       -8.07
 20
       52.86
 30
         .00
 11
       -9.57
 21
       52.50
 31
         .00
  0
LINE
  8
LAYER
 10
       -9.57
 20
       52.50
 30
         .00
 11
      -11.00
 21
       52.07
 31
         .00
  0
LINE
  8
LAYER
 10
      -11.00
 20
       52.07
 30
         .00
 11
      -12.36
 21
       51.55
 31
         .00
  0
LINE
  8
LAYER
 10
      -12.36
 20
       51.55
 30
         .00
 11
      -13.62
 21
       50.97
 31
         .00
  0
LINE
  8
LAYER
 10
      -13.62
 20
       50.97
 30
         .00
 11
      -14.78
 21
       50.32
 31
         .00
  0
LINE
  8
LAYER
 10
      -14.78
 20
       50.32
 30
         .00
 11
      -15.84
 21
       49.61
 31
         .00
  0
LINE
  8
LAYER
 10
      -15.84
 20
       49.61
 30
         .00
 11
      -16.78
 21
       48.84
 31
         .00
  0
LINE
  8
LAYER
 10
      -16.78
 20
       48.84
 30
         .00
 11
      -17.60
 21
       48.02
 31
         .00
  0
LINE
  8
LAYER
 10
      -17.60
 20
       48.02
 30
         .00
 11
      -18.29
 21
       47.16
 31
         .00
  0
LINE
  8
LAYER
 10
      -18.29
 20
       47.16
 30
         .00
 11
      -18.85
 21
       46.26
 31
         .00
  0
LINE
  8
LAYER
 10
      -18.85
 20
       46.26
 30
         .00
 11
      -19.27
 21
       45.33
 31
         .00
  0
LINE
  8
LAYER
 10
      -19.27
 20
       45.33
 30
         .00
 11
      -19.54
 21
       44.37
 31
         .00
  0
LINE
  8
LAYER
 10
      -19.54
 20
       44.37
 30
         .00
 11
      -19.68
 21
       43.40
 31
         .00
  0
LINE
  8
LAYER
 10
      -19.68
 20
       43.40
 30
         .00
 11
      -19.66
 21
       42.42
 31
         .00
  0
LINE
  8
LAYER
 10
      -19.66
 20
       42.42
 30
         .00
 11
      -19.51
 21
       41.44
 31
         .00
  0
LINE
  8
LAYER
 10
      -19.51
 20
       41.44
 30
         .00
 11
      -19.21
 21
       40.47
 31
         .00
  0
LINE
  8
LAYER
 10
      -19.21
 20
       40.47
 30
         .00
 11
      -18.77
 21
       39.51
 31
         .00
  0
LINE
  8
LAYER
 10
      -18.77
 20
       39.51
 30
         .00
 11
      -18.19
 21
       38.56
 31
         .00
  0
LINE
  8
LAYER
 10
      -18.19
 20
       38.56
 30
         .00
 11
      -17.48
 21
       37.65
 31
         .00
  0
LINE
  8
LAYER
 10
      -17.48
 20
       37.65
 30
         .00
 11
      -16.64
 21
       36.77
 31
         .00
  0
LINE
  8
LAYER
 10
      -16.64
 20
       36.77
 30
         .00
 11
      -15.68
 21
       35.94
 31
         .00
  0
LINE
  8
LAYER
 10
      -15.68
 20
       35.94
 30
         .00
 11
      -14.60
 21
       35.15
 31
         .00
  0
LINE
  8
LAYER
 10
      -14.60
 20
       35.15
 30
         .00
 11
      -13.42
 21
       34.41
 31
         .00
  0
LINE
  8
LAYER
 10
      -13.42
 20
       34.41
 30
         .00
 11
      -12.14
 21
       33.73
 31
         .00
  0
LINE
  8
LAYER
 10
      -12.14
 20
       33.73
 30
         .00
 11
      -10.78
 21
       33.12
 31
         .00
  0
LINE
  8
LAYER
 10
      -10.78
 20
       33.12
 30
         .00
 11
       -9.34
 21
       32.58
 31
         .00
  0
LINE
  8
LAYER
 10
       -9.34
 20
       32.58
 30
         .00
 11
       -7.83
 21
       32.11
 31
         .00
  0
LINE
  8
LAYER
 10
       -7.83
 20
       32.11
 30
         .00
 11
       -6.26
 21
       31.72
 31
         .00
  0
LINE
  8
LAYER
 10
       -6.26
 20
       31.72
 30
         .00
 11
       -4.66
 21
       31.41
 31
         .00
  0
LINE
  8
LAYER
 10
       -4.66
 20
       31.41
 30
         .00
 11
       -3.02
 21
       31.18
 31
         .00
  0
LINE
  8
LAYER
 10
       -3.02
 20
       31.18
 30
         .00
 11
       -1.37
 21
       31.03
 31
         .00
  0
LINE
  8
LAYER
 10
       -1.37
 20
       31.03
 30
         .00
 11
         .29
 21
       30.97
 31
         .00
  0
LINE
  8
LAYER
 10
         .29
 20
       30.97
 30
         .00
 11
        1.94
 21
       31.00
 31
         .00
  0
LINE
  8
LAYER
 10
        1.94
 20
       31.00
 30
         .00
 11
        3.57
 21
       31.11
 31
         .00
  0
LINE
  8
LAYER
 10
        3.57
 20
       31.11
 30
         .00
 11
        5.17
 21
       31.30
 31
         .00
  0
LINE
  8
LAYER
 10
        5.17
 20
       31.30
 30
         .00
 11
        6.73
 21
       31.58
 31
         .00
  0
LINE
  8
LAYER
 10
        6.73
 20
       31.58
 30
         .00
 11
        8.22
 21
       31.94
 31
         .00
  0
LINE
  8
LAYER
 10
        8.22
 20
       31.94
 30
         .00
 11
        9.65
 21
       32.38
 31
         .00
  0
LINE
  8
LAYER
 10
        9.65
 20
       32.38
 30
         .00
 11
       11.01
 21
       32.89
 31
         .00
  0
LINE
  8
LAYER
 10
       11.01
 20
       32.89
 30
         .00
 11
       12.27
 21
       33.47
 31
         .00
  0
LINE
  8
LAYER
 10
       12.27
 20
       33.47
 30
         .00
 11
       13.43
 21
       34.12
 31
         .00
  0
LINE
  8
LAYER
 10
       13.43
 20
       34.12
 30
         .00
 11
       14.49
 21
       34.84
 31
         .00
  0
LINE
  8
LAYER
 10
       14.49
 20
       34.84
 30
         .00
 11
       15.43
 21
       35.60
 31
         .00
  0
LINE
  8
LAYER
 10
       15.43
 20
       35.60
 30
         .00
 11
       16.25
 21
       36.42
 31
         .00
  0
LINE
  8
LAYER
 10
       16.25
 20
       36.42
 30
         .00
 11
       16.94
 21
       37.29
 31
         .00
  0
LINE
  8
LAYER
 10
       16.94
 20
       37.29
 30
         .00
 11
       17.50
 21
       38.18
 31
         .00
  0
LINE
  8
LAYER
 10
       17.50
 20
       38.18
 30
         .00
 11
       17.92
 21
       39.12
 31
         .00
  0
LINE
  8
LAYER
 10
       17.92
 20
       39.12
 30
         .00
 11
       18.19
 21
       40.07
 31
         .00
  0
LINE
  8
LAYER
 10
       18.19
 20
       40.07
 30
         .00
 11
       18.33
 21
       41.04
 31
         .00
  0
LINE
  8
LAYER
 10
        3.76
 20
       32.84
 30
         .00
 11
        3.76
 21
       32.84
 31
         .00
  0
LINE
  8
LAYER
 10
        3.76
 20
       32.84
 30
         .00
 11
        4.26
 21
       32.24
 31
         .00
  0
LINE
  8
LAYER
 10
        4.26
 20
       32.24
 30
         .00
 11
        4.87
 21
       31.72
 31
         .00
  0
LINE
  8
LAYER
 10
        4.87
 20
       31.72
 30
         .00
 11
        5.57
 21
       31.27
 31
         .00
  0
LINE
  8
LAYER
 10
        5.57
 20
       31.27
 30
         .00
 11
        6.35
 21
       30.92
 31
         .00
  0
LINE
  8
LAYER
 10
        6.35
 20
       30.92
 30
         .00
 11
        7.23
 21
       30.65
 31
         .00
  0
LINE
  8
LAYER
 10
        7.23
 20
       30.65
 30
         .00
 11
        8.17
 21
       30.47
 31
         .00
  0
LINE
  8
LAYER
 10
        8.17
 20
       30.47
 30
         .00
 11
        9.19
 21
       30.38
 31
         .00
  0
LINE
  8
LAYER
 10
        9.19
 20
       30.38
 30
         .00
 11
       10.27
 21
       30.38
 31
         .00
  0
LINE
  8
LAYER
 10
       10.27
 20
       30.38
 30
         .00
 11
       11.40
 21
       30.48
 31
         .00
  0
LINE
  8
LAYER
 10
       11.40
 20
       30.48
 30
         .00
 11
       12.58
 21
       30.66
 31
         .00
  0
LINE
  8
LAYER
 10
       12.58
 20
       30.66
 30
         .00
 11
       13.79
 21
       30.94
 31
         .00
  0
LINE
  8
LAYER
 10
       13.79
 20
       30.94
 30
         .00
 11
       15.03
 21
       31.30
 31
         .00
  0
LINE
  8
LAYER
 10
       15.03
 20
       31.30
 30
         .00
 11
       16.29
 21
       31.75
 31
         .00
  0
LINE
  8
LAYER
 10
       16.29
 20
       31.75
 30
         .00
 11
       17.55
 21
       32.28
 31
         .00
  0
LINE
  8
LAYER
 10
       17.55
 20
       32.28
 30
         .00
 11
       18.81
 21
       32.88
 31
         .00
  0
LINE
  8
LAYER
 10
       18.81
 20
       32.88
 30
         .00
 11
       20.06
 21
       33.56
 31
         .00
  0
LINE
  8
LAYER
 10
       20.06
 20
       33.56
 30
         .00
 11
       21.29
 21
       34.31
 31
         .00
  0
LINE
  8
LAYER
 10
       21.29
 20
       34.31
 30
         .00
 11
       22.49
 21
       35.12
 31
         .00
  0
LINE
  8
LAYER
 10
       22.49
 20
       35.12
 30
         .00
 11
       23.65
 21
       35.99
 31
         .00
  0
LINE
  8
LAYER
 10
       23.65
 20
       35.99
 30
         .00
 11
       24.76
 21
       36.90
 31
         .00
  0
LINE
  8
LAYER
 10
       24.76
 20
       36.90
 30
         .00
 11
       25.82
 21
       37.86
 31
         .00
  0
LINE
  8
LAYER
 10
       25.82
 20
       37.86
 30
         .00
 11
       26.80
 21
       38.85
 31
         .00
  0
LINE
  8
LAYER
 10
       26.80
 20
       38.85
 30
         .00
 11
       27.72
 21
       39.87
 31
         .00
  0
LINE
  8
LAYER
 10
       27.72
 20
       39.87
 30
         .00
 11
       28.56
 21
       40.91
 31
         .00
  0
LINE
  8
LAYER
 10
       28.56
 20
       40.91
 30
         .00
 11
       29.31
 21
       41.96
 31
         .00
  0
LINE
  8
LAYER
 10
       29.31
 20
       41.96
 30
         .00
 11
       29.97
 21
       43.01
 31
         .00
  0
LINE
  8
LAYER
 10
       29.97
 20
       43.01
 30
         .00
 11
       30.53
 21
       44.06
 31
         .00
  0
LINE
  8
LAYER
 10
       30.53
 20
       44.06
 30
         .00
 11
       31.00
 21
       45.10
 31
         .00
  0
LINE
  8
LAYER
 10
       31.00
 20
       45.10
 30
         .00
 11
       31.36
 21
       46.11
 31
         .00
  0
LINE
  8
LAYER
 10
       31.36
 20
       46.11
 30
         .00
 11
       31.61
 21
       47.10
 31
         .00
  0
LINE
  8
LAYER
 10
       31.61
 20
       47.10
 30
         .00
 11
       31.75
 21
       48.06
 31
         .00
  0
LINE
  8
LAYER
 10
       31.75
 20
       48.06
 30
         .00
 11
       31.78
 21
       48.97
 31
         .00
  0
LINE
  8
LAYER
 10
       31.78
 20
       48.97
 30
         .00
 11
       31.70
 21
       49.83
 31
         .00
  0
LINE
  8
LAYER
 10
       31.70
 20
       49.83
 30
         .00
 11
       31.52
 21
       50.64
 31
         .00
  0
LINE
  8
LAYER
 10
       31.52
 20
       50.64
 30
         .00
 11
       31.22
 21
       51.38
 31
         .00
  0
LINE
  8
LAYER
 10
       31.22
 20
       51.38
 30
         .00
 11
       30.82
 21
       52.06
 31
         .00
  0
LINE
  8
LAYER
 10
       30.82
 20
       52.06
 30
         .00
 11
       30.31
 21
       52.66
 31
         .00
  0
LINE
  8
LAYER
 10
       30.31
 20
       52.66
 30
         .00
 11
       29.71
 21
       53.18
 31
         .00
  0
LINE
  8
LAYER
 10
       29.71
 20
       53.18
 30
         .00
 11
       29.01
 21
       53.62
 31
         .00
  0
LINE
  8
LAYER
 10
       29.01
 20
       53.62
 30
         .00
 11
       28.22
 21
       53.98
 31
         .00
  0
LINE
  8
LAYER
 10
       28.22
 20
       53.98
 30
         .00
 11
       27.35
 21
       54.25
 31
         .00
  0
LINE
  8
LAYER
 10
       27.35
 20
       54.25
 30
         .00
 11
       26.40
 21
       54.43
 31
         .00
  0
LINE
  8
LAYER
 10
       26.40
 20
       54.43
 30
         .00
 11
       25.39
 21
       54.52
 31
         .00
  0
LINE
  8
LAYER
 10
       25.39
 20
       54.52
 30
         .00
 11
       24.31
 21
       54.52
 31
         .00
  0
LINE
  8
LAYER
 10
       24.31
 20
       54.52
 30
         .00
 11
       23.18
 21
       54.42
 31
         .00
  0
LINE
  8
LAYER
 10
       23.18
 20
       54.42
 30
         .00
 11
       22.00
 21
       54.24
 31
         .00
  0
LINE
  8
LAYER
 10
       22.00
 20
       54.24
 30
         .00
 11
       20.79
 21
       53.96
 31
         .00
  0
LINE
  8
LAYER
 10
       20.79
 20
       53.96
 30
         .00
 11
       19.55
 21
       53.60
 31
         .00
  0
LINE
  8
LAYER
 10
       19.55
 20
       53.60
 30
         .00
 11
       18.29
 21
       53.15
 31
         .00
  0
LINE
  8
LAYER
 10
       18.29
 20
       53.15
 30
         .00
 11
       17.03
 21
       52.62
 31
         .00
  0
LINE
  8
LAYER
 10
       17.03
 20
       52.62
 30
         .00
 11
       15.76
 21
       52.01
 31
         .00
  0
LINE
  8
LAYER
 10
       15.76
 20
       52.01
 30
         .00
 11
       14.51
 21
       51.33
 31
         .00
  0
LINE
  8
LAYER
 10
       14.51
 20
       51.33
 30
         .00
 11
       13.28
 21
       50.59
 31
         .00
  0
LINE
  8
LAYER
 10
       13.28
 20
       50.59
 30
         .00
 11
       12.09
 21
       49.78
 31
         .00
  0
LINE
  8
LAYER
 10
       12.09
 20
       49.78
 30
         .00
 11
       10.93
 21
       48.91
 31
         .00
  0
LINE
  8
LAYER
 10
       10.93
 20
       48.91
 30
         .00
 11
        9.82
 21
       48.00
 31
         .00
  0
LINE
  8
LAYER
 10
        9.82
 20
       48.00
 30
         .00
 11
        8.76
 21
       47.04
 31
         .00
  0
LINE
  8
LAYER
 10
        8.76
 20
       47.04
 30
         .00
 11
        7.77
 21
       46.05
 31
         .00
  0
LINE
  8
LAYER
 10
        7.77
 20
       46.05
 30
         .00
 11
        6.86
 21
       45.03
 31
         .00
  0
LINE
  8
LAYER
 10
        6.86
 20
       45.03
 30
         .00
 11
        6.02
 21
       43.99
 31
         .00
  0
LINE
  8
LAYER
 10
        6.02
 20
       43.99
 30
         .00
 11
        5.27
 21
       42.94
 31
         .00
  0
LINE
  8
LAYER
 10
        5.27
 20
       42.94
 30
         .00
 11
        4.61
 21
       41.89
 31
         .00
  0
LINE
  8
LAYER
 10
        4.61
 20
       41.89
 30
         .00
 11
        4.04
 21
       40.84
 31
         .00
  0
LINE
  8
LAYER
 10
        4.04
 20
       40.84
 30
         .00
 11
        3.58
 21
       39.80
 31
         .00
  0
LINE
  8
LAYER
 10
        3.58
 20
       39.80
 30
         .00
 11
        3.22
 21
       38.78
 31
         .00
  0
LINE
  8
LAYER
 10
        3.22
 20
       38.78
 30
         .00
 11
        2.97
 21
       37.79
 31
         .00
  0
LINE
  8
LAYER
 10
        2.97
 20
       37.79
 30
         .00
 11
        2.83
 21
       36.84
 31
         .00
  0
LINE
  8
LAYER
 10
        2.83
 20
       36.84
 30
         .00
 11
        2.80
 21
       35.93
 31
         .00
  0
LINE
  8
LAYER
 10
        2.80
 20
       35.93
 30
         .00
 11
        2.87
 21
       35.07
 31
         .00
  0
LINE
  8
LAYER
 10
        2.87
 20
       35.07
 30
         .00
 11
        3.06
 21
       34.26
 31
         .00
  0
LINE
  8
LAYER
 10
        3.06
 20
       34.26
 30
         .00
 11
        3.36
 21
       33.52
 31
         .00
  0
LINE
  8
LAYER
 10
        3.36
 20
       33.52
 30
         .00
 11
        3.76
 21
       32.84
 31
         .00
  0
LINE
  8
LAYER
 10
      -13.70
 20
       40.70
 30
         .00
 11
      -13.70
 21
       40.70
 31
         .00
  0
LINE
  8
LAYER
 10
      -13.70
 20
       40.70
 30
         .00
 11
      -13.55
 21
       39.74
 31
         .00
  0
LINE
  8
LAYER
 10
      -13.55
 20
       39.74
 30
         .00
 11
      -13.27
 21
       38.81
 31
         .00
  0
LINE
  8
LAYER
 10
      -13.27
 20
       38.81
 30
         .00
 11
      -12.87
 21
       37.90
 31
         .00
  0
LINE
  8
LAYER
 10
      -12.87
 20
       37.90
 30
         .00
 11
      -12.35
 21
       37.03
 31
         .00
  0
LINE
  8
LAYER
 10
      -12.35
 20
       37.03
 30
         .00
 11
      -11.71
 21
       36.19
 31
         .00
  0
LINE
  8
LAYER
 10
      -11.71
 20
       36.19
 30
         .00
 11
      -10.95
 21
       35.40
 31
         .00
  0
LINE
  8
LAYER
 10
      -10.95
 20
       35.40
 30
         .00
 11
      -10.10
 21
       34.66
 31
         .00
  0
LINE
  8
LAYER
 10
      -10.10
 20
       34.66
 30
         .00
 11
       -9.14
 21
       33.98
 31
         .00
  0
LINE
  8
LAYER
 10
       -9.14
 20
       33.98
 30
         .00
 11
       -8.09
 21
       33.37
 31
         .00
  0
LINE
  8
LAYER
 10
       -8.09
 20
       33.37
 30
         .00
 11
       -6.95
 21
       32.82
 31
         .00
  0
LINE
  8
LAYER
 10
       -6.95
 20
       32.82
 30
         .00
 11
       -5.74
 21
       32.34
 31
         .00
  0
LINE
  8
LAYER
 10
       -5.74
 20
       32.34
 30
         .00
 11
       -4.46
 21
       31.94
 31
         .00
  0
LINE
  8
LAYER
 10
       -4.46
 20
       31.94
 30
         .00
 11
       -3.12
 21
       31.61
 31
         .00
  0
LINE
  8
LAYER
 10
       -3.12
 20
       31.61
 30
         .00
 11
       -1.74
 21
       31.37
 31
         .00
  0
LINE
  8
LAYER
 10
       -1.74
 20
       31.37
 30
         .00
 11
        -.32
 21
       31.21
 31
         .00
  0
LINE
  8
LAYER
 10
        -.32
 20
       31.21
 30
         .00
 11
        1.12
 21
       31.13
 31
         .00
  0
LINE
  8
LAYER
 10
        1.12
 20
       31.13
 30
         .00
 11
        2.58
 21
       31.14
 31
         .00
  0
LINE
  8
LAYER
 10
        2.58
 20
       31.14
 30
         .00
 11
        4.04
 21
       31.23
 31
         .00
  0
LINE
  8
LAYER
 10
        4.04
 20
       31.23
 30
         .00
 11
        5.50
 21
       31.41
 31
         .00
  0
LINE
  8
LAYER
 10
        5.50
 20
       31.41
 30
         .00
 11
        6.93
 21
       31.67
 31
         .00
  0
LINE
  8
LAYER
 10
        6.93
 20
       31.67
 30
         .00
 11
        8.34
 21
       32.01
 31
         .00
  0
LINE
  8
LAYER
 10
        8.34
 20
       32.01
 30
         .00
 11
        9.70
 21
       32.42
 31
         .00
  0
LINE
  8
LAYER
 10
        9.70
 20
       32.42
 30
         .00
 11
       11.02
 21
       32.91
 31
         .00
  0
LINE
  8
LAYER
 10
       11.02
 20
       32.91
 30
         .00
 11
       12.27
 21
       33.48
 31
         .00
  0
LINE
  8
LAYER
 10
       12.27
 20
       33.48
 30
         .00
 11
       13.46
 21
       34.11
 31
         .00
  0
LINE
  8
LAYER
 10
       13.46
 20
       34.11
 30
         .00
 11
       14.56
 21
       34.80
 31
         .00
  0
LINE
  8
LAYER
 10
       14.56
 20
       34.80
 30
         .00
 11
       15.58
 21
       35.54
 31
         .00
  0
LINE
  8
LAYER
 10
       15.58
 20
       35.54
 30
         .00
 11
       16.50
 21
       36.34
 31
         .00
  0
LINE
  8
LAYER
 10
       16.50
 20
       36.34
 30
         .00
 11
       17.32
 21
       37.19
 31
         .00
  0
LINE
  8
LAYER
 10
       17.32
 20
       37.19
 30
         .00
 11
       18.03
 21
       38.07
 31
         .00
  0
LINE
  8
LAYER
 10
       18.03
 20
       38.07
 30
         .00
 11
       18.62
 21
       38.98
 31
         .00
  0
LINE
  8
LAYER
 10
       18.62
 20
       38.98
 30
         .00
 11
       19.10
 21
       39.92
 31
         .00
  0
LINE
  8
LAYER
 10
       19.10
 20
       39.92
 30
         .00
 11
       19.45
 21
       40.88
 31
         .00
  0
LINE
  8
LAYER
 10
       19.45
 20
       40.88
 30
         .00
 11
       19.68
 21
       41.84
 31
         .00
  0
LINE
  8
LAYER
 10
       19.68
 20
       41.84
 30
         .00
 11
       19.79
 21
       42.81
 31
         .00
  0
LINE
  8
LAYER
 10
       19.79
 20
       42.81
 30
         .00
 11
       19.76
 21
       43.78
 31
         .00
  0
LINE
  8
LAYER
 10
       19.76
 20
       43.78
 30
         .00
 11
       19.61
 21
       44.73
 31
         .00
  0
LINE
  8
LAYER
 10
       19.61
 20
       44.73
 30
         .00
 11
       19.33
 21
       45.66
 31
         .00
  0
LINE
  8
LAYER
 10
       19.33
 20
       45.66
 30
         .00
 11
       18.93
 21
       46.57
 31
         .00
  0
LINE
  8
LAYER
 10
       18.93
 20
       46.57
 30
         .00
 11
       18.41
 21
       47.45
 31
         .00
  0
LINE
  8
LAYER
 10
       18.41
 20
       47.45
 30
         .00
 11
       17.77
 21
       48.28
 31
         .00
  0
LINE
  8
LAYER
 10
       17.77
 20
       48.28
 30
         .00
 11
       17.01
 21
       49.07
 31
         .00
  0
LINE
  8
LAYER
 10
       17.01
 20
       49.07
 30
         .00
 11
       16.16
 21
       49.81
 31
         .00
  0
LINE
  8
LAYER
 10
       16.16
 20
       49.81
 30
         .00
 11
       15.20
 21
       50.49
 31
         .00
  0
LINE
  8
LAYER
 10
       15.20
 20
       50.49
 30
         .00
 11
       14.15
 21
       51.10
 31
         .00
  0
LINE
  8
LAYER
 10
       14.15
 20
       51.10
 30
         .00
 11
       13.01
 21
       51.65
 31
         .00
  0
LINE
  8
LAYER
 10
       13.01
 20
       51.65
 30
         .00
 11
       11.80
 21
       52.13
 31
         .00
  0
LINE
  8
LAYER
 10
       11.80
 20
       52.13
 30
         .00
 11
       10.52
 21
       52.53
 31
         .00
  0
LINE
  8
LAYER
 10
       10.52
 20
       52.53
 30
         .00
 11
        9.18
 21
       52.86
 31
         .00
  0
LINE
  8
LAYER
 10
        9.18
 20
       52.86
 30
         .00
 11
        7.80
 21
       53.10
 31
         .00
  0
LINE
  8
LAYER
 10
        7.80
 20
       53.10
 30
         .00
 11
        6.38
 21
       53.26
 31
         .00
  0
LINE
  8
LAYER
 10
        6.38
 20
       53.26
 30
         .00
 11
        4.94
 21
       53.34
 31
         .00
  0
LINE
  8
LAYER
 10
        4.94
 20
       53.34
 30
         .00
 11
        3.48
 21
       53.33
 31
         .00
  0
LINE
  8
LAYER
 10
        3.48
 20
       53.33
 30
         .00
 11
        2.02
 21
       53.24
 31
         .00
  0
LINE
  8
LAYER
 10
        2.02
 20
       53.24
 30
         .00
 11
         .56
 21
       53.06
 31
         .00
  0
LINE
  8
LAYER
 10
         .56
 20
       53.06
 30
         .00
 11
        -.87
 21
       52.80
 31
         .00
  0
LINE
  8
LAYER
 10
        -.87
 20
       52.80
 30
         .00
 11
       -2.28
 21
       52.47
 31
         .00
  0
LINE
  8
LAYER
 10
       -2.28
 20
       52.47
 30
         .00
 11
       -3.64
 21
       52.05
 31
         .00
  0
LINE
  8
LAYER
 10
       -3.64
 20
       52.05
 30
         .00
 11
       -4.96
 21
       51.56
 31
         .00
  0
LINE
  8
LAYER
 10
       -4.96
 20
       51.56
 30
         .00
 11
       -6.21
 21
       50.99
 31
         .00
  0
LINE
  8
LAYER
 10
       -6.21
 20
       50.99
 30
         .00
 11
       -7.40
 21
       50.37
 31
         .00
  0
LINE
  8
LAYER
 10
       -7.40
 20
       50.37
 30
         .00
 11
       -8.50
 21
       49.67
 31
         .00
  0
LINE
  8
LAYER
 10
       -8.50
 20
       49.67
 30
         .00
 11
       -9.52
 21
       48.93
 31
         .00
  0
LINE
  8
LAYER
 10
       -9.52
 20
       48.93
 30
         .00
 11
      -10.44
 21
       48.13
 31
         .00
  0
LINE
  8
LAYER
 10
      -10.44
 20
       48.13
 30
         .00
 11
      -11.26
 21
       47.29
 31
         .00
  0
LINE
  8
LAYER
 10
      -11.26
 20
       47.29
 30
         .00
 11
      -11.97
 21
       46.40
 31
         .00
  0
LINE
  8
LAYER
 10
      -11.97
 20
       46.40
 30
         .00
 11
      -12.56
 21
       45.49
 31
         .00
  0
LINE
  8
LAYER
 10
      -12.56
 20
       45.49
 30
         .00
 11
      -13.04
 21
       44.55
 31
         .00
  0
LINE
  8
LAYER
 10
      -13.04
 20
       44.55
 30
         .00
 11
      -13.39
 21
       43.60
 31
         .00
  0
LINE
  8
LAYER
 10
      -13.39
 20
       43.60
 30
         .00
 11
      -13.62
 21
       42.63
 31
         .00
  0
LINE
  8
LAYER
 10
      -13.62
 20
       42.63
 30
         .00
 11
      -13.73
 21
       41.66
 31
         .00
  0
LINE
  8
LAYER
 10
      -13.73
 20
       41.66
 30
         .00
 11
      -13.70
 21
       40.70
 31
         .00
  0
LINE
  8
LAYER
 10
       -6.81
 20
       38.33
 30
         .00
 11
       -6.81
 21
       38.33
 31
         .00
  0
LINE
  8
LAYER
 10
       -6.81
 20
       38.33
 30
         .00
 11
       -6.52
 21
       37.43
 31
         .00
  0
LINE
  8
LAYER
 10
       -6.52
 20
       37.43
 30
         .00
 11
       -6.11
 21
       36.56
 31
         .00
  0
LINE
  8
LAYER
 10
       -6.11
 20
       36.56
 30
         .00
 11
       -5.59
 21
       35.74
 31
         .00
  0
LINE
  8
LAYER
 10
       -5.59
 20
       35.74
 30
         .00
 11
       -4.98
 21
       34.97
 31
         .00
  0
LINE
  8
LAYER
 10
       -4.98
 20
       34.97
 30
         .00
 11
       -4.26
 21
       34.25
 31
         .00
  0
LINE
  8
LAYER
 10
       -4.26
 20
       34.25
 30
         .00
 11
       -3.45
 21
       33.59
 31
         .00
  0
LINE
  8
LAYER
 10
       -3.45
 20
       33.59
 30
         .00
 11
       -2.56
 21
       33.00
 31
         .00
  0
LINE
  8
LAYER
 10
       -2.56
 20
       33.00
 30
         .00
 11
       -1.59
 21
       32.48
 31
         .00
  0
LINE
  8
LAYER
 10
       -1.59
 20
       32.48
 30
         .00
 11
        -.55
 21
       32.04
 31
         .00
  0
LINE
  8
LAYER
 10
        -.55
 20
       32.04
 30
         .00
 11
         .56
 21
       31.67
 31
         .00
  0
LINE
  8
LAYER
 10
         .56
 20
       31.67
 30
         .00
 11
        1.72
 21
       31.38
 31
         .00
  0
LINE
  8
LAYER
 10
        1.72
 20
       31.38
 30
         .00
 11
        2.93
 21
       31.17
 31
         .00
  0
LINE
  8
LAYER
 10
        2.93
 20
       31.17
 30
         .00
 11
        4.18
 21
       31.05
 31
         .00
  0
LINE
  8
LAYER
 10
        4.18
 20
       31.05
 30
         .00
 11
        5.46
 21
       31.01
 31
         .00
  0
LINE
  8
LAYER
 10
        5.46
 20
       31.01
 30
         .00
 11
        6.75
 21
       31.06
 31
         .00
  0
LINE
  8
LAYER
 10
        6.75
 20
       31.06
 30
         .00
 11
        8.05
 21
       31.19
 31
         .00
  0
LINE
  8
LAYER
 10
        8.05
 20
       31.19
 30
         .00
 11
        9.35
 21
       31.41
 31
         .00
  0
LINE
  8
LAYER
 10
        9.35
 20
       31.41
 30
         .00
 11
       10.64
 21
       31.71
 31
         .00
  0
LINE
  8
LAYER
 10
       10.64
 20
       31.71
 30
         .00
 11
       11.91
 21
       32.09
 31
         .00
  0
LINE
  8
LAYER
 10
       11.91
 20
       32.09
 30
         .00
 11
       13.14
 21
       32.55
 31
         .00
  0
LINE
  8
LAYER
 10
       13.14
 20
       32.55
 30
         .00
 11
       14.34
 21
       33.08
 31
         .00
  0
LINE
  8
LAYER
 10
       14.34
 20
       33.08
 30
         .00
 11
       15.48
 21
       33.68
 31
         .00
  0
LINE
  8
LAYER
 10
       15.48
 20
       33.68
 30
         .00
 11
       16.57
 21
       34.34
 31
         .00
  0
LINE
  8
LAYER
 10
       16.57
 20
       34.34
 30
         .00
 11
       17.59
 21
       35.07
 31
         .00
  0
LINE
  8
LAYER
 10
       17.59
 20
       35.07
 30
         .00
 11
       18.54
 21
       35.85
 31
         .00
  0
LINE
  8
LAYER
 10
       18.54
 20
       35.85
 30
         .00
 11
       19.41
 21
       36.67
 31
         .00
  0
LINE
  8
LAYER
 10
       19.41
 20
       36.67
 30
         .00
 11
       20.19
 21
       37.54
 31
         .00
  0
LINE
  8
LAYER
 10
       20.19
 20
       37.54
 30
         .00
 11
       20.87
 21
       38.45
 31
         .00
  0
LINE
  8
LAYER
 10
       20.87
 20
       38.45
 30
         .00
 11
       21.46
 21
       39.38
 31
         .00
  0
LINE
  8
LAYER
 10
       21.46
 20
       39.38
 30
         .00
 11
       21.94
 21
       40.34
 31
         .00
  0
LINE
  8
LAYER
 10
       21.94
 20
       40.34
 30
         .00
 11
       22.31
 21
       41.31
 31
         .00
  0
LINE
  8
LAYER
 10
       22.31
 20
       41.31
 30
         .00
 11
       22.58
 21
       42.28
 31
         .00
  0
LINE
  8
LAYER
 10
       22.58
 20
       42.28
 30
         .00
 11
       22.73
 21
       43.26
 31
         .00
  0
LINE
  8
LAYER
 10
       22.73
 20
       43.26
 30
         .00
 11
       22.77
 21
       44.23
 31
         .00
  0
LINE
  8
LAYER
 10
       22.77
 20
       44.23
 30
         .00
 11
       22.70
 21
       45.18
 31
         .00
  0
LINE
  8
LAYER
 10
       22.70
 20
       45.18
 30
         .00
 11
       22.51
 21
       46.11
 31
         .00
  0
LINE
  8
LAYER
 10
       22.51
 20
       46.11
 30
         .00
 11
       22.21
 21
       47.02
 31
         .00
  0
LINE
  8
LAYER
 10
       22.21
 20
       47.02
 30
         .00
 11
       21.80
 21
       47.88
 31
         .00
  0
LINE
  8
LAYER
 10
       21.80
 20
       47.88
 30
         .00
 11
       21.29
 21
       48.70
 31
         .00
  0
LINE
  8
LAYER
 10
       21.29
 20
       48.70
 30
         .00
 11
       20.67
 21
       49.47
 31
         .00
  0
LINE
  8
LAYER
 10
       20.67
 20
       49.47
 30
         .00
 11
       19.95
 21
       50.19
 31
         .00
  0
LINE
  8
LAYER
 10
       19.95
 20
       50.19
 30
         .00
 11
       19.15
 21
       50.85
 31
         .00
  0
LINE
  8
LAYER
 10
       19.15
 20
       50.85
 30
         .00
 11
       18.26
 21
       51.44
 31
         .00
  0
LINE
  8
LAYER
 10
       18.26
 20
       51.44
 30
         .00
 11
       17.28
 21
       51.96
 31
         .00
  0
LINE
  8
LAYER
 10
       17.28
 20
       51.96
 30
         .00
 11
       16.24
 21
       52.40
 31
         .00
  0
LINE
  8
LAYER
 10
       16.24
 20
       52.40
 30
         .00
 11
       15.13
 21
       52.77
 31
         .00
  0
LINE
  8
LAYER
 10
       15.13
 20
       52.77
 30
         .00
 11
       13.97
 21
       53.06
 31
         .00
  0
LINE
  8
LAYER
 10
       13.97
 20
       53.06
 30
         .00
 11
       12.76
 21
       53.27
 31
         .00
  0
LINE
  8
LAYER
 10
       12.76
 20
       53.27
 30
         .00
 11
       11.51
 21
       53.39
 31
         .00
  0
LINE
  8
LAYER
 10
       11.51
 20
       53.39
 30
         .00
 11
       10.24
 21
       53.43
 31
         .00
  0
LINE
  8
LAYER
 10
       10.24
 20
       53.43
 30
         .00
 11
        8.95
 21
       53.38
 31
         .00
  0
LINE
  8
LAYER
 10
        8.95
 20
       53.38
 30
         .00
 11
        7.64
 21
       53.25
 31
         .00
  0
LINE
  8
LAYER
 10
        7.64
 20
       53.25
 30
         .00
 11
        6.34
 21
       53.03
 31
         .00
  0
LINE
  8
LAYER
 10
        6.34
 20
       53.03
 30
         .00
 11
        5.06
 21
       52.73
 31
         .00
  0
LINE
  8
LAYER
 10
        5.06
 20
       52.73
 30
         .00
 11
        3.79
 21
       52.35
 31
         .00
  0
LINE
  8
LAYER
 10
        3.79
 20
       52.35
 30
         .00
 11
        2.55
 21
       51.89
 31
         .00
  0
LINE
  8
LAYER
 10
        2.55
 20
       51.89
 30
         .00
 11
        1.36
 21
       51.36
 31
         .00
  0
LINE
  8
LAYER
 10
        1.36
 20
       51.36
 30
         .00
 11
         .21
 21
       50.76
 31
         .00
  0
LINE
  8
LAYER
 10
         .21
 20
       50.76
 30
         .00
 11
        -.88
 21
       50.10
 31
         .00
  0
LINE
  8
LAYER
 10
        -.88
 20
       50.10
 30
         .00
 11
       -1.90
 21
       49.38
 31
         .00
  0
LINE
  8
LAYER
 10
       -1.90
 20
       49.38
 30
         .00
 11
       -2.85
 21
       48.60
 31
         .00
  0
LINE
  8
LAYER
 10
       -2.85
 20
       48.60
 30
         .00
 11
       -3.72
 21
       47.77
 31
         .00
  0
LINE
  8
LAYER
 10
       -3.72
 20
       47.77
 30
         .00
 11
       -4.49
 21
       46.90
 31
         .00
  0
LINE
  8
LAYER
 10
       -4.49
 20
       46.90
 30
         .00
 11
       -5.18
 21
       45.99
 31
         .00
  0
LINE
  8
LAYER
 10
       -5.18
 20
       45.99
 30
         .00
 11
       -5.76
 21
       45.06
 31
         .00
  0
LINE
  8
LAYER
 10
       -5.76
 20
       45.06
 30
         .00
 11
       -6.25
 21
       44.10
 31
         .00
  0
LINE
  8
LAYER
 10
       -6.25
 20
       44.10
 30
         .00
 11
       -6.62
 21
       43.13
 31
         .00
  0
LINE
  8
LAYER
 10
       -6.62
 20
       43.13
 30
         .00
 11
       -6.88
 21
       42.16
 31
         .00
  0
LINE
  8
LAYER
 10
       -6.88
 20
       42.16
 30
         .00
 11
       -7.04
 21
       41.18
 31
         .00
  0
LINE
  8
LAYER
 10
       -7.04
 20
       41.18
 30
         .00
 11
       -7.08
 21
       40.21
 31
         .00
  0
LINE
  8
LAYER
 10
       -7.08
 20
       40.21
 30
         .00
 11
       -7.00
 21
       39.26
 31
         .00
  0
LINE
  8
LAYER
 10
       -7.00
 20
       39.26
 30
         .00
 11
       -6.81
 21
       38.33
 31
         .00
  0
LINE
  8
LAYER
 10
       -2.66
 20
       37.15
 30
         .00
 11
       -2.66
 21
       37.15
 31
         .00
  0
LINE
  8
LAYER
 10
       -2.66
 20
       37.15
 30
         .00
 11
       -2.29
 21
       36.28
 31
         .00
  0
LINE
  8
LAYER
 10
       -2.29
 20
       36.28
 30
         .00
 11
       -1.81
 21
       35.47
 31
         .00
  0
LINE
  8
LAYER
 10
       -1.81
 20
       35.47
 30
         .00
 11
       -1.23
 21
       34.70
 31
         .00
  0
LINE
  8
LAYER
 10
       -1.23
 20
       34.70
 30
         .00
 11
        -.55
 21
       33.99
 31
         .00
  0
LINE
  8
LAYER
 10
        -.55
 20
       33.99
 30
         .00
 11
         .21
 21
       33.35
 31
         .00
  0
LINE
  8
LAYER
 10
         .21
 20
       33.35
 30
         .00
 11
        1.05
 21
       32.77
 31
         .00
  0
LINE
  8
LAYER
 10
        1.05
 20
       32.77
 30
         .00
 11
        1.98
 21
       32.26
 31
         .00
  0
LINE
  8
LAYER
 10
        1.98
 20
       32.26
 30
         .00
 11
        2.97
 21
       31.83
 31
         .00
  0
LINE
  8
LAYER
 10
        2.97
 20
       31.83
 30
         .00
 11
        4.02
 21
       31.48
 31
         .00
  0
LINE
  8
LAYER
 10
        4.02
 20
       31.48
 30
         .00
 11
        5.13
 21
       31.21
 31
         .00
  0
LINE
  8
LAYER
 10
        5.13
 20
       31.21
 30
         .00
 11
        6.28
 21
       31.03
 31
         .00
  0
LINE
  8
LAYER
 10
        6.28
 20
       31.03
 30
         .00
 11
        7.47
 21
       30.93
 31
         .00
  0
LINE
  8
LAYER
 10
        7.47
 20
       30.93
 30
         .00
 11
        8.69
 21
       30.91
 31
         .00
  0
LINE
  8
LAYER
 10
        8.69
 20
       30.91
 30
         .00
 11
        9.93
 21
       30.99
 31
         .00
  0
LINE
  8
LAYER
 10
        9.93
 20
       30.99
 30
         .00
 11
       11.18
 21
       31.15
 31
         .00
  0
LINE
  8
LAYER
 10
       11.18
 20
       31.15
 30
         .00
 11
       12.42
 21
       31.39
 31
         .00
  0
LINE
  8
LAYER
 10
       12.42
 20
       31.39
 30
         .00
 11
       13.66
 21
       31.71
 31
         .00
  0
LINE
  8
LAYER
 10
       13.66
 20
       31.71
 30
         .00
 11
       14.88
 21
       32.12
 31
         .00
  0
LINE
  8
LAYER
 10
       14.88
 20
       32.12
 30
         .00
 11
       16.06
 21
       32.60
 31
         .00
  0
LINE
  8
LAYER
 10
       16.06
 20
       32.60
 30
         .00
 11
       17.22
 21
       33.16
 31
         .00
  0
LINE
  8
LAYER
 10
       17.22
 20
       33.16
 30
         .00
 11
       18.32
 21
       33.78
 31
         .00
  0
LINE
  8
LAYER
 10
       18.32
 20
       33.78
 30
         .00
 11
       19.37
 21
       34.47
 31
         .00
  0
LINE
  8
LAYER
 10
       19.37
 20
       34.47
 30
         .00
 11
       20.36
 21
       35.22
 31
         .00
  0
LINE
  8
LAYER
 10
       20.36
 20
       35.22
 30
         .00
 11
       21.28
 21
       36.02
 31
         .00
  0
LINE
  8
LAYER
 10
       21.28
 20
       36.02
 30
         .00
 11
       22.12
 21
       36.87
 31
         .00
  0
LINE
  8
LAYER
 10
       22.12
 20
       36.87
 30
         .00
 11
       22.87
 21
       37.76
 31
         .00
  0
LINE
  8
LAYER
 10
       22.87
 20
       37.76
 30
         .00
 11
       23.54
 21
       38.69
 31
         .00
  0
LINE
  8
LAYER
 10
       23.54
 20
       38.69
 30
         .00
 11
       24.11
 21
       39.64
 31
         .00
  0
LINE
  8
LAYER
 10
       24.11
 20
       39.64
 30
         .00
 11
       24.59
 21
       40.61
 31
         .00
  0
LINE
  8
LAYER
 10
       24.59
 20
       40.61
 30
         .00
 11
       24.96
 21
       41.59
 31
         .00
  0
LINE
  8
LAYER
 10
       24.96
 20
       41.59
 30
         .00
 11
       25.23
 21
       42.58
 31
         .00
  0
LINE
  8
LAYER
 10
       25.23
 20
       42.58
 30
         .00
 11
       25.39
 21
       43.57
 31
         .00
  0
LINE
  8
LAYER
 10
       25.39
 20
       43.57
 30
         .00
 11
       25.44
 21
       44.54
 31
         .00
  0
LINE
  8
LAYER
 10
       25.44
 20
       44.54
 30
         .00
 11
       25.38
 21
       45.50
 31
         .00
  0
LINE
  8
LAYER
 10
       25.38
 20
       45.50
 30
         .00
 11
       25.21
 21
       46.44
 31
         .00
  0
LINE
  8
LAYER
 10
       25.21
 20
       46.44
 30
         .00
 11
       24.94
 21
       47.34
 31
         .00
  0
LINE
  8
LAYER
 10
       24.94
 20
       47.34
 30
         .00
 11
       24.56
 21
       48.20
 31
         .00
  0
LINE
  8
LAYER
 10
       24.56
 20
       48.20
 30
         .00
 11
       24.08
 21
       49.02
 31
         .00
  0
LINE
  8
LAYER
 10
       24.08
 20
       49.02
 30
         .00
 11
       23.50
 21
       49.78
 31
         .00
  0
LINE
  8
LAYER
 10
       23.50
 20
       49.78
 30
         .00
 11
       22.83
 21
       50.49
 31
         .00
  0
LINE
  8
LAYER
 10
       22.83
 20
       50.49
 30
         .00
 11
       22.07
 21
       51.14
 31
         .00
  0
LINE
  8
LAYER
 10
       22.07
 20
       51.14
 30
         .00
 11
       21.22
 21
       51.72
 31
         .00
  0
LINE
  8
LAYER
 10
       21.22
 20
       51.72
 30
         .00
 11
       20.30
 21
       52.22
 31
         .00
  0
LINE
  8
LAYER
 10
       20.30
 20
       52.22
 30
         .00
 11
       19.31
 21
       52.65
 31
         .00
  0
LINE
  8
LAYER
 10
       19.31
 20
       52.65
 30
         .00
 11
       18.25
 21
       53.00
 31
         .00
  0
LINE
  8
LAYER
 10
       18.25
 20
       53.00
 30
         .00
 11
       17.15
 21
       53.27
 31
         .00
  0
LINE
  8
LAYER
 10
       17.15
 20
       53.27
 30
         .00
 11
       15.99
 21
       53.46
 31
         .00
  0
LINE
  8
LAYER
 10
       15.99
 20
       53.46
 30
         .00
 11
       14.80
 21
       53.56
 31
         .00
  0
LINE
  8
LAYER
 10
       14.80
 20
       53.56
 30
         .00
 11
       13.58
 21
       53.57
 31
         .00
  0
LINE
  8
LAYER
 10
       13.58
 20
       53.57
 30
         .00
 11
       12.35
 21
       53.50
 31
         .00
  0
LINE
  8
LAYER
 10
       12.35
 20
       53.50
 30
         .00
 11
       11.10
 21
       53.34
 31
         .00
  0
LINE
  8
LAYER
 10
       11.10
 20
       53.34
 30
         .00
 11
        9.85
 21
       53.10
 31
         .00
  0
LINE
  8
LAYER
 10
        9.85
 20
       53.10
 30
         .00
 11
        8.62
 21
       52.77
 31
         .00
  0
LINE
  8
LAYER
 10
        8.62
 20
       52.77
 30
         .00
 11
        7.40
 21
       52.37
 31
         .00
  0
LINE
  8
LAYER
 10
        7.40
 20
       52.37
 30
         .00
 11
        6.21
 21
       51.88
 31
         .00
  0
LINE
  8
LAYER
 10
        6.21
 20
       51.88
 30
         .00
 11
        5.06
 21
       51.33
 31
         .00
  0
LINE
  8
LAYER
 10
        5.06
 20
       51.33
 30
         .00
 11
        3.96
 21
       50.70
 31
         .00
  0
LINE
  8
LAYER
 10
        3.96
 20
       50.70
 30
         .00
 11
        2.91
 21
       50.01
 31
         .00
  0
LINE
  8
LAYER
 10
        2.91
 20
       50.01
 30
         .00
 11
        1.92
 21
       49.26
 31
         .00
  0
LINE
  8
LAYER
 10
        1.92
 20
       49.26
 30
         .00
 11
        1.00
 21
       48.46
 31
         .00
  0
LINE
  8
LAYER
 10
        1.00
 20
       48.46
 30
         .00
 11
         .16
 21
       47.61
 31
         .00
  0
LINE
  8
LAYER
 10
         .16
 20
       47.61
 30
         .00
 11
        -.60
 21
       46.72
 31
         .00
  0
LINE
  8
LAYER
 10
        -.60
 20
       46.72
 30
         .00
 11
       -1.26
 21
       45.80
 31
         .00
  0
LINE
  8
LAYER
 10
       -1.26
 20
       45.80
 30
         .00
 11
       -1.84
 21
       44.85
 31
         .00
  0
LINE
  8
LAYER
 10
       -1.84
 20
       44.85
 30
         .00
 11
       -2.31
 21
       43.87
 31
         .00
  0
LINE
  8
LAYER
 10
       -2.31
 20
       43.87
 30
         .00
 11
       -2.68
 21
       42.89
 31
         .00
  0
LINE
  8
LAYER
 10
       -2.68
 20
       42.89
 30
         .00
 11
       -2.95
 21
       41.90
 31
         .00
  0
LINE
  8
LAYER
 10
       -2.95
 20
       41.90
 30
         .00
 11
       -3.11
 21
       40.92
 31
         .00
  0
LINE
  8
LAYER
 10
       -3.11
 20
       40.92
 30
         .00
 11
       -3.16
 21
       39.94
 31
         .00
  0
LINE
  8
LAYER
 10
       -3.16
 20
       39.94
 30
         .00
 11
       -3.10
 21
       38.98
 31
         .00
  0
LINE
  8
LAYER
 10
       -3.10
 20
       38.98
 30
         .00
 11
       -2.94
 21
       38.05
 31
         .00
  0
LINE
  8
LAYER
 10
       -2.94
 20
       38.05
 30
         .00
 11
       -2.66
 21
       37.15
 31
         .00
  0
LINE
  8
LAYER
 10
       -7.31
 20
       19.57
 30
         .00
 11
       -7.31
 21
       19.57
 31
         .00
  0
LINE
  8
LAYER
 10
       -7.31
 20
       19.57
 30
         .00
 11
       -7.00
 21
       19.12
 31
         .00
  0
LINE
  8
LAYER
 10
       -7.00
 20
       19.12
 30
         .00
 11
       -6.64
 21
       18.71
 31
         .00
  0
LINE
  8
LAYER
 10
       -6.64
 20
       18.71
 30
         .00
 11
       -6.23
 21
       18.33
 31
         .00
  0
LINE
  8
LAYER
 10
       -6.23
 20
       18.33
 30
         .00
 11
       -5.78
 21
       18.00
 31
         .00
  0
LINE
  8
LAYER
 10
       -5.78
 20
       18.00
 30
         .00
 11
       -5.28
 21
       17.71
 31
         .00
  0
LINE
  8
LAYER
 10
       -5.28
 20
       17.71
 30
         .00
 11
       -4.75
 21
       17.47
 31
         .00
  0
LINE
  8
LAYER
 10
       -4.75
 20
       17.47
 30
         .00
 11
       -4.18
 21
       17.27
 31
         .00
  0
LINE
  8
LAYER
 10
       -4.18
 20
       17.27
 30
         .00
 11
       -3.58
 21
       17.13
 31
         .00
  0
LINE
  8
LAYER
 10
       -3.58
 20
       17.13
 30
         .00
 11
       -2.96
 21
       17.03
 31
         .00
  0
LINE
  8
LAYER
 10
       -2.96
 20
       17.03
 30
         .00
 11
       -2.32
 21
       16.99
 31
         .00
  0
LINE
  8
LAYER
 10
       -2.32
 20
       16.99
 30
         .00
 11
       -1.66
 21
       17.00
 31
         .00
  0
LINE
  8
LAYER
 10
       -1.66
 20
       17.00
 30
         .00
 11
       -1.00
 21
       17.06
 31
         .00
  0
LINE
  8
LAYER
 10
       -1.00
 20
       17.06
 30
         .00
 11
        -.33
 21
       17.18
 31
         .00
  0
LINE
  8
LAYER
 10
        -.33
 20
       17.18
 30
         .00
 11
         .35
 21
       17.34
 31
         .00
  0
LINE
  8
LAYER
 10
         .35
 20
       17.34
 30
         .00
 11
        1.01
 21
       17.55
 31
         .00
  0
LINE
  8
LAYER
 10
        1.01
 20
       17.55
 30
         .00
 11
        1.67
 21
       17.81
 31
         .00
  0
LINE
  8
LAYER
 10
        1.67
 20
       17.81
 30
         .00
 11
        2.31
 21
       18.12
 31
         .00
  0
LINE
  8
LAYER
 10
        2.31
 20
       18.12
 30
         .00
 11
        2.93
 21
       18.47
 31
         .00
  0
LINE
  8
LAYER
 10
        2.93
 20
       18.47
 30
         .00
 11
        3.53
 21
       18.86
 31
         .00
  0
LINE
  8
LAYER
 10
        3.53
 20
       18.86
 30
         .00
 11
        4.10
 21
       19.29
 31
         .00
  0
LINE
  8
LAYER
 10
        4.10
 20
       19.29
 30
         .00
 11
        4.63
 21
       19.75
 31
         .00
  0
LINE
  8
LAYER
 10
        4.63
 20
       19.75
 30
         .00
 11
        5.13
 21
       20.25
 31
         .00
  0
LINE
  8
LAYER
 10
        5.13
 20
       20.25
 30
         .00
 11
        5.59
 21
       20.77
 31
         .00
  0
LINE
  8
LAYER
 10
        5.59
 20
       20.77
 30
         .00
 11
        6.00
 21
       21.31
 31
         .00
  0
LINE
  8
LAYER
 10
        6.00
 20
       21.31
 30
         .00
 11
        6.36
 21
       21.88
 31
         .00
  0
LINE
  8
LAYER
 10
        6.36
 20
       21.88
 30
         .00
 11
        6.67
 21
       22.46
 31
         .00
  0
LINE
  8
LAYER
 10
        6.67
 20
       22.46
 30
         .00
 11
        6.93
 21
       23.05
 31
         .00
  0
LINE
  8
LAYER
 10
        6.93
 20
       23.05
 30
         .00
 11
        7.13
 21
       23.64
 31
         .00
  0
LINE
  8
LAYER
 10
        7.13
 20
       23.64
 30
         .00
 11
        7.28
 21
       24.24
 31
         .00
  0
LINE
  8
LAYER
 10
        7.28
 20
       24.24
 30
         .00
 11
        7.36
 21
       24.83
 31
         .00
  0
LINE
  8
LAYER
 10
        7.36
 20
       24.83
 30
         .00
 11
        7.39
 21
       25.41
 31
         .00
  0
LINE
  8
LAYER
 10
        7.39
 20
       25.41
 30
         .00
 11
        7.36
 21
       25.99
 31
         .00
  0
LINE
  8
LAYER
 10
        7.36
 20
       25.99
 30
         .00
 11
        7.28
 21
       26.54
 31
         .00
  0
LINE
  8
LAYER
 10
        7.28
 20
       26.54
 30
         .00
 11
        7.13
 21
       27.08
 31
         .00
  0
LINE
  8
LAYER
 10
        7.13
 20
       27.08
 30
         .00
 11
        6.93
 21
       27.59
 31
         .00
  0
LINE
  8
LAYER
 10
        6.93
 20
       27.59
 30
         .00
 11
        6.67
 21
       28.08
 31
         .00
  0
LINE
  8
LAYER
 10
        6.67
 20
       28.08
 30
         .00
 11
        6.36
 21
       28.53
 31
         .00
  0
LINE
  8
LAYER
 10
        6.36
 20
       28.53
 30
         .00
 11
        6.00
 21
       28.94
 31
         .00
  0
LINE
  8
LAYER
 10
        6.00
 20
       28.94
 30
         .00
 11
        5.59
 21
       29.32
 31
         .00
  0
LINE
  8
LAYER
 10
        5.59
 20
       29.32
 30
         .00
 11
        5.14
 21
       29.65
 31
         .00
  0
LINE
  8
LAYER
 10
        5.14
 20
       29.65
 30
         .00
 11
        4.64
 21
       29.94
 31
         .00
  0
LINE
  8
LAYER
 10
        4.64
 20
       29.94
 30
         .00
 11
        4.11
 21
       30.18
 31
         .00
  0
LINE
  8
LAYER
 10
        4.11
 20
       30.18
 30
         .00
 11
        3.54
 21
       30.38
 31
         .00
  0
LINE
  8
LAYER
 10
        3.54
 20
       30.38
 30
         .00
 11
        2.95
 21
       30.52
 31
         .00
  0
LINE
  8
LAYER
 10
        2.95
 20
       30.52
 30
         .00
 11
        2.32
 21
       30.62
 31
         .00
  0
LINE
  8
LAYER
 10
        2.32
 20
       30.62
 30
         .00
 11
        1.68
 21
       30.66
 31
         .00
  0
LINE
  8
LAYER
 10
        1.68
 20
       30.66
 30
         .00
 11
        1.03
 21
       30.65
 31
         .00
  0
LINE
  8
LAYER
 10
        1.03
 20
       30.65
 30
         .00
 11
         .36
 21
       30.59
 31
         .00
  0
LINE
  8
LAYER
 10
         .36
 20
       30.59
 30
         .00
 11
        -.31
 21
       30.47
 31
         .00
  0
LINE
  8
LAYER
 10
        -.31
 20
       30.47
 30
         .00
 11
        -.99
 21
       30.31
 31
         .00
  0
LINE
  8
LAYER
 10
        -.99
 20
       30.31
 30
         .00
 11
       -1.65
 21
       30.10
 31
         .00
  0
LINE
  8
LAYER
 10
       -1.65
 20
       30.10
 30
         .00
 11
       -2.31
 21
       29.83
 31
         .00
  0
LINE
  8
LAYER
 10
       -2.31
 20
       29.83
 30
         .00
 11
       -2.95
 21
       29.53
 31
         .00
  0
LINE
  8
LAYER
 10
       -2.95
 20
       29.53
 30
         .00
 11
       -3.57
 21
       29.18
 31
         .00
  0
LINE
  8
LAYER
 10
       -3.57
 20
       29.18
 30
         .00
 11
       -4.17
 21
       28.79
 31
         .00
  0
LINE
  8
LAYER
 10
       -4.17
 20
       28.79
 30
         .00
 11
       -4.74
 21
       28.36
 31
         .00
  0
LINE
  8
LAYER
 10
       -4.74
 20
       28.36
 30
         .00
 11
       -5.27
 21
       27.90
 31
         .00
  0
LINE
  8
LAYER
 10
       -5.27
 20
       27.90
 30
         .00
 11
       -5.77
 21
       27.40
 31
         .00
  0
LINE
  8
LAYER
 10
       -5.77
 20
       27.40
 30
         .00
 11
       -6.22
 21
       26.88
 31
         .00
  0
LINE
  8
LAYER
 10
       -6.22
 20
       26.88
 30
         .00
 11
       -6.63
 21
       26.34
 31
         .00
  0
LINE
  8
LAYER
 10
       -6.63
 20
       26.34
 30
         .00
 11
       -7.00
 21
       25.77
 31
         .00
  0
LINE
  8
LAYER
 10
       -7.00
 20
       25.77
 30
         .00
 11
       -7.31
 21
       25.19
 31
         .00
  0
LINE
  8
LAYER
 10
       -7.31
 20
       25.19
 30
         .00
 11
       -7.56
 21
       24.60
 31
         .00
  0
LINE
  8
LAYER
 10
       -7.56
 20
       24.60
 30
         .00
 11
       -7.77
 21
       24.01
 31
         .00
  0
LINE
  8
LAYER
 10
       -7.77
 20
       24.01
 30
         .00
 11
       -7.91
 21
       23.41
 31
         .00
  0
LINE
  8
LAYER
 10
       -7.91
 20
       23.41
 30
         .00
 11
       -8.00
 21
       22.82
 31
         .00
  0
LINE
  8
LAYER
 10
       -8.00
 20
       22.82
 30
         .00
 11
       -8.03
 21
       22.23
 31
         .00
  0
LINE
  8
LAYER
 10
       -8.03
 20
       22.23
 30
         .00
 11
       -8.00
 21
       21.66
 31
         .00
  0
LINE
  8
LAYER
 10
       -8.00
 20
       21.66
 30
         .00
 11
       -7.92
 21
       21.10
 31
         .00
  0
LINE
  8
LAYER
 10
       -7.92
 20
       21.10
 30
         .00
 11
       -7.77
 21
       20.57
 31
         .00
  0
LINE
  8
LAYER
 10
       -7.77
 20
       20.57
 30
         .00
 11
       -7.57
 21
       20.06
 31
         .00
  0
LINE
  8
LAYER
 10
       -7.57
 20
       20.06
 30
         .00
 11
       -7.31
 21
       19.57
 31
         .00
  0
LINE
  8
LAYER
 10
       -7.47
 20
       -5.52
 30
         .00
 11
       -7.47
 21
       -5.52
 31
         .00
  0
LINE
  8
LAYER
 10
       -7.47
 20
       -5.52
 30
         .00
 11
       -7.13
 21
       -5.92
 31
         .00
  0
LINE
  8
LAYER
 10
       -7.13
 20
       -5.92
 30
         .00
 11
       -6.74
 21
       -6.28
 31
         .00
  0
LINE
  8
LAYER
 10
       -6.74
 20
       -6.28
 30
         .00
 11
       -6.29
 21
       -6.58
 31
         .00
  0
LINE
  8
LAYER
 10
       -6.29
 20
       -6.58
 30
         .00
 11
       -5.80
 21
       -6.84
 31
         .00
  0
LINE
  8
LAYER
 10
       -5.80
 20
       -6.84
 30
         .00
 11
       -5.26
 21
       -7.04
 31
         .00
  0
LINE
  8
LAYER
 10
       -5.26
 20
       -7.04
 30
         .00
 11
       -4.69
 21
       -7.19
 31
         .00
  0
LINE
  8
LAYER
 10
       -4.69
 20
       -7.19
 30
         .00
 11
       -4.07
 21
       -7.29
 31
         .00
  0
LINE
  8
LAYER
 10
       -4.07
 20
       -7.29
 30
         .00
 11
       -3.43
 21
       -7.33
 31
         .00
  0
LINE
  8
LAYER
 10
       -3.43
 20
       -7.33
 30
         .00
 11
       -2.76
 21
       -7.31
 31
         .00
  0
LINE
  8
LAYER
 10
       -2.76
 20
       -7.31
 30
         .00
 11
       -2.07
 21
       -7.24
 31
         .00
  0
LINE
  8
LAYER
 10
       -2.07
 20
       -7.24
 30
         .00
 11
       -1.37
 21
       -7.11
 31
         .00
  0
LINE
  8
LAYER
 10
       -1.37
 20
       -7.11
 30
         .00
 11
        -.65
 21
       -6.93
 31
         .00
  0
LINE
  8
LAYER
 10
        -.65
 20
       -6.93
 30
         .00
 11
         .07
 21
       -6.70
 31
         .00
  0
LINE
  8
LAYER
 10
         .07
 20
       -6.70
 30
         .00
 11
         .79
 21
       -6.42
 31
         .00
  0
LINE
  8
LAYER
 10
         .79
 20
       -6.42
 30
         .00
 11
        1.51
 21
       -6.08
 31
         .00
  0
LINE
  8
LAYER
 10
        1.51
 20
       -6.08
 30
         .00
 11
        2.21
 21
       -5.70
 31
         .00
  0
LINE
  8
LAYER
 10
        2.21
 20
       -5.70
 30
         .00
 11
        2.90
 21
       -5.28
 31
         .00
  0
LINE
  8
LAYER
 10
        2.90
 20
       -5.28
 30
         .00
 11
        3.56
 21
       -4.82
 31
         .00
  0
LINE
  8
LAYER
 10
        3.56
 20
       -4.82
 30
         .00
 11
        4.20
 21
       -4.32
 31
         .00
  0
LINE
  8
LAYER
 10
        4.20
 20
       -4.32
 30
         .00
 11
        4.81
 21
       -3.78
 31
         .00
  0
LINE
  8
LAYER
 10
        4.81
 20
       -3.78
 30
         .00
 11
        5.37
 21
       -3.22
 31
         .00
  0
LINE
  8
LAYER
 10
        5.37
 20
       -3.22
 30
         .00
 11
        5.90
 21
       -2.64
 31
         .00
  0
LINE
  8
LAYER
 10
        5.90
 20
       -2.64
 30
         .00
 11
        6.39
 21
       -2.03
 31
         .00
  0
LINE
  8
LAYER
 10
        6.39
 20
       -2.03
 30
         .00
 11
        6.82
 21
       -1.41
 31
         .00
  0
LINE
  8
LAYER
 10
        6.82
 20
       -1.41
 30
         .00
 11
        7.20
 21
        -.78
 31
         .00
  0
LINE
  8
LAYER
 10
        7.20
 20
        -.78
 30
         .00
 11
        7.53
 21
        -.14
 31
         .00
  0
LINE
  8
LAYER
 10
        7.53
 20
        -.14
 30
         .00
 11
        7.80
 21
         .50
 31
         .00
  0
LINE
  8
LAYER
 10
        7.80
 20
         .50
 30
         .00
 11
        8.01
 21
        1.14
 31
         .00
  0
LINE
  8
LAYER
 10
        8.01
 20
        1.14
 30
         .00
 11
        8.16
 21
        1.76
 31
         .00
  0
LINE
  8
LAYER
 10
        8.16
 20
        1.76
 30
         .00
 11
        8.25
 21
        2.38
 31
         .00
  0
LINE
  8
LAYER
 10
        8.25
 20
        2.38
 30
         .00
 11
        8.28
 21
        2.97
 31
         .00
  0
LINE
  8
LAYER
 10
        8.28
 20
        2.97
 30
         .00
 11
        8.24
 21
        3.54
 31
         .00
  0
LINE
  8
LAYER
 10
        8.24
 20
        3.54
 30
         .00
 11
        8.14
 21
        4.09
 31
         .00
  0
LINE
  8
LAYER
 10
        8.14
 20
        4.09
 30
         .00
 11
        7.97
 21
        4.60
 31
         .00
  0
LINE
  8
LAYER
 10
        7.97
 20
        4.60
 30
         .00
 11
        7.75
 21
        5.08
 31
         .00
  0
LINE
  8
LAYER
 10
        7.75
 20
        5.08
 30
         .00
 11
        7.47
 21
        5.52
 31
         .00
  0
LINE
  8
LAYER
 10
        7.47
 20
        5.52
 30
         .00
 11
        7.13
 21
        5.92
 31
         .00
  0
LINE
  8
LAYER
 10
        7.13
 20
        5.92
 30
         .00
 11
        6.74
 21
        6.28
 31
         .00
  0
LINE
  8
LAYER
 10
        6.74
 20
        6.28
 30
         .00
 11
        6.29
 21
        6.58
 31
         .00
  0
LINE
  8
LAYER
 10
        6.29
 20
        6.58
 30
         .00
 11
        5.80
 21
        6.84
 31
         .00
  0
LINE
  8
LAYER
 10
        5.80
 20
        6.84
 30
         .00
 11
        5.26
 21
        7.04
 31
         .00
  0
LINE
  8
LAYER
 10
        5.26
 20
        7.04
 30
         .00
 11
        4.69
 21
        7.19
 31
         .00
  0
LINE
  8
LAYER
 10
        4.69
 20
        7.19
 30
         .00
 11
        4.07
 21
        7.29
 31
         .00
  0
LINE
  8
LAYER
 10
        4.07
 20
        7.29
 30
         .00
 11
        3.43
 21
        7.33
 31
         .00
  0
LINE
  8
LAYER
 10
        3.43
 20
        7.33
 30
         .00
 11
        2.76
 21
        7.31
 31
         .00
  0
LINE
  8
LAYER
 10
        2.76
 20
        7.31
 30
         .00
 11
        2.07
 21
        7.24
 31
         .00
  0
LINE
  8
LAYER
 10
        2.07
 20
        7.24
 30
         .00
 11
        1.37
 21
        7.11
 31
         .00
  0
LINE
  8
LAYER
 10
        1.37
 20
        7.11
 30
         .00
 11
         .65
 21
        6.93
 31
         .00
  0
LINE
  8
LAYER
 10
         .65
 20
        6.93
 30
         .00
 11
        -.07
 21
        6.70
 31
         .00
  0
LINE
  8
LAYER
 10
        -.07
 20
        6.70
 30
         .00
 11
        -.79
 21
        6.42
 31
         .00
  0
LINE
  8
LAYER
 10
        -.79
 20
        6.42
 30
         .00
 11
       -1.51
 21
        6.08
 31
         .00
  0
LINE
  8
LAYER
 10
       -1.51
 20
        6.08
 30
         .00
 11
       -2.21
 21
        5.70
 31
         .00
  0
LINE
  8
LAYER
 10
       -2.21
 20
        5.70
 30
         .00
 11
       -2.90
 21
        5.28
 31
         .00
  0
LINE
  8
LAYER
 10
       -2.90
 20
        5.28
 30
         .00
 11
       -3.56
 21
        4.82
 31
         .00
  0
LINE
  8
LAYER
 10
       -3.56
 20
        4.82
 30
         .00
 11
       -4.20
 21
        4.32
 31
         .00
  0
LINE
  8
LAYER
 10
       -4.20
 20
        4.32
 30
         .00
 11
       -4.81
 21
        3.78
 31
         .00
  0
LINE
  8
LAYER
 10
       -4.81
 20
        3.78
 30
         .00
 11
       -5.37
 21
        3.22
 31
         .00
  0
LINE
  8
LAYER
 10
       -5.37
 20
        3.22
 30
         .00
 11
       -5.90
 21
        2.64
 31
         .00
  0
LINE
  8
LAYER
 10
       -5.90
 20
        2.64
 30
         .00
 11
       -6.39
 21
        2.03
 31
         .00
  0
LINE
  8
LAYER
 10
       -6.39
 20
        2.03
 30
         .00
 11
       -6.82
 21
        1.41
 31
         .00
  0
LINE
  8
LAYER
 10
       -6.82
 20
        1.41
 30
         .00
 11
       -7.20
 21
         .78
 31
         .00
  0
LINE
  8
LAYER
 10
       -7.20
 20
         .78
 30
         .00
 11
       -7.53
 21
         .14
 31
         .00
  0
LINE
  8
LAYER
 10
       -7.53
 20
         .14
 30
         .00
 11
       -7.80
 21
        -.50
 31
         .00
  0
LINE
  8
LAYER
 10
       -7.80
 20
        -.50
 30
         .00
 11
       -8.01
 21
       -1.14
 31
         .00
  0
LINE
  8
LAYER
 10
       -8.01
 20
       -1.14
 30
         .00
 11
       -8.16
 21
       -1.76
 31
         .00
  0
LINE
  8
LAYER
 10
       -8.16
 20
       -1.76
 30
         .00
 11
       -8.25
 21
       -2.38
 31
         .00
  0
LINE
  8
LAYER
 10
       -8.25
 20
       -2.38
 30
         .00
 11
       -8.28
 21
       -2.97
 31
         .00
  0
LINE
  8
LAYER
 10
       -8.28
 20
       -2.97
 30
         .00
 11
       -8.24
 21
       -3.54
 31
         .00
  0
LINE
  8
LAYER
 10
       -8.24
 20
       -3.54
 30
         .00
 11
       -8.14
 21
       -4.09
 31
         .00
  0
LINE
  8
LAYER
 10
       -8.14
 20
       -4.09
 30
         .00
 11
       -7.97
 21
       -4.60
 31
         .00
  0
LINE
  8
LAYER
 10
       -7.97
 20
       -4.60
 30
         .00
 11
       -7.75
 21
       -5.08
 31
         .00
  0
LINE
  8
LAYER
 10
       -7.75
 20
       -5.08
 30
         .00
 11
       -7.47
 21
       -5.52
 31
         .00
  0
LINE
  8
LAYER
 10
        -.67
 20
       -2.03
 30
         .00
 11
         .33
 21
       -2.03
 31
         .00
  0
LINE
  8
LAYER
 10
        -.67
 20
       -1.93
 30
         .00
 11
        -.67
 21
       -2.13
 31
         .00
  0
LINE
  8
LAYER
 10
         .33
 20
       -1.93
 30
         .00
 11
         .33
 21
       -2.13
 31
         .00
  0
TEXT
  8
LAYER
  1
 0 cm
 40
600
 10
        -.67
 20
       -1.83
 30
         .00
  0
ENDSEC
  0
EOF
