  0
SECTION
  2
ENTITIES
  0
LINE
  8
LAYER
 10
   -11086.41
 20
  -236509.93
 30
         .00
 11
   -11086.41
 21
  -236509.93
 31
         .00
  0
LINE
  8
LAYER
 10
   -11086.41
 20
  -236509.93
 30
         .00
 11
   -10650.93
 21
  -235845.04
 31
         .00
  0
LINE
  8
LAYER
 10
   -10650.93
 20
  -235845.04
 30
         .00
 11
   -10305.54
 21
  -235119.45
 31
         .00
  0
LINE
  8
LAYER
 10
   -10305.54
 20
  -235119.45
 30
         .00
 11
   -10052.87
 21
  -234338.70
 31
         .00
  0
LINE
  8
LAYER
 10
   -10052.87
 20
  -234338.70
 30
         .00
 11
    -9894.84
 21
  -233508.72
 31
         .00
  0
LINE
  8
LAYER
 10
    -9894.84
 20
  -233508.72
 30
         .00
 11
    -9832.66
 21
  -232635.84
 31
         .00
  0
LINE
  8
LAYER
 10
    -9832.66
 20
  -232635.84
 30
         .00
 11
    -9866.79
 21
  -231726.69
 31
         .00
  0
LINE
  8
LAYER
 10
    -9866.79
 20
  -231726.69
 30
         .00
 11
    -9996.99
 21
  -230788.19
 31
         .00
  0
LINE
  8
LAYER
 10
    -9996.99
 20
  -230788.19
 30
         .00
 11
   -10222.25
 21
  -229827.48
 31
         .00
  0
LINE
  8
LAYER
 10
   -10222.25
 20
  -229827.48
 30
         .00
 11
   -10540.87
 21
  -228851.89
 31
         .00
  0
LINE
  8
LAYER
 10
   -10540.87
 20
  -228851.89
 30
         .00
 11
   -10950.42
 21
  -227868.83
 31
         .00
  0
LINE
  8
LAYER
 10
   -10950.42
 20
  -227868.83
 30
         .00
 11
   -11447.78
 21
  -226885.78
 31
         .00
  0
LINE
  8
LAYER
 10
   -11447.78
 20
  -226885.78
 30
         .00
 11
   -12029.17
 21
  -225910.23
 31
         .00
  0
LINE
  8
LAYER
 10
   -12029.17
 20
  -225910.23
 30
         .00
 11
   -12690.16
 21
  -224949.59
 31
         .00
  0
LINE
  8
LAYER
 10
   -12690.16
 20
  -224949.59
 30
         .00
 11
   -13425.72
 21
  -224011.19
 31
         .00
  0
LINE
  8
LAYER
 10
   -13425.72
 20
  -224011.19
 30
         .00
 11
   -14230.26
 21
  -223102.16
 31
         .00
  0
LINE
  8
LAYER
 10
   -14230.26
 20
  -223102.16
 30
         .00
 11
   -15097.64
 21
  -222229.43
 31
         .00
  0
LINE
  8
LAYER
 10
   -15097.64
 20
  -222229.43
 30
         .00
 11
   -16021.28
 21
  -221399.62
 31
         .00
  0
LINE
  8
LAYER
 10
   -16021.28
 20
  -221399.62
 30
         .00
 11
   -16994.13
 21
  -220619.07
 31
         .00
  0
LINE
  8
LAYER
 10
   -16994.13
 20
  -220619.07
 30
         .00
 11
   -18008.80
 21
  -219893.70
 31
         .00
  0
LINE
  8
LAYER
 10
   -18008.80
 20
  -219893.70
 30
         .00
 11
   -19057.57
 21
  -219229.05
 31
         .00
  0
LINE
  8
LAYER
 10
   -19057.57
 20
  -219229.05
 30
         .00
 11
   -20132.45
 21
  -218630.16
 31
         .00
  0
LINE
  8
LAYER
 10
   -20132.45
 20
  -218630.16
 30
         .00
 11
   -21225.26
 21
  -218101.60
 31
         .00
  0
LINE
  8
LAYER
 10
   -21225.26
 20
  -218101.60
 30
         .00
 11
   -22327.68
 21
  -217647.39
 31
         .00
  0
LINE
  8
LAYER
 10
   -22327.68
 20
  -217647.39
 30
         .00
 11
   -23431.33
 21
  -217270.98
 31
         .00
  0
LINE
  8
LAYER
 10
   -23431.33
 20
  -217270.98
 30
         .00
 11
   -24527.80
 21
  -216975.24
 31
         .00
  0
LINE
  8
LAYER
 10
   -24527.80
 20
  -216975.24
 30
         .00
 11
   -25608.76
 21
  -216762.43
 31
         .00
  0
LINE
  8
LAYER
 10
   -25608.76
 20
  -216762.43
 30
         .00
 11
   -26665.96
 21
  -216634.15
 31
         .00
  0
LINE
  8
LAYER
 10
   -26665.96
 20
  -216634.15
 30
         .00
 11
   -27691.38
 21
  -216591.39
 31
         .00
  0
LINE
  8
LAYER
 10
   -27691.38
 20
  -216591.39
 30
         .00
 11
   -28677.20
 21
  -216634.47
 31
         .00
  0
LINE
  8
LAYER
 10
   -28677.20
 20
  -216634.47
 30
         .00
 11
   -29615.91
 21
  -216763.07
 31
         .00
  0
LINE
  8
LAYER
 10
   -29615.91
 20
  -216763.07
 30
         .00
 11
   -30500.39
 21
  -216976.20
 31
         .00
  0
LINE
  8
LAYER
 10
   -30500.39
 20
  -216976.20
 30
         .00
 11
   -31323.89
 21
  -217272.25
 31
         .00
  0
LINE
  8
LAYER
 10
   -31323.89
 20
  -217272.25
 30
         .00
 11
   -32080.15
 21
  -217648.96
 31
         .00
  0
LINE
  8
LAYER
 10
   -32080.15
 20
  -217648.96
 30
         .00
 11
   -32763.41
 21
  -218103.46
 31
         .00
  0
LINE
  8
LAYER
 10
   -32763.41
 20
  -218103.46
 30
         .00
 11
   -33368.47
 21
  -218632.30
 31
         .00
  0
LINE
  8
LAYER
 10
   -33368.47
 20
  -218632.30
 30
         .00
 11
   -33890.74
 21
  -219231.44
 31
         .00
  0
LINE
  8
LAYER
 10
   -33890.74
 20
  -219231.44
 30
         .00
 11
   -34326.22
 21
  -219896.34
 31
         .00
  0
LINE
  8
LAYER
 10
   -34326.22
 20
  -219896.34
 30
         .00
 11
   -34671.61
 21
  -220621.92
 31
         .00
  0
LINE
  8
LAYER
 10
   -34671.61
 20
  -220621.92
 30
         .00
 11
   -34924.28
 21
  -221402.67
 31
         .00
  0
LINE
  8
LAYER
 10
   -34924.28
 20
  -221402.67
 30
         .00
 11
   -35082.31
 21
  -222232.65
 31
         .00
  0
LINE
  8
LAYER
 10
   -35082.31
 20
  -222232.65
 30
         .00
 11
   -35144.49
 21
  -223105.54
 31
         .00
  0
LINE
  8
LAYER
 10
   -35144.49
 20
  -223105.54
 30
         .00
 11
   -35110.36
 21
  -224014.69
 31
         .00
  0
LINE
  8
LAYER
 10
   -35110.36
 20
  -224014.69
 30
         .00
 11
   -34980.16
 21
  -224953.19
 31
         .00
  0
LINE
  8
LAYER
 10
   -34980.16
 20
  -224953.19
 30
         .00
 11
   -34754.90
 21
  -225913.89
 31
         .00
  0
LINE
  8
LAYER
 10
   -34754.90
 20
  -225913.89
 30
         .00
 11
   -34436.28
 21
  -226889.48
 31
         .00
  0
LINE
  8
LAYER
 10
   -34436.28
 20
  -226889.48
 30
         .00
 11
   -34026.73
 21
  -227872.55
 31
         .00
  0
LINE
  8
LAYER
 10
   -34026.73
 20
  -227872.55
 30
         .00
 11
   -33529.37
 21
  -228855.60
 31
         .00
  0
LINE
  8
LAYER
 10
   -33529.37
 20
  -228855.60
 30
         .00
 11
   -32947.98
 21
  -229831.15
 31
         .00
  0
LINE
  8
LAYER
 10
   -32947.98
 20
  -229831.15
 30
         .00
 11
   -32286.99
 21
  -230791.78
 31
         .00
  0
LINE
  8
LAYER
 10
   -32286.99
 20
  -230791.78
 30
         .00
 11
   -31551.43
 21
  -231730.18
 31
         .00
  0
LINE
  8
LAYER
 10
   -31551.43
 20
  -231730.18
 30
         .00
 11
   -30746.89
 21
  -232639.21
 31
         .00
  0
LINE
  8
LAYER
 10
   -30746.89
 20
  -232639.21
 30
         .00
 11
   -29879.51
 21
  -233511.95
 31
         .00
  0
LINE
  8
LAYER
 10
   -29879.51
 20
  -233511.95
 30
         .00
 11
   -28955.87
 21
  -234341.75
 31
         .00
  0
LINE
  8
LAYER
 10
   -28955.87
 20
  -234341.75
 30
         .00
 11
   -27983.02
 21
  -235122.30
 31
         .00
  0
LINE
  8
LAYER
 10
   -27983.02
 20
  -235122.30
 30
         .00
 11
   -26968.35
 21
  -235847.67
 31
         .00
  0
LINE
  8
LAYER
 10
   -26968.35
 20
  -235847.67
 30
         .00
 11
   -25919.58
 21
  -236512.33
 31
         .00
  0
LINE
  8
LAYER
 10
   -25919.58
 20
  -236512.33
 30
         .00
 11
   -24844.70
 21
  -237111.21
 31
         .00
  0
LINE
  8
LAYER
 10
   -24844.70
 20
  -237111.21
 30
         .00
 11
   -23751.89
 21
  -237639.77
 31
         .00
  0
LINE
  8
LAYER
 10
   -23751.89
 20
  -237639.77
 30
         .00
 11
   -22649.47
 21
  -238093.99
 31
         .00
  0
LINE
  8
LAYER
 10
   -22649.47
 20
  -238093.99
 30
         .00
 11
   -21545.82
 21
  -238470.39
 31
         .00
  0
LINE
  8
LAYER
 10
   -21545.82
 20
  -238470.39
 30
         .00
 11
   -20449.35
 21
  -238766.13
 31
         .00
  0
LINE
  8
LAYER
 10
   -20449.35
 20
  -238766.13
 30
         .00
 11
   -19368.39
 21
  -238978.95
 31
         .00
  0
LINE
  8
LAYER
 10
   -19368.39
 20
  -238978.95
 30
         .00
 11
   -18311.19
 21
  -239107.22
 31
         .00
  0
LINE
  8
LAYER
 10
   -18311.19
 20
  -239107.22
 30
         .00
 11
   -17285.77
 21
  -239149.98
 31
         .00
  0
LINE
  8
LAYER
 10
   -17285.77
 20
  -239149.98
 30
         .00
 11
   -16299.95
 21
  -239106.90
 31
         .00
  0
LINE
  8
LAYER
 10
   -16299.95
 20
  -239106.90
 30
         .00
 11
   -15361.24
 21
  -238978.30
 31
         .00
  0
LINE
  8
LAYER
 10
   -15361.24
 20
  -238978.30
 30
         .00
 11
   -14476.76
 21
  -238765.17
 31
         .00
  0
LINE
  8
LAYER
 10
   -14476.76
 20
  -238765.17
 30
         .00
 11
   -13653.26
 21
  -238469.12
 31
         .00
  0
LINE
  8
LAYER
 10
   -13653.26
 20
  -238469.12
 30
         .00
 11
   -12897.00
 21
  -238092.42
 31
         .00
  0
LINE
  8
LAYER
 10
   -12897.00
 20
  -238092.42
 30
         .00
 11
   -12213.74
 21
  -237637.91
 31
         .00
  0
LINE
  8
LAYER
 10
   -12213.74
 20
  -237637.91
 30
         .00
 11
   -11608.68
 21
  -237109.08
 31
         .00
  0
LINE
  8
LAYER
 10
   -11608.68
 20
  -237109.08
 30
         .00
 11
   -11086.41
 21
  -236509.93
 31
         .00
  0
LINE
  8
LAYER
 10
    13780.22
 20
  -201354.91
 30
         .00
 11
    13780.22
 21
  -201354.91
 31
         .00
  0
LINE
  8
LAYER
 10
    13780.22
 20
  -201354.91
 30
         .00
 11
    13871.34
 21
  -200476.40
 31
         .00
  0
LINE
  8
LAYER
 10
    13871.34
 20
  -200476.40
 30
         .00
 11
    13832.84
 21
  -199581.44
 31
         .00
  0
LINE
  8
LAYER
 10
    13832.84
 20
  -199581.44
 30
         .00
 11
    13665.01
 21
  -198676.83
 31
         .00
  0
LINE
  8
LAYER
 10
    13665.01
 20
  -198676.83
 30
         .00
 11
    13369.13
 21
  -197769.47
 31
         .00
  0
LINE
  8
LAYER
 10
    13369.13
 20
  -197769.47
 30
         .00
 11
    12947.44
 21
  -196866.25
 31
         .00
  0
LINE
  8
LAYER
 10
    12947.44
 20
  -196866.25
 30
         .00
 11
    12403.15
 21
  -195974.06
 31
         .00
  0
LINE
  8
LAYER
 10
    12403.15
 20
  -195974.06
 30
         .00
 11
    11740.42
 21
  -195099.68
 31
         .00
  0
LINE
  8
LAYER
 10
    11740.42
 20
  -195099.68
 30
         .00
 11
    10964.28
 21
  -194249.77
 31
         .00
  0
LINE
  8
LAYER
 10
    10964.28
 20
  -194249.77
 30
         .00
 11
    10080.64
 21
  -193430.79
 31
         .00
  0
LINE
  8
LAYER
 10
    10080.64
 20
  -193430.79
 30
         .00
 11
     9096.22
 21
  -192648.97
 31
         .00
  0
LINE
  8
LAYER
 10
     9096.22
 20
  -192648.97
 30
         .00
 11
     8018.52
 21
  -191910.28
 31
         .00
  0
LINE
  8
LAYER
 10
     8018.52
 20
  -191910.28
 30
         .00
 11
     6855.73
 21
  -191220.32
 31
         .00
  0
LINE
  8
LAYER
 10
     6855.73
 20
  -191220.32
 30
         .00
 11
     5616.72
 21
  -190584.36
 31
         .00
  0
LINE
  8
LAYER
 10
     5616.72
 20
  -190584.36
 30
         .00
 11
     4310.90
 21
  -190007.23
 31
         .00
  0
LINE
  8
LAYER
 10
     4310.90
 20
  -190007.23
 30
         .00
 11
     2948.22
 21
  -189493.32
 31
         .00
  0
LINE
  8
LAYER
 10
     2948.22
 20
  -189493.32
 30
         .00
 11
     1539.04
 21
  -189046.54
 31
         .00
  0
LINE
  8
LAYER
 10
     1539.04
 20
  -189046.54
 30
         .00
 11
       94.10
 21
  -188670.30
 31
         .00
  0
LINE
  8
LAYER
 10
       94.10
 20
  -188670.30
 30
         .00
 11
    -1375.62
 21
  -188367.45
 31
         .00
  0
LINE
  8
LAYER
 10
    -1375.62
 20
  -188367.45
 30
         .00
 11
    -2858.92
 21
  -188140.31
 31
         .00
  0
LINE
  8
LAYER
 10
    -2858.92
 20
  -188140.31
 30
         .00
 11
    -4344.52
 21
  -187990.60
 31
         .00
  0
LINE
  8
LAYER
 10
    -4344.52
 20
  -187990.60
 30
         .00
 11
    -5821.11
 21
  -187919.46
 31
         .00
  0
LINE
  8
LAYER
 10
    -5821.11
 20
  -187919.46
 30
         .00
 11
    -7277.46
 21
  -187927.43
 31
         .00
  0
LINE
  8
LAYER
 10
    -7277.46
 20
  -187927.43
 30
         .00
 11
    -8702.47
 21
  -188014.46
 31
         .00
  0
LINE
  8
LAYER
 10
    -8702.47
 20
  -188014.46
 30
         .00
 11
   -10085.31
 21
  -188179.87
 31
         .00
  0
LINE
  8
LAYER
 10
   -10085.31
 20
  -188179.87
 30
         .00
 11
   -11415.45
 21
  -188422.42
 31
         .00
  0
LINE
  8
LAYER
 10
   -11415.45
 20
  -188422.42
 30
         .00
 11
   -12682.77
 21
  -188740.25
 31
         .00
  0
LINE
  8
LAYER
 10
   -12682.77
 20
  -188740.25
 30
         .00
 11
   -13877.62
 21
  -189130.94
 31
         .00
  0
LINE
  8
LAYER
 10
   -13877.62
 20
  -189130.94
 30
         .00
 11
   -14990.91
 21
  -189591.53
 31
         .00
  0
LINE
  8
LAYER
 10
   -14990.91
 20
  -189591.53
 30
         .00
 11
   -16014.17
 21
  -190118.50
 31
         .00
  0
LINE
  8
LAYER
 10
   -16014.17
 20
  -190118.50
 30
         .00
 11
   -16939.60
 21
  -190707.85
 31
         .00
  0
LINE
  8
LAYER
 10
   -16939.60
 20
  -190707.85
 30
         .00
 11
   -17760.17
 21
  -191355.09
 31
         .00
  0
LINE
  8
LAYER
 10
   -17760.17
 20
  -191355.09
 30
         .00
 11
   -18469.63
 21
  -192055.29
 31
         .00
  0
LINE
  8
LAYER
 10
   -18469.63
 20
  -192055.29
 30
         .00
 11
   -19062.58
 21
  -192803.13
 31
         .00
  0
LINE
  8
LAYER
 10
   -19062.58
 20
  -192803.13
 30
         .00
 11
   -19534.51
 21
  -193592.92
 31
         .00
  0
LINE
  8
LAYER
 10
   -19534.51
 20
  -193592.92
 30
         .00
 11
   -19881.82
 21
  -194418.64
 31
         .00
  0
LINE
  8
LAYER
 10
   -19881.82
 20
  -194418.64
 30
         .00
 11
   -20101.88
 21
  -195274.01
 31
         .00
  0
LINE
  8
LAYER
 10
   -20101.88
 20
  -195274.01
 30
         .00
 11
   -20193.00
 21
  -196152.51
 31
         .00
  0
LINE
  8
LAYER
 10
   -20193.00
 20
  -196152.51
 30
         .00
 11
   -20154.50
 21
  -197047.48
 31
         .00
  0
LINE
  8
LAYER
 10
   -20154.50
 20
  -197047.48
 30
         .00
 11
   -19986.67
 21
  -197952.08
 31
         .00
  0
LINE
  8
LAYER
 10
   -19986.67
 20
  -197952.08
 30
         .00
 11
   -19690.79
 21
  -198859.44
 31
         .00
  0
LINE
  8
LAYER
 10
   -19690.79
 20
  -198859.44
 30
         .00
 11
   -19269.10
 21
  -199762.66
 31
         .00
  0
LINE
  8
LAYER
 10
   -19269.10
 20
  -199762.66
 30
         .00
 11
   -18724.81
 21
  -200654.85
 31
         .00
  0
LINE
  8
LAYER
 10
   -18724.81
 20
  -200654.85
 30
         .00
 11
   -18062.08
 21
  -201529.23
 31
         .00
  0
LINE
  8
LAYER
 10
   -18062.08
 20
  -201529.23
 30
         .00
 11
   -17285.94
 21
  -202379.15
 31
         .00
  0
LINE
  8
LAYER
 10
   -17285.94
 20
  -202379.15
 30
         .00
 11
   -16402.30
 21
  -203198.13
 31
         .00
  0
LINE
  8
LAYER
 10
   -16402.30
 20
  -203198.13
 30
         .00
 11
   -15417.88
 21
  -203979.94
 31
         .00
  0
LINE
  8
LAYER
 10
   -15417.88
 20
  -203979.94
 30
         .00
 11
   -14340.18
 21
  -204718.63
 31
         .00
  0
LINE
  8
LAYER
 10
   -14340.18
 20
  -204718.63
 30
         .00
 11
   -13177.39
 21
  -205408.59
 31
         .00
  0
LINE
  8
LAYER
 10
   -13177.39
 20
  -205408.59
 30
         .00
 11
   -11938.38
 21
  -206044.55
 31
         .00
  0
LINE
  8
LAYER
 10
   -11938.38
 20
  -206044.55
 30
         .00
 11
   -10632.56
 21
  -206621.69
 31
         .00
  0
LINE
  8
LAYER
 10
   -10632.56
 20
  -206621.69
 30
         .00
 11
    -9269.88
 21
  -207135.60
 31
         .00
  0
LINE
  8
LAYER
 10
    -9269.88
 20
  -207135.60
 30
         .00
 11
    -7860.70
 21
  -207582.37
 31
         .00
  0
LINE
  8
LAYER
 10
    -7860.70
 20
  -207582.37
 30
         .00
 11
    -6415.76
 21
  -207958.62
 31
         .00
  0
LINE
  8
LAYER
 10
    -6415.76
 20
  -207958.62
 30
         .00
 11
    -4946.04
 21
  -208261.46
 31
         .00
  0
LINE
  8
LAYER
 10
    -4946.04
 20
  -208261.46
 30
         .00
 11
    -3462.74
 21
  -208488.60
 31
         .00
  0
LINE
  8
LAYER
 10
    -3462.74
 20
  -208488.60
 30
         .00
 11
    -1977.14
 21
  -208638.31
 31
         .00
  0
LINE
  8
LAYER
 10
    -1977.14
 20
  -208638.31
 30
         .00
 11
     -500.55
 21
  -208709.45
 31
         .00
  0
LINE
  8
LAYER
 10
     -500.55
 20
  -208709.45
 30
         .00
 11
      955.80
 21
  -208701.48
 31
         .00
  0
LINE
  8
LAYER
 10
      955.80
 20
  -208701.48
 30
         .00
 11
     2380.81
 21
  -208614.45
 31
         .00
  0
LINE
  8
LAYER
 10
     2380.81
 20
  -208614.45
 30
         .00
 11
     3763.65
 21
  -208449.04
 31
         .00
  0
LINE
  8
LAYER
 10
     3763.65
 20
  -208449.04
 30
         .00
 11
     5093.79
 21
  -208206.50
 31
         .00
  0
LINE
  8
LAYER
 10
     5093.79
 20
  -208206.50
 30
         .00
 11
     6361.11
 21
  -207888.67
 31
         .00
  0
LINE
  8
LAYER
 10
     6361.11
 20
  -207888.67
 30
         .00
 11
     7555.96
 21
  -207497.97
 31
         .00
  0
LINE
  8
LAYER
 10
     7555.96
 20
  -207497.97
 30
         .00
 11
     8669.25
 21
  -207037.39
 31
         .00
  0
LINE
  8
LAYER
 10
     8669.25
 20
  -207037.39
 30
         .00
 11
     9692.51
 21
  -206510.41
 31
         .00
  0
LINE
  8
LAYER
 10
     9692.51
 20
  -206510.41
 30
         .00
 11
    10617.94
 21
  -205921.07
 31
         .00
  0
LINE
  8
LAYER
 10
    10617.94
 20
  -205921.07
 30
         .00
 11
    11438.51
 21
  -205273.83
 31
         .00
  0
LINE
  8
LAYER
 10
    11438.51
 20
  -205273.83
 30
         .00
 11
    12147.97
 21
  -204573.62
 31
         .00
  0
LINE
  8
LAYER
 10
    12147.97
 20
  -204573.62
 30
         .00
 11
    12740.92
 21
  -203825.78
 31
         .00
  0
LINE
  8
LAYER
 10
    12740.92
 20
  -203825.78
 30
         .00
 11
    13212.85
 21
  -203035.99
 31
         .00
  0
LINE
  8
LAYER
 10
    13212.85
 20
  -203035.99
 30
         .00
 11
    13560.16
 21
  -202210.28
 31
         .00
  0
LINE
  8
LAYER
 10
    13560.16
 20
  -202210.28
 30
         .00
 11
    13780.22
 21
  -201354.91
 31
         .00
  0
LINE
  8
LAYER
 10
    23996.31
 20
  -226227.31
 30
         .00
 11
    23996.31
 21
  -226227.31
 31
         .00
  0
LINE
  8
LAYER
 10
    23996.31
 20
  -226227.31
 30
         .00
 11
    24657.56
 21
  -226887.65
 31
         .00
  0
LINE
  8
LAYER
 10
    24657.56
 20
  -226887.65
 30
         .00
 11
    25379.54
 21
  -227483.10
 31
         .00
  0
LINE
  8
LAYER
 10
    25379.54
 20
  -227483.10
 30
         .00
 11
    26156.75
 21
  -228009.13
 31
         .00
  0
LINE
  8
LAYER
 10
    26156.75
 20
  -228009.13
 30
         .00
 11
    26983.27
 21
  -228461.73
 31
         .00
  0
LINE
  8
LAYER
 10
    26983.27
 20
  -228461.73
 30
         .00
 11
    27852.82
 21
  -228837.48
 31
         .00
  0
LINE
  8
LAYER
 10
    27852.82
 20
  -228837.48
 30
         .00
 11
    28758.77
 21
  -229133.49
 31
         .00
  0
LINE
  8
LAYER
 10
    28758.77
 20
  -229133.49
 30
         .00
 11
    29694.23
 21
  -229347.53
 31
         .00
  0
LINE
  8
LAYER
 10
    29694.23
 20
  -229347.53
 30
         .00
 11
    30652.09
 21
  -229477.96
 31
         .00
  0
LINE
  8
LAYER
 10
    30652.09
 20
  -229477.96
 30
         .00
 11
    31625.04
 21
  -229523.79
 31
         .00
  0
LINE
  8
LAYER
 10
    31625.04
 20
  -229523.79
 30
         .00
 11
    32605.70
 21
  -229484.67
 31
         .00
  0
LINE
  8
LAYER
 10
    32605.70
 20
  -229484.67
 30
         .00
 11
    33586.59
 21
  -229360.90
 31
         .00
  0
LINE
  8
LAYER
 10
    33586.59
 20
  -229360.90
 30
         .00
 11
    34560.24
 21
  -229153.42
 31
         .00
  0
LINE
  8
LAYER
 10
    34560.24
 20
  -229153.42
 30
         .00
 11
    35519.26
 21
  -228863.81
 31
         .00
  0
LINE
  8
LAYER
 10
    35519.26
 20
  -228863.81
 30
         .00
 11
    36456.33
 21
  -228494.28
 31
         .00
  0
LINE
  8
LAYER
 10
    36456.33
 20
  -228494.28
 30
         .00
 11
    37364.33
 21
  -228047.63
 31
         .00
  0
LINE
  8
LAYER
 10
    37364.33
 20
  -228047.63
 30
         .00
 11
    38236.35
 21
  -227527.26
 31
         .00
  0
LINE
  8
LAYER
 10
    38236.35
 20
  -227527.26
 30
         .00
 11
    39065.76
 21
  -226937.14
 31
         .00
  0
LINE
  8
LAYER
 10
    39065.76
 20
  -226937.14
 30
         .00
 11
    39846.23
 21
  -226281.76
 31
         .00
  0
LINE
  8
LAYER
 10
    39846.23
 20
  -226281.76
 30
         .00
 11
    40571.82
 21
  -225566.11
 31
         .00
  0
LINE
  8
LAYER
 10
    40571.82
 20
  -225566.11
 30
         .00
 11
    41237.03
 21
  -224795.62
 31
         .00
  0
LINE
  8
LAYER
 10
    41237.03
 20
  -224795.62
 30
         .00
 11
    41836.78
 21
  -223976.17
 31
         .00
  0
LINE
  8
LAYER
 10
    41836.78
 20
  -223976.17
 30
         .00
 11
    42366.51
 21
  -223113.99
 31
         .00
  0
LINE
  8
LAYER
 10
    42366.51
 20
  -223113.99
 30
         .00
 11
    42822.19
 21
  -222215.65
 31
         .00
  0
LINE
  8
LAYER
 10
    42822.19
 20
  -222215.65
 30
         .00
 11
    43200.35
 21
  -221287.97
 31
         .00
  0
LINE
  8
LAYER
 10
    43200.35
 20
  -221287.97
 30
         .00
 11
    43498.11
 21
  -220338.03
 31
         .00
  0
LINE
  8
LAYER
 10
    43498.11
 20
  -220338.03
 30
         .00
 11
    43713.20
 21
  -219373.05
 31
         .00
  0
LINE
  8
LAYER
 10
    43713.20
 20
  -219373.05
 30
         .00
 11
    43844.00
 21
  -218400.37
 31
         .00
  0
LINE
  8
LAYER
 10
    43844.00
 20
  -218400.37
 30
         .00
 11
    43889.49
 21
  -217427.39
 31
         .00
  0
LINE
  8
LAYER
 10
    43889.49
 20
  -217427.39
 30
         .00
 11
    43849.35
 21
  -216461.53
 31
         .00
  0
LINE
  8
LAYER
 10
    43849.35
 20
  -216461.53
 30
         .00
 11
    43723.87
 21
  -215510.14
 31
         .00
  0
LINE
  8
LAYER
 10
    43723.87
 20
  -215510.14
 30
         .00
 11
    43514.00
 21
  -214580.44
 31
         .00
  0
LINE
  8
LAYER
 10
    43514.00
 20
  -214580.44
 30
         .00
 11
    43221.36
 21
  -213679.53
 31
         .00
  0
LINE
  8
LAYER
 10
    43221.36
 20
  -213679.53
 30
         .00
 11
    42848.15
 21
  -212814.25
 31
         .00
  0
LINE
  8
LAYER
 10
    42848.15
 20
  -212814.25
 30
         .00
 11
    42397.22
 21
  -211991.19
 31
         .00
  0
LINE
  8
LAYER
 10
    42397.22
 20
  -211991.19
 30
         .00
 11
    41872.01
 21
  -211216.61
 31
         .00
  0
LINE
  8
LAYER
 10
    41872.01
 20
  -211216.61
 30
         .00
 11
    41276.52
 21
  -210496.42
 31
         .00
  0
LINE
  8
LAYER
 10
    41276.52
 20
  -210496.42
 30
         .00
 11
    40615.26
 21
  -209836.08
 31
         .00
  0
LINE
  8
LAYER
 10
    40615.26
 20
  -209836.08
 30
         .00
 11
    39893.28
 21
  -209240.64
 31
         .00
  0
LINE
  8
LAYER
 10
    39893.28
 20
  -209240.64
 30
         .00
 11
    39116.07
 21
  -208714.61
 31
         .00
  0
LINE
  8
LAYER
 10
    39116.07
 20
  -208714.61
 30
         .00
 11
    38289.55
 21
  -208262.00
 31
         .00
  0
LINE
  8
LAYER
 10
    38289.55
 20
  -208262.00
 30
         .00
 11
    37420.01
 21
  -207886.26
 31
         .00
  0
LINE
  8
LAYER
 10
    37420.01
 20
  -207886.26
 30
         .00
 11
    36514.05
 21
  -207590.24
 31
         .00
  0
LINE
  8
LAYER
 10
    36514.05
 20
  -207590.24
 30
         .00
 11
    35578.59
 21
  -207376.20
 31
         .00
  0
LINE
  8
LAYER
 10
    35578.59
 20
  -207376.20
 30
         .00
 11
    34620.74
 21
  -207245.77
 31
         .00
  0
LINE
  8
LAYER
 10
    34620.74
 20
  -207245.77
 30
         .00
 11
    33647.78
 21
  -207199.94
 31
         .00
  0
LINE
  8
LAYER
 10
    33647.78
 20
  -207199.94
 30
         .00
 11
    32667.13
 21
  -207239.06
 31
         .00
  0
LINE
  8
LAYER
 10
    32667.13
 20
  -207239.06
 30
         .00
 11
    31686.24
 21
  -207362.83
 31
         .00
  0
LINE
  8
LAYER
 10
    31686.24
 20
  -207362.83
 30
         .00
 11
    30712.58
 21
  -207570.31
 31
         .00
  0
LINE
  8
LAYER
 10
    30712.58
 20
  -207570.31
 30
         .00
 11
    29753.57
 21
  -207859.92
 31
         .00
  0
LINE
  8
LAYER
 10
    29753.57
 20
  -207859.92
 30
         .00
 11
    28816.49
 21
  -208229.46
 31
         .00
  0
LINE
  8
LAYER
 10
    28816.49
 20
  -208229.46
 30
         .00
 11
    27908.49
 21
  -208676.11
 31
         .00
  0
LINE
  8
LAYER
 10
    27908.49
 20
  -208676.11
 30
         .00
 11
    27036.47
 21
  -209196.47
 31
         .00
  0
LINE
  8
LAYER
 10
    27036.47
 20
  -209196.47
 30
         .00
 11
    26207.07
 21
  -209786.59
 31
         .00
  0
LINE
  8
LAYER
 10
    26207.07
 20
  -209786.59
 30
         .00
 11
    25426.60
 21
  -210441.97
 31
         .00
  0
LINE
  8
LAYER
 10
    25426.60
 20
  -210441.97
 30
         .00
 11
    24701.00
 21
  -211157.63
 31
         .00
  0
LINE
  8
LAYER
 10
    24701.00
 20
  -211157.63
 30
         .00
 11
    24035.79
 21
  -211928.11
 31
         .00
  0
LINE
  8
LAYER
 10
    24035.79
 20
  -211928.11
 30
         .00
 11
    23436.04
 21
  -212747.56
 31
         .00
  0
LINE
  8
LAYER
 10
    23436.04
 20
  -212747.56
 30
         .00
 11
    22906.31
 21
  -213609.74
 31
         .00
  0
LINE
  8
LAYER
 10
    22906.31
 20
  -213609.74
 30
         .00
 11
    22450.64
 21
  -214508.08
 31
         .00
  0
LINE
  8
LAYER
 10
    22450.64
 20
  -214508.08
 30
         .00
 11
    22072.48
 21
  -215435.76
 31
         .00
  0
LINE
  8
LAYER
 10
    22072.48
 20
  -215435.76
 30
         .00
 11
    21774.72
 21
  -216385.70
 31
         .00
  0
LINE
  8
LAYER
 10
    21774.72
 20
  -216385.70
 30
         .00
 11
    21559.62
 21
  -217350.69
 31
         .00
  0
LINE
  8
LAYER
 10
    21559.62
 20
  -217350.69
 30
         .00
 11
    21428.83
 21
  -218323.37
 31
         .00
  0
LINE
  8
LAYER
 10
    21428.83
 20
  -218323.37
 30
         .00
 11
    21383.33
 21
  -219296.34
 31
         .00
  0
LINE
  8
LAYER
 10
    21383.33
 20
  -219296.34
 30
         .00
 11
    21423.47
 21
  -220262.20
 31
         .00
  0
LINE
  8
LAYER
 10
    21423.47
 20
  -220262.20
 30
         .00
 11
    21548.96
 21
  -221213.60
 31
         .00
  0
LINE
  8
LAYER
 10
    21548.96
 20
  -221213.60
 30
         .00
 11
    21758.82
 21
  -222143.29
 31
         .00
  0
LINE
  8
LAYER
 10
    21758.82
 20
  -222143.29
 30
         .00
 11
    22051.47
 21
  -223044.21
 31
         .00
  0
LINE
  8
LAYER
 10
    22051.47
 20
  -223044.21
 30
         .00
 11
    22424.68
 21
  -223909.49
 31
         .00
  0
LINE
  8
LAYER
 10
    22424.68
 20
  -223909.49
 30
         .00
 11
    22875.60
 21
  -224732.55
 31
         .00
  0
LINE
  8
LAYER
 10
    22875.60
 20
  -224732.55
 30
         .00
 11
    23400.81
 21
  -225507.12
 31
         .00
  0
LINE
  8
LAYER
 10
    23400.81
 20
  -225507.12
 30
         .00
 11
    23996.31
 21
  -226227.31
 31
         .00
  0
LINE
  8
LAYER
 10
    43765.29
 20
  -241125.03
 30
         .00
 11
    43765.29
 21
  -241125.03
 31
         .00
  0
LINE
  8
LAYER
 10
    43765.29
 20
  -241125.03
 30
         .00
 11
    44173.68
 21
  -242246.10
 31
         .00
  0
LINE
  8
LAYER
 10
    44173.68
 20
  -242246.10
 30
         .00
 11
    44703.79
 21
  -243320.75
 31
         .00
  0
LINE
  8
LAYER
 10
    44703.79
 20
  -243320.75
 30
         .00
 11
    45351.59
 21
  -244340.81
 31
         .00
  0
LINE
  8
LAYER
 10
    45351.59
 20
  -244340.81
 30
         .00
 11
    46112.15
 21
  -245298.52
 31
         .00
  0
LINE
  8
LAYER
 10
    46112.15
 20
  -245298.52
 30
         .00
 11
    46979.68
 21
  -246186.57
 31
         .00
  0
LINE
  8
LAYER
 10
    46979.68
 20
  -246186.57
 30
         .00
 11
    47947.58
 21
  -246998.22
 31
         .00
  0
LINE
  8
LAYER
 10
    47947.58
 20
  -246998.22
 30
         .00
 11
    49008.48
 21
  -247727.29
 31
         .00
  0
LINE
  8
LAYER
 10
    49008.48
 20
  -247727.29
 30
         .00
 11
    50154.31
 21
  -248368.23
 31
         .00
  0
LINE
  8
LAYER
 10
    50154.31
 20
  -248368.23
 30
         .00
 11
    51376.34
 21
  -248916.15
 31
         .00
  0
LINE
  8
LAYER
 10
    51376.34
 20
  -248916.15
 30
         .00
 11
    52665.28
 21
  -249366.90
 31
         .00
  0
LINE
  8
LAYER
 10
    52665.28
 20
  -249366.90
 30
         .00
 11
    54011.32
 21
  -249717.04
 31
         .00
  0
LINE
  8
LAYER
 10
    54011.32
 20
  -249717.04
 30
         .00
 11
    55404.21
 21
  -249963.90
 31
         .00
  0
LINE
  8
LAYER
 10
    55404.21
 20
  -249963.90
 30
         .00
 11
    56833.36
 21
  -250105.61
 31
         .00
  0
LINE
  8
LAYER
 10
    56833.36
 20
  -250105.61
 30
         .00
 11
    58287.88
 21
  -250141.09
 31
         .00
  0
LINE
  8
LAYER
 10
    58287.88
 20
  -250141.09
 30
         .00
 11
    59756.70
 21
  -250070.07
 31
         .00
  0
LINE
  8
LAYER
 10
    59756.70
 20
  -250070.07
 30
         .00
 11
    61228.65
 21
  -249893.08
 31
         .00
  0
LINE
  8
LAYER
 10
    61228.65
 20
  -249893.08
 30
         .00
 11
    62692.53
 21
  -249611.49
 31
         .00
  0
LINE
  8
LAYER
 10
    62692.53
 20
  -249611.49
 30
         .00
 11
    64137.19
 21
  -249227.42
 31
         .00
  0
LINE
  8
LAYER
 10
    64137.19
 20
  -249227.42
 30
         .00
 11
    65551.64
 21
  -248743.80
 31
         .00
  0
LINE
  8
LAYER
 10
    65551.64
 20
  -248743.80
 30
         .00
 11
    66925.12
 21
  -248164.31
 31
         .00
  0
LINE
  8
LAYER
 10
    66925.12
 20
  -248164.31
 30
         .00
 11
    68247.16
 21
  -247493.37
 31
         .00
  0
LINE
  8
LAYER
 10
    68247.16
 20
  -247493.37
 30
         .00
 11
    69507.72
 21
  -246736.08
 31
         .00
  0
LINE
  8
LAYER
 10
    69507.72
 20
  -246736.08
 30
         .00
 11
    70697.19
 21
  -245898.20
 31
         .00
  0
LINE
  8
LAYER
 10
    70697.19
 20
  -245898.20
 30
         .00
 11
    71806.52
 21
  -244986.11
 31
         .00
  0
LINE
  8
LAYER
 10
    71806.52
 20
  -244986.11
 30
         .00
 11
    72827.28
 21
  -244006.74
 31
         .00
  0
LINE
  8
LAYER
 10
    72827.28
 20
  -244006.74
 30
         .00
 11
    73751.69
 21
  -242967.57
 31
         .00
  0
LINE
  8
LAYER
 10
    73751.69
 20
  -242967.57
 30
         .00
 11
    74572.71
 21
  -241876.48
 31
         .00
  0
LINE
  8
LAYER
 10
    74572.71
 20
  -241876.48
 30
         .00
 11
    75284.10
 21
  -240741.80
 31
         .00
  0
LINE
  8
LAYER
 10
    75284.10
 20
  -240741.80
 30
         .00
 11
    75880.45
 21
  -239572.14
 31
         .00
  0
LINE
  8
LAYER
 10
    75880.45
 20
  -239572.14
 30
         .00
 11
    76357.21
 21
  -238376.42
 31
         .00
  0
LINE
  8
LAYER
 10
    76357.21
 20
  -238376.42
 30
         .00
 11
    76710.76
 21
  -237163.74
 31
         .00
  0
LINE
  8
LAYER
 10
    76710.76
 20
  -237163.74
 30
         .00
 11
    76938.41
 21
  -235943.32
 31
         .00
  0
LINE
  8
LAYER
 10
    76938.41
 20
  -235943.32
 30
         .00
 11
    77038.42
 21
  -234724.45
 31
         .00
  0
LINE
  8
LAYER
 10
    77038.42
 20
  -234724.45
 30
         .00
 11
    77010.03
 21
  -233516.41
 31
         .00
  0
LINE
  8
LAYER
 10
    77010.03
 20
  -233516.41
 30
         .00
 11
    76853.47
 21
  -232328.39
 31
         .00
  0
LINE
  8
LAYER
 10
    76853.47
 20
  -232328.39
 30
         .00
 11
    76569.91
 21
  -231169.43
 31
         .00
  0
LINE
  8
LAYER
 10
    76569.91
 20
  -231169.43
 30
         .00
 11
    76161.52
 21
  -230048.36
 31
         .00
  0
LINE
  8
LAYER
 10
    76161.52
 20
  -230048.36
 30
         .00
 11
    75631.41
 21
  -228973.71
 31
         .00
  0
LINE
  8
LAYER
 10
    75631.41
 20
  -228973.71
 30
         .00
 11
    74983.61
 21
  -227953.65
 31
         .00
  0
LINE
  8
LAYER
 10
    74983.61
 20
  -227953.65
 30
         .00
 11
    74223.05
 21
  -226995.94
 31
         .00
  0
LINE
  8
LAYER
 10
    74223.05
 20
  -226995.94
 30
         .00
 11
    73355.52
 21
  -226107.89
 31
         .00
  0
LINE
  8
LAYER
 10
    73355.52
 20
  -226107.89
 30
         .00
 11
    72387.62
 21
  -225296.24
 31
         .00
  0
LINE
  8
LAYER
 10
    72387.62
 20
  -225296.24
 30
         .00
 11
    71326.72
 21
  -224567.17
 31
         .00
  0
LINE
  8
LAYER
 10
    71326.72
 20
  -224567.17
 30
         .00
 11
    70180.89
 21
  -223926.23
 31
         .00
  0
LINE
  8
LAYER
 10
    70180.89
 20
  -223926.23
 30
         .00
 11
    68958.86
 21
  -223378.31
 31
         .00
  0
LINE
  8
LAYER
 10
    68958.86
 20
  -223378.31
 30
         .00
 11
    67669.91
 21
  -222927.56
 31
         .00
  0
LINE
  8
LAYER
 10
    67669.91
 20
  -222927.56
 30
         .00
 11
    66323.88
 21
  -222577.42
 31
         .00
  0
LINE
  8
LAYER
 10
    66323.88
 20
  -222577.42
 30
         .00
 11
    64930.98
 21
  -222330.56
 31
         .00
  0
LINE
  8
LAYER
 10
    64930.98
 20
  -222330.56
 30
         .00
 11
    63501.84
 21
  -222188.85
 31
         .00
  0
LINE
  8
LAYER
 10
    63501.84
 20
  -222188.85
 30
         .00
 11
    62047.32
 21
  -222153.37
 31
         .00
  0
LINE
  8
LAYER
 10
    62047.32
 20
  -222153.37
 30
         .00
 11
    60578.49
 21
  -222224.39
 31
         .00
  0
LINE
  8
LAYER
 10
    60578.49
 20
  -222224.39
 30
         .00
 11
    59106.54
 21
  -222401.38
 31
         .00
  0
LINE
  8
LAYER
 10
    59106.54
 20
  -222401.38
 30
         .00
 11
    57642.67
 21
  -222682.97
 31
         .00
  0
LINE
  8
LAYER
 10
    57642.67
 20
  -222682.97
 30
         .00
 11
    56198.00
 21
  -223067.04
 31
         .00
  0
LINE
  8
LAYER
 10
    56198.00
 20
  -223067.04
 30
         .00
 11
    54783.55
 21
  -223550.66
 31
         .00
  0
LINE
  8
LAYER
 10
    54783.55
 20
  -223550.66
 30
         .00
 11
    53410.08
 21
  -224130.15
 31
         .00
  0
LINE
  8
LAYER
 10
    53410.08
 20
  -224130.15
 30
         .00
 11
    52088.03
 21
  -224801.09
 31
         .00
  0
LINE
  8
LAYER
 10
    52088.03
 20
  -224801.09
 30
         .00
 11
    50827.48
 21
  -225558.38
 31
         .00
  0
LINE
  8
LAYER
 10
    50827.48
 20
  -225558.38
 30
         .00
 11
    49638.01
 21
  -226396.26
 31
         .00
  0
LINE
  8
LAYER
 10
    49638.01
 20
  -226396.26
 30
         .00
 11
    48528.67
 21
  -227308.35
 31
         .00
  0
LINE
  8
LAYER
 10
    48528.67
 20
  -227308.35
 30
         .00
 11
    47507.92
 21
  -228287.72
 31
         .00
  0
LINE
  8
LAYER
 10
    47507.92
 20
  -228287.72
 30
         .00
 11
    46583.51
 21
  -229326.89
 31
         .00
  0
LINE
  8
LAYER
 10
    46583.51
 20
  -229326.89
 30
         .00
 11
    45762.49
 21
  -230417.98
 31
         .00
  0
LINE
  8
LAYER
 10
    45762.49
 20
  -230417.98
 30
         .00
 11
    45051.09
 21
  -231552.66
 31
         .00
  0
LINE
  8
LAYER
 10
    45051.09
 20
  -231552.66
 30
         .00
 11
    44454.75
 21
  -232722.32
 31
         .00
  0
LINE
  8
LAYER
 10
    44454.75
 20
  -232722.32
 30
         .00
 11
    43977.98
 21
  -233918.04
 31
         .00
  0
LINE
  8
LAYER
 10
    43977.98
 20
  -233918.04
 30
         .00
 11
    43624.43
 21
  -235130.72
 31
         .00
  0
LINE
  8
LAYER
 10
    43624.43
 20
  -235130.72
 30
         .00
 11
    43396.79
 21
  -236351.14
 31
         .00
  0
LINE
  8
LAYER
 10
    43396.79
 20
  -236351.14
 30
         .00
 11
    43296.78
 21
  -237570.01
 31
         .00
  0
LINE
  8
LAYER
 10
    43296.78
 20
  -237570.01
 30
         .00
 11
    43325.16
 21
  -238778.05
 31
         .00
  0
LINE
  8
LAYER
 10
    43325.16
 20
  -238778.05
 30
         .00
 11
    43481.73
 21
  -239966.07
 31
         .00
  0
LINE
  8
LAYER
 10
    43481.73
 20
  -239966.07
 30
         .00
 11
    43765.29
 21
  -241125.03
 31
         .00
  0
LINE
  8
LAYER
 10
    47644.55
 20
  -266898.99
 30
         .00
 11
    47644.55
 21
  -266898.99
 31
         .00
  0
LINE
  8
LAYER
 10
    47644.55
 20
  -266898.99
 30
         .00
 11
    48146.46
 21
  -267796.06
 31
         .00
  0
LINE
  8
LAYER
 10
    48146.46
 20
  -267796.06
 30
         .00
 11
    48769.90
 21
  -268626.90
 31
         .00
  0
LINE
  8
LAYER
 10
    48769.90
 20
  -268626.90
 30
         .00
 11
    49510.12
 21
  -269385.17
 31
         .00
  0
LINE
  8
LAYER
 10
    49510.12
 20
  -269385.17
 30
         .00
 11
    50361.50
 21
  -270065.12
 31
         .00
  0
LINE
  8
LAYER
 10
    50361.50
 20
  -270065.12
 30
         .00
 11
    51317.56
 21
  -270661.56
 31
         .00
  0
LINE
  8
LAYER
 10
    51317.56
 20
  -270661.56
 30
         .00
 11
    52371.02
 21
  -271169.96
 31
         .00
  0
LINE
  8
LAYER
 10
    52371.02
 20
  -271169.96
 30
         .00
 11
    53513.86
 21
  -271586.44
 31
         .00
  0
LINE
  8
LAYER
 10
    53513.86
 20
  -271586.44
 30
         .00
 11
    54737.38
 21
  -271907.84
 31
         .00
  0
LINE
  8
LAYER
 10
    54737.38
 20
  -271907.84
 30
         .00
 11
    56032.28
 21
  -272131.71
 31
         .00
  0
LINE
  8
LAYER
 10
    56032.28
 20
  -272131.71
 30
         .00
 11
    57388.70
 21
  -272256.35
 31
         .00
  0
LINE
  8
LAYER
 10
    57388.70
 20
  -272256.35
 30
         .00
 11
    58796.31
 21
  -272280.80
 31
         .00
  0
LINE
  8
LAYER
 10
    58796.31
 20
  -272280.80
 30
         .00
 11
    60244.40
 21
  -272204.89
 31
         .00
  0
LINE
  8
LAYER
 10
    60244.40
 20
  -272204.89
 30
         .00
 11
    61721.95
 21
  -272029.19
 31
         .00
  0
LINE
  8
LAYER
 10
    61721.95
 20
  -272029.19
 30
         .00
 11
    63217.72
 21
  -271755.04
 31
         .00
  0
LINE
  8
LAYER
 10
    63217.72
 20
  -271755.04
 30
         .00
 11
    64720.32
 21
  -271384.51
 31
         .00
  0
LINE
  8
LAYER
 10
    64720.32
 20
  -271384.51
 30
         .00
 11
    66218.32
 21
  -270920.45
 31
         .00
  0
LINE
  8
LAYER
 10
    66218.32
 20
  -270920.45
 30
         .00
 11
    67700.31
 21
  -270366.37
 31
         .00
  0
LINE
  8
LAYER
 10
    67700.31
 20
  -270366.37
 30
         .00
 11
    69155.02
 21
  -269726.49
 31
         .00
  0
LINE
  8
LAYER
 10
    69155.02
 20
  -269726.49
 30
         .00
 11
    70571.38
 21
  -269005.68
 31
         .00
  0
LINE
  8
LAYER
 10
    70571.38
 20
  -269005.68
 30
         .00
 11
    71938.60
 21
  -268209.43
 31
         .00
  0
LINE
  8
LAYER
 10
    71938.60
 20
  -268209.43
 30
         .00
 11
    73246.29
 21
  -267343.80
 31
         .00
  0
LINE
  8
LAYER
 10
    73246.29
 20
  -267343.80
 30
         .00
 11
    74484.48
 21
  -266415.37
 31
         .00
  0
LINE
  8
LAYER
 10
    74484.48
 20
  -266415.37
 30
         .00
 11
    75643.76
 21
  -265431.22
 31
         .00
  0
LINE
  8
LAYER
 10
    75643.76
 20
  -265431.22
 30
         .00
 11
    76715.30
 21
  -264398.83
 31
         .00
  0
LINE
  8
LAYER
 10
    76715.30
 20
  -264398.83
 30
         .00
 11
    77690.95
 21
  -263326.06
 31
         .00
  0
LINE
  8
LAYER
 10
    77690.95
 20
  -263326.06
 30
         .00
 11
    78563.28
 21
  -262221.07
 31
         .00
  0
LINE
  8
LAYER
 10
    78563.28
 20
  -262221.07
 30
         .00
 11
    79325.65
 21
  -261092.27
 31
         .00
  0
LINE
  8
LAYER
 10
    79325.65
 20
  -261092.27
 30
         .00
 11
    79972.27
 21
  -259948.26
 31
         .00
  0
LINE
  8
LAYER
 10
    79972.27
 20
  -259948.26
 30
         .00
 11
    80498.21
 21
  -258797.73
 31
         .00
  0
LINE
  8
LAYER
 10
    80498.21
 20
  -258797.73
 30
         .00
 11
    80899.46
 21
  -257649.46
 31
         .00
  0
LINE
  8
LAYER
 10
    80899.46
 20
  -257649.46
 30
         .00
 11
    81172.98
 21
  -256512.17
 31
         .00
  0
LINE
  8
LAYER
 10
    81172.98
 20
  -256512.17
 30
         .00
 11
    81316.67
 21
  -255394.52
 31
         .00
  0
LINE
  8
LAYER
 10
    81316.67
 20
  -255394.52
 30
         .00
 11
    81329.46
 21
  -254305.02
 31
         .00
  0
LINE
  8
LAYER
 10
    81329.46
 20
  -254305.02
 30
         .00
 11
    81211.24
 21
  -253251.96
 31
         .00
  0
LINE
  8
LAYER
 10
    81211.24
 20
  -253251.96
 30
         .00
 11
    80962.91
 21
  -252243.35
 31
         .00
  0
LINE
  8
LAYER
 10
    80962.91
 20
  -252243.35
 30
         .00
 11
    80586.36
 21
  -251286.87
 31
         .00
  0
LINE
  8
LAYER
 10
    80586.36
 20
  -251286.87
 30
         .00
 11
    80084.45
 21
  -250389.79
 31
         .00
  0
LINE
  8
LAYER
 10
    80084.45
 20
  -250389.79
 30
         .00
 11
    79461.02
 21
  -249558.96
 31
         .00
  0
LINE
  8
LAYER
 10
    79461.02
 20
  -249558.96
 30
         .00
 11
    78720.79
 21
  -248800.68
 31
         .00
  0
LINE
  8
LAYER
 10
    78720.79
 20
  -248800.68
 30
         .00
 11
    77869.41
 21
  -248120.74
 31
         .00
  0
LINE
  8
LAYER
 10
    77869.41
 20
  -248120.74
 30
         .00
 11
    76913.35
 21
  -247524.30
 31
         .00
  0
LINE
  8
LAYER
 10
    76913.35
 20
  -247524.30
 30
         .00
 11
    75859.89
 21
  -247015.90
 31
         .00
  0
LINE
  8
LAYER
 10
    75859.89
 20
  -247015.90
 30
         .00
 11
    74717.05
 21
  -246599.42
 31
         .00
  0
LINE
  8
LAYER
 10
    74717.05
 20
  -246599.42
 30
         .00
 11
    73493.53
 21
  -246278.02
 31
         .00
  0
LINE
  8
LAYER
 10
    73493.53
 20
  -246278.02
 30
         .00
 11
    72198.63
 21
  -246054.15
 31
         .00
  0
LINE
  8
LAYER
 10
    72198.63
 20
  -246054.15
 30
         .00
 11
    70842.21
 21
  -245929.51
 31
         .00
  0
LINE
  8
LAYER
 10
    70842.21
 20
  -245929.51
 30
         .00
 11
    69434.61
 21
  -245905.05
 31
         .00
  0
LINE
  8
LAYER
 10
    69434.61
 20
  -245905.05
 30
         .00
 11
    67986.51
 21
  -245980.97
 31
         .00
  0
LINE
  8
LAYER
 10
    67986.51
 20
  -245980.97
 30
         .00
 11
    66508.96
 21
  -246156.67
 31
         .00
  0
LINE
  8
LAYER
 10
    66508.96
 20
  -246156.67
 30
         .00
 11
    65013.19
 21
  -246430.82
 31
         .00
  0
LINE
  8
LAYER
 10
    65013.19
 20
  -246430.82
 30
         .00
 11
    63510.59
 21
  -246801.34
 31
         .00
  0
LINE
  8
LAYER
 10
    63510.59
 20
  -246801.34
 30
         .00
 11
    62012.59
 21
  -247265.41
 31
         .00
  0
LINE
  8
LAYER
 10
    62012.59
 20
  -247265.41
 30
         .00
 11
    60530.60
 21
  -247819.49
 31
         .00
  0
LINE
  8
LAYER
 10
    60530.60
 20
  -247819.49
 30
         .00
 11
    59075.89
 21
  -248459.37
 31
         .00
  0
LINE
  8
LAYER
 10
    59075.89
 20
  -248459.37
 30
         .00
 11
    57659.53
 21
  -249180.18
 31
         .00
  0
LINE
  8
LAYER
 10
    57659.53
 20
  -249180.18
 30
         .00
 11
    56292.31
 21
  -249976.43
 31
         .00
  0
LINE
  8
LAYER
 10
    56292.31
 20
  -249976.43
 30
         .00
 11
    54984.62
 21
  -250842.06
 31
         .00
  0
LINE
  8
LAYER
 10
    54984.62
 20
  -250842.06
 30
         .00
 11
    53746.43
 21
  -251770.48
 31
         .00
  0
LINE
  8
LAYER
 10
    53746.43
 20
  -251770.48
 30
         .00
 11
    52587.15
 21
  -252754.64
 31
         .00
  0
LINE
  8
LAYER
 10
    52587.15
 20
  -252754.64
 30
         .00
 11
    51515.61
 21
  -253787.03
 31
         .00
  0
LINE
  8
LAYER
 10
    51515.61
 20
  -253787.03
 30
         .00
 11
    50539.96
 21
  -254859.80
 31
         .00
  0
LINE
  8
LAYER
 10
    50539.96
 20
  -254859.80
 30
         .00
 11
    49667.63
 21
  -255964.79
 31
         .00
  0
LINE
  8
LAYER
 10
    49667.63
 20
  -255964.79
 30
         .00
 11
    48905.26
 21
  -257093.59
 31
         .00
  0
LINE
  8
LAYER
 10
    48905.26
 20
  -257093.59
 30
         .00
 11
    48258.64
 21
  -258237.60
 31
         .00
  0
LINE
  8
LAYER
 10
    48258.64
 20
  -258237.60
 30
         .00
 11
    47732.71
 21
  -259388.12
 31
         .00
  0
LINE
  8
LAYER
 10
    47732.71
 20
  -259388.12
 30
         .00
 11
    47331.45
 21
  -260536.40
 31
         .00
  0
LINE
  8
LAYER
 10
    47331.45
 20
  -260536.40
 30
         .00
 11
    47057.94
 21
  -261673.69
 31
         .00
  0
LINE
  8
LAYER
 10
    47057.94
 20
  -261673.69
 30
         .00
 11
    46914.24
 21
  -262791.34
 31
         .00
  0
LINE
  8
LAYER
 10
    46914.24
 20
  -262791.34
 30
         .00
 11
    46901.45
 21
  -263880.84
 31
         .00
  0
LINE
  8
LAYER
 10
    46901.45
 20
  -263880.84
 30
         .00
 11
    47019.67
 21
  -264933.90
 31
         .00
  0
LINE
  8
LAYER
 10
    47019.67
 20
  -264933.90
 30
         .00
 11
    47268.00
 21
  -265942.51
 31
         .00
  0
LINE
  8
LAYER
 10
    47268.00
 20
  -265942.51
 30
         .00
 11
    47644.55
 21
  -266898.99
 31
         .00
  0
LINE
  8
LAYER
 10
    40800.58
 20
  -283266.28
 30
         .00
 11
    40800.58
 21
  -283266.28
 31
         .00
  0
LINE
  8
LAYER
 10
    40800.58
 20
  -283266.28
 30
         .00
 11
    41293.87
 21
  -284118.43
 31
         .00
  0
LINE
  8
LAYER
 10
    41293.87
 20
  -284118.43
 30
         .00
 11
    41908.31
 21
  -284903.13
 31
         .00
  0
LINE
  8
LAYER
 10
    41908.31
 20
  -284903.13
 30
         .00
 11
    42639.21
 21
  -285614.40
 31
         .00
  0
LINE
  8
LAYER
 10
    42639.21
 20
  -285614.40
 30
         .00
 11
    43481.01
 21
  -286246.84
 31
         .00
  0
LINE
  8
LAYER
 10
    43481.01
 20
  -286246.84
 30
         .00
 11
    44427.32
 21
  -286795.62
 31
         .00
  0
LINE
  8
LAYER
 10
    44427.32
 20
  -286795.62
 30
         .00
 11
    45470.91
 21
  -287256.58
 31
         .00
  0
LINE
  8
LAYER
 10
    45470.91
 20
  -287256.58
 30
         .00
 11
    46603.86
 21
  -287626.21
 31
         .00
  0
LINE
  8
LAYER
 10
    46603.86
 20
  -287626.21
 30
         .00
 11
    47817.53
 21
  -287901.68
 31
         .00
  0
LINE
  8
LAYER
 10
    47817.53
 20
  -287901.68
 30
         .00
 11
    49102.70
 21
  -288080.91
 31
         .00
  0
LINE
  8
LAYER
 10
    49102.70
 20
  -288080.91
 30
         .00
 11
    50449.59
 21
  -288162.54
 31
         .00
  0
LINE
  8
LAYER
 10
    50449.59
 20
  -288162.54
 30
         .00
 11
    51847.93
 21
  -288145.93
 31
         .00
  0
LINE
  8
LAYER
 10
    51847.93
 20
  -288145.93
 30
         .00
 11
    53287.09
 21
  -288031.22
 31
         .00
  0
LINE
  8
LAYER
 10
    53287.09
 20
  -288031.22
 30
         .00
 11
    54756.12
 21
  -287819.28
 31
         .00
  0
LINE
  8
LAYER
 10
    54756.12
 20
  -287819.28
 30
         .00
 11
    56243.83
 21
  -287511.72
 31
         .00
  0
LINE
  8
LAYER
 10
    56243.83
 20
  -287511.72
 30
         .00
 11
    57738.91
 21
  -287110.88
 31
         .00
  0
LINE
  8
LAYER
 10
    57738.91
 20
  -287110.88
 30
         .00
 11
    59229.98
 21
  -286619.82
 31
         .00
  0
LINE
  8
LAYER
 10
    59229.98
 20
  -286619.82
 30
         .00
 11
    60705.68
 21
  -286042.27
 31
         .00
  0
LINE
  8
LAYER
 10
    60705.68
 20
  -286042.27
 30
         .00
 11
    62154.78
 21
  -285382.63
 31
         .00
  0
LINE
  8
LAYER
 10
    62154.78
 20
  -285382.63
 30
         .00
 11
    63566.27
 21
  -284645.91
 31
         .00
  0
LINE
  8
LAYER
 10
    63566.27
 20
  -284645.91
 30
         .00
 11
    64929.39
 21
  -283837.73
 31
         .00
  0
LINE
  8
LAYER
 10
    64929.39
 20
  -283837.73
 30
         .00
 11
    66233.77
 21
  -282964.23
 31
         .00
  0
LINE
  8
LAYER
 10
    66233.77
 20
  -282964.23
 30
         .00
 11
    67469.48
 21
  -282032.06
 31
         .00
  0
LINE
  8
LAYER
 10
    67469.48
 20
  -282032.06
 30
         .00
 11
    68627.13
 21
  -281048.32
 31
         .00
  0
LINE
  8
LAYER
 10
    68627.13
 20
  -281048.32
 30
         .00
 11
    69697.89
 21
  -280020.49
 31
         .00
  0
LINE
  8
LAYER
 10
    69697.89
 20
  -280020.49
 30
         .00
 11
    70673.63
 21
  -278956.40
 31
         .00
  0
LINE
  8
LAYER
 10
    70673.63
 20
  -278956.40
 30
         .00
 11
    71546.91
 21
  -277864.15
 31
         .00
  0
LINE
  8
LAYER
 10
    71546.91
 20
  -277864.15
 30
         .00
 11
    72311.08
 21
  -276752.04
 31
         .00
  0
LINE
  8
LAYER
 10
    72311.08
 20
  -276752.04
 30
         .00
 11
    72960.34
 21
  -275628.54
 31
         .00
  0
LINE
  8
LAYER
 10
    72960.34
 20
  -275628.54
 30
         .00
 11
    73489.74
 21
  -274502.20
 31
         .00
  0
LINE
  8
LAYER
 10
    73489.74
 20
  -274502.20
 30
         .00
 11
    73895.25
 21
  -273381.60
 31
         .00
  0
LINE
  8
LAYER
 10
    73895.25
 20
  -273381.60
 30
         .00
 11
    74173.79
 21
  -272275.26
 31
         .00
  0
LINE
  8
LAYER
 10
    74173.79
 20
  -272275.26
 30
         .00
 11
    74323.23
 21
  -271191.60
 31
         .00
  0
LINE
  8
LAYER
 10
    74323.23
 20
  -271191.60
 30
         .00
 11
    74342.45
 21
  -270138.87
 31
         .00
  0
LINE
  8
LAYER
 10
    74342.45
 20
  -270138.87
 30
         .00
 11
    74231.28
 21
  -269125.08
 31
         .00
  0
LINE
  8
LAYER
 10
    74231.28
 20
  -269125.08
 30
         .00
 11
    73990.58
 21
  -268157.95
 31
         .00
  0
LINE
  8
LAYER
 10
    73990.58
 20
  -268157.95
 30
         .00
 11
    73622.18
 21
  -267244.83
 31
         .00
  0
LINE
  8
LAYER
 10
    73622.18
 20
  -267244.83
 30
         .00
 11
    73128.89
 21
  -266392.68
 31
         .00
  0
LINE
  8
LAYER
 10
    73128.89
 20
  -266392.68
 30
         .00
 11
    72514.45
 21
  -265607.98
 31
         .00
  0
LINE
  8
LAYER
 10
    72514.45
 20
  -265607.98
 30
         .00
 11
    71783.55
 21
  -264896.71
 31
         .00
  0
LINE
  8
LAYER
 10
    71783.55
 20
  -264896.71
 30
         .00
 11
    70941.75
 21
  -264264.27
 31
         .00
  0
LINE
  8
LAYER
 10
    70941.75
 20
  -264264.27
 30
         .00
 11
    69995.45
 21
  -263715.49
 31
         .00
  0
LINE
  8
LAYER
 10
    69995.45
 20
  -263715.49
 30
         .00
 11
    68951.85
 21
  -263254.53
 31
         .00
  0
LINE
  8
LAYER
 10
    68951.85
 20
  -263254.53
 30
         .00
 11
    67818.91
 21
  -262884.90
 31
         .00
  0
LINE
  8
LAYER
 10
    67818.91
 20
  -262884.90
 30
         .00
 11
    66605.23
 21
  -262609.43
 31
         .00
  0
LINE
  8
LAYER
 10
    66605.23
 20
  -262609.43
 30
         .00
 11
    65320.06
 21
  -262430.20
 31
         .00
  0
LINE
  8
LAYER
 10
    65320.06
 20
  -262430.20
 30
         .00
 11
    63973.18
 21
  -262348.57
 31
         .00
  0
LINE
  8
LAYER
 10
    63973.18
 20
  -262348.57
 30
         .00
 11
    62574.83
 21
  -262365.18
 31
         .00
  0
LINE
  8
LAYER
 10
    62574.83
 20
  -262365.18
 30
         .00
 11
    61135.67
 21
  -262479.89
 31
         .00
  0
LINE
  8
LAYER
 10
    61135.67
 20
  -262479.89
 30
         .00
 11
    59666.64
 21
  -262691.83
 31
         .00
  0
LINE
  8
LAYER
 10
    59666.64
 20
  -262691.83
 30
         .00
 11
    58178.93
 21
  -262999.39
 31
         .00
  0
LINE
  8
LAYER
 10
    58178.93
 20
  -262999.39
 30
         .00
 11
    56683.85
 21
  -263400.23
 31
         .00
  0
LINE
  8
LAYER
 10
    56683.85
 20
  -263400.23
 30
         .00
 11
    55192.79
 21
  -263891.29
 31
         .00
  0
LINE
  8
LAYER
 10
    55192.79
 20
  -263891.29
 30
         .00
 11
    53717.09
 21
  -264468.84
 31
         .00
  0
LINE
  8
LAYER
 10
    53717.09
 20
  -264468.84
 30
         .00
 11
    52267.98
 21
  -265128.48
 31
         .00
  0
LINE
  8
LAYER
 10
    52267.98
 20
  -265128.48
 30
         .00
 11
    50856.50
 21
  -265865.20
 31
         .00
  0
LINE
  8
LAYER
 10
    50856.50
 20
  -265865.20
 30
         .00
 11
    49493.38
 21
  -266673.38
 31
         .00
  0
LINE
  8
LAYER
 10
    49493.38
 20
  -266673.38
 30
         .00
 11
    48189.00
 21
  -267546.88
 31
         .00
  0
LINE
  8
LAYER
 10
    48189.00
 20
  -267546.88
 30
         .00
 11
    46953.28
 21
  -268479.05
 31
         .00
  0
LINE
  8
LAYER
 10
    46953.28
 20
  -268479.05
 30
         .00
 11
    45795.63
 21
  -269462.79
 31
         .00
  0
LINE
  8
LAYER
 10
    45795.63
 20
  -269462.79
 30
         .00
 11
    44724.87
 21
  -270490.62
 31
         .00
  0
LINE
  8
LAYER
 10
    44724.87
 20
  -270490.62
 30
         .00
 11
    43749.14
 21
  -271554.71
 31
         .00
  0
LINE
  8
LAYER
 10
    43749.14
 20
  -271554.71
 30
         .00
 11
    42875.86
 21
  -272646.96
 31
         .00
  0
LINE
  8
LAYER
 10
    42875.86
 20
  -272646.96
 30
         .00
 11
    42111.68
 21
  -273759.07
 31
         .00
  0
LINE
  8
LAYER
 10
    42111.68
 20
  -273759.07
 30
         .00
 11
    41462.42
 21
  -274882.57
 31
         .00
  0
LINE
  8
LAYER
 10
    41462.42
 20
  -274882.57
 30
         .00
 11
    40933.02
 21
  -276008.91
 31
         .00
  0
LINE
  8
LAYER
 10
    40933.02
 20
  -276008.91
 30
         .00
 11
    40527.51
 21
  -277129.51
 31
         .00
  0
LINE
  8
LAYER
 10
    40527.51
 20
  -277129.51
 30
         .00
 11
    40248.97
 21
  -278235.85
 31
         .00
  0
LINE
  8
LAYER
 10
    40248.97
 20
  -278235.85
 30
         .00
 11
    40099.53
 21
  -279319.51
 31
         .00
  0
LINE
  8
LAYER
 10
    40099.53
 20
  -279319.51
 30
         .00
 11
    40080.32
 21
  -280372.24
 31
         .00
  0
LINE
  8
LAYER
 10
    40080.32
 20
  -280372.24
 30
         .00
 11
    40191.48
 21
  -281386.03
 31
         .00
  0
LINE
  8
LAYER
 10
    40191.48
 20
  -281386.03
 30
         .00
 11
    40432.18
 21
  -282353.16
 31
         .00
  0
LINE
  8
LAYER
 10
    40432.18
 20
  -282353.16
 30
         .00
 11
    40800.58
 21
  -283266.28
 31
         .00
  0
LINE
  8
LAYER
 10
    41447.23
 20
  -305062.69
 30
         .00
 11
    41447.23
 21
  -305062.69
 31
         .00
  0
LINE
  8
LAYER
 10
    41447.23
 20
  -305062.69
 30
         .00
 11
    41701.82
 21
  -304110.82
 31
         .00
  0
LINE
  8
LAYER
 10
    41701.82
 20
  -304110.82
 30
         .00
 11
    41820.00
 21
  -303119.59
 31
         .00
  0
LINE
  8
LAYER
 10
    41820.00
 20
  -303119.59
 30
         .00
 11
    41800.89
 21
  -302096.55
 31
         .00
  0
LINE
  8
LAYER
 10
    41800.89
 20
  -302096.55
 30
         .00
 11
    41644.63
 21
  -301049.48
 31
         .00
  0
LINE
  8
LAYER
 10
    41644.63
 20
  -301049.48
 30
         .00
 11
    41352.40
 21
  -299986.36
 31
         .00
  0
LINE
  8
LAYER
 10
    41352.40
 20
  -299986.36
 30
         .00
 11
    40926.43
 21
  -298915.27
 31
         .00
  0
LINE
  8
LAYER
 10
    40926.43
 20
  -298915.27
 30
         .00
 11
    40369.97
 21
  -297844.37
 31
         .00
  0
LINE
  8
LAYER
 10
    40369.97
 20
  -297844.37
 30
         .00
 11
    39687.24
 21
  -296781.80
 31
         .00
  0
LINE
  8
LAYER
 10
    39687.24
 20
  -296781.80
 30
         .00
 11
    38883.45
 21
  -295735.65
 31
         .00
  0
LINE
  8
LAYER
 10
    38883.45
 20
  -295735.65
 30
         .00
 11
    37964.71
 21
  -294713.89
 31
         .00
  0
LINE
  8
LAYER
 10
    37964.71
 20
  -294713.89
 30
         .00
 11
    36938.01
 21
  -293724.29
 31
         .00
  0
LINE
  8
LAYER
 10
    36938.01
 20
  -293724.29
 30
         .00
 11
    35811.17
 21
  -292774.38
 31
         .00
  0
LINE
  8
LAYER
 10
    35811.17
 20
  -292774.38
 30
         .00
 11
    34592.76
 21
  -291871.39
 31
         .00
  0
LINE
  8
LAYER
 10
    34592.76
 20
  -291871.39
 30
         .00
 11
    33292.05
 21
  -291022.20
 31
         .00
  0
LINE
  8
LAYER
 10
    33292.05
 20
  -291022.20
 30
         .00
 11
    31918.96
 21
  -290233.26
 31
         .00
  0
LINE
  8
LAYER
 10
    31918.96
 20
  -290233.26
 30
         .00
 11
    30483.91
 21
  -289510.59
 31
         .00
  0
LINE
  8
LAYER
 10
    30483.91
 20
  -289510.59
 30
         .00
 11
    28997.85
 21
  -288859.67
 31
         .00
  0
LINE
  8
LAYER
 10
    28997.85
 20
  -288859.67
 30
         .00
 11
    27472.07
 21
  -288285.47
 31
         .00
  0
LINE
  8
LAYER
 10
    27472.07
 20
  -288285.47
 30
         .00
 11
    25918.18
 21
  -287792.35
 31
         .00
  0
LINE
  8
LAYER
 10
    25918.18
 20
  -287792.35
 30
         .00
 11
    24348.03
 21
  -287384.07
 31
         .00
  0
LINE
  8
LAYER
 10
    24348.03
 20
  -287384.07
 30
         .00
 11
    22773.54
 21
  -287063.74
 31
         .00
  0
LINE
  8
LAYER
 10
    22773.54
 20
  -287063.74
 30
         .00
 11
    21206.72
 21
  -286833.79
 31
         .00
  0
LINE
  8
LAYER
 10
    21206.72
 20
  -286833.79
 30
         .00
 11
    19659.47
 21
  -286695.97
 31
         .00
  0
LINE
  8
LAYER
 10
    19659.47
 20
  -286695.97
 30
         .00
 11
    18143.59
 21
  -286651.33
 31
         .00
  0
LINE
  8
LAYER
 10
    18143.59
 20
  -286651.33
 30
         .00
 11
    16670.59
 21
  -286700.22
 31
         .00
  0
LINE
  8
LAYER
 10
    16670.59
 20
  -286700.22
 30
         .00
 11
    15251.71
 21
  -286842.25
 31
         .00
  0
LINE
  8
LAYER
 10
    15251.71
 20
  -286842.25
 30
         .00
 11
    13897.72
 21
  -287076.35
 31
         .00
  0
LINE
  8
LAYER
 10
    13897.72
 20
  -287076.35
 30
         .00
 11
    12618.94
 21
  -287400.74
 31
         .00
  0
LINE
  8
LAYER
 10
    12618.94
 20
  -287400.74
 30
         .00
 11
    11425.10
 21
  -287812.95
 31
         .00
  0
LINE
  8
LAYER
 10
    11425.10
 20
  -287812.95
 30
         .00
 11
    10325.29
 21
  -288309.84
 31
         .00
  0
LINE
  8
LAYER
 10
    10325.29
 20
  -288309.84
 30
         .00
 11
     9327.87
 21
  -288887.62
 31
         .00
  0
LINE
  8
LAYER
 10
     9327.87
 20
  -288887.62
 30
         .00
 11
     8440.44
 21
  -289541.91
 31
         .00
  0
LINE
  8
LAYER
 10
     8440.44
 20
  -289541.91
 30
         .00
 11
     7669.75
 21
  -290267.73
 31
         .00
  0
LINE
  8
LAYER
 10
     7669.75
 20
  -290267.73
 30
         .00
 11
     7021.67
 21
  -291059.54
 31
         .00
  0
LINE
  8
LAYER
 10
     7021.67
 20
  -291059.54
 30
         .00
 11
     6501.12
 21
  -291911.32
 31
         .00
  0
LINE
  8
LAYER
 10
     6501.12
 20
  -291911.32
 30
         .00
 11
     6112.07
 21
  -292816.59
 31
         .00
  0
LINE
  8
LAYER
 10
     6112.07
 20
  -292816.59
 30
         .00
 11
     5857.49
 21
  -293768.46
 31
         .00
  0
LINE
  8
LAYER
 10
     5857.49
 20
  -293768.46
 30
         .00
 11
     5739.30
 21
  -294759.69
 31
         .00
  0
LINE
  8
LAYER
 10
     5739.30
 20
  -294759.69
 30
         .00
 11
     5758.42
 21
  -295782.73
 31
         .00
  0
LINE
  8
LAYER
 10
     5758.42
 20
  -295782.73
 30
         .00
 11
     5914.68
 21
  -296829.80
 31
         .00
  0
LINE
  8
LAYER
 10
     5914.68
 20
  -296829.80
 30
         .00
 11
     6206.91
 21
  -297892.92
 31
         .00
  0
LINE
  8
LAYER
 10
     6206.91
 20
  -297892.92
 30
         .00
 11
     6632.87
 21
  -298964.01
 31
         .00
  0
LINE
  8
LAYER
 10
     6632.87
 20
  -298964.01
 30
         .00
 11
     7189.34
 21
  -300034.91
 31
         .00
  0
LINE
  8
LAYER
 10
     7189.34
 20
  -300034.91
 30
         .00
 11
     7872.06
 21
  -301097.48
 31
         .00
  0
LINE
  8
LAYER
 10
     7872.06
 20
  -301097.48
 30
         .00
 11
     8675.86
 21
  -302143.63
 31
         .00
  0
LINE
  8
LAYER
 10
     8675.86
 20
  -302143.63
 30
         .00
 11
     9594.60
 21
  -303165.39
 31
         .00
  0
LINE
  8
LAYER
 10
     9594.60
 20
  -303165.39
 30
         .00
 11
    10621.30
 21
  -304154.99
 31
         .00
  0
LINE
  8
LAYER
 10
    10621.30
 20
  -304154.99
 30
         .00
 11
    11748.14
 21
  -305104.90
 31
         .00
  0
LINE
  8
LAYER
 10
    11748.14
 20
  -305104.90
 30
         .00
 11
    12966.55
 21
  -306007.88
 31
         .00
  0
LINE
  8
LAYER
 10
    12966.55
 20
  -306007.88
 30
         .00
 11
    14267.25
 21
  -306857.08
 31
         .00
  0
LINE
  8
LAYER
 10
    14267.25
 20
  -306857.08
 30
         .00
 11
    15640.35
 21
  -307646.02
 31
         .00
  0
LINE
  8
LAYER
 10
    15640.35
 20
  -307646.02
 30
         .00
 11
    17075.39
 21
  -308368.69
 31
         .00
  0
LINE
  8
LAYER
 10
    17075.39
 20
  -308368.69
 30
         .00
 11
    18561.46
 21
  -309019.61
 31
         .00
  0
LINE
  8
LAYER
 10
    18561.46
 20
  -309019.61
 30
         .00
 11
    20087.24
 21
  -309593.81
 31
         .00
  0
LINE
  8
LAYER
 10
    20087.24
 20
  -309593.81
 30
         .00
 11
    21641.12
 21
  -310086.93
 31
         .00
  0
LINE
  8
LAYER
 10
    21641.12
 20
  -310086.93
 30
         .00
 11
    23211.28
 21
  -310495.21
 31
         .00
  0
LINE
  8
LAYER
 10
    23211.28
 20
  -310495.21
 30
         .00
 11
    24785.76
 21
  -310815.54
 31
         .00
  0
LINE
  8
LAYER
 10
    24785.76
 20
  -310815.54
 30
         .00
 11
    26352.59
 21
  -311045.49
 31
         .00
  0
LINE
  8
LAYER
 10
    26352.59
 20
  -311045.49
 30
         .00
 11
    27899.83
 21
  -311183.31
 31
         .00
  0
LINE
  8
LAYER
 10
    27899.83
 20
  -311183.31
 30
         .00
 11
    29415.72
 21
  -311227.95
 31
         .00
  0
LINE
  8
LAYER
 10
    29415.72
 20
  -311227.95
 30
         .00
 11
    30888.71
 21
  -311179.06
 31
         .00
  0
LINE
  8
LAYER
 10
    30888.71
 20
  -311179.06
 30
         .00
 11
    32307.60
 21
  -311037.03
 31
         .00
  0
LINE
  8
LAYER
 10
    32307.60
 20
  -311037.03
 30
         .00
 11
    33661.59
 21
  -310802.92
 31
         .00
  0
LINE
  8
LAYER
 10
    33661.59
 20
  -310802.92
 30
         .00
 11
    34940.37
 21
  -310478.54
 31
         .00
  0
LINE
  8
LAYER
 10
    34940.37
 20
  -310478.54
 30
         .00
 11
    36134.20
 21
  -310066.33
 31
         .00
  0
LINE
  8
LAYER
 10
    36134.20
 20
  -310066.33
 30
         .00
 11
    37234.02
 21
  -309569.44
 31
         .00
  0
LINE
  8
LAYER
 10
    37234.02
 20
  -309569.44
 30
         .00
 11
    38231.44
 21
  -308991.65
 31
         .00
  0
LINE
  8
LAYER
 10
    38231.44
 20
  -308991.65
 30
         .00
 11
    39118.87
 21
  -308337.36
 31
         .00
  0
LINE
  8
LAYER
 10
    39118.87
 20
  -308337.36
 30
         .00
 11
    39889.56
 21
  -307611.55
 31
         .00
  0
LINE
  8
LAYER
 10
    39889.56
 20
  -307611.55
 30
         .00
 11
    40537.64
 21
  -306819.74
 31
         .00
  0
LINE
  8
LAYER
 10
    40537.64
 20
  -306819.74
 30
         .00
 11
    41058.19
 21
  -305967.96
 31
         .00
  0
LINE
  8
LAYER
 10
    41058.19
 20
  -305967.96
 30
         .00
 11
    41447.23
 21
  -305062.69
 31
         .00
  0
LINE
  8
LAYER
 10
    30487.96
 20
  -290608.93
 30
         .00
 11
    30487.96
 21
  -290608.93
 31
         .00
  0
LINE
  8
LAYER
 10
    30487.96
 20
  -290608.93
 30
         .00
 11
    30730.23
 21
  -289931.44
 31
         .00
  0
LINE
  8
LAYER
 10
    30730.23
 20
  -289931.44
 30
         .00
 11
    30873.00
 21
  -289215.74
 31
         .00
  0
LINE
  8
LAYER
 10
    30873.00
 20
  -289215.74
 30
         .00
 11
    30915.16
 21
  -288467.30
 31
         .00
  0
LINE
  8
LAYER
 10
    30915.16
 20
  -288467.30
 30
         .00
 11
    30856.39
 21
  -287691.79
 31
         .00
  0
LINE
  8
LAYER
 10
    30856.39
 20
  -287691.79
 30
         .00
 11
    30697.15
 21
  -286895.13
 31
         .00
  0
LINE
  8
LAYER
 10
    30697.15
 20
  -286895.13
 30
         .00
 11
    30438.65
 21
  -286083.38
 31
         .00
  0
LINE
  8
LAYER
 10
    30438.65
 20
  -286083.38
 30
         .00
 11
    30082.85
 21
  -285262.71
 31
         .00
  0
LINE
  8
LAYER
 10
    30082.85
 20
  -285262.71
 30
         .00
 11
    29632.46
 21
  -284439.38
 31
         .00
  0
LINE
  8
LAYER
 10
    29632.46
 20
  -284439.38
 30
         .00
 11
    29090.91
 21
  -283619.64
 31
         .00
  0
LINE
  8
LAYER
 10
    29090.91
 20
  -283619.64
 30
         .00
 11
    28462.32
 21
  -282809.74
 31
         .00
  0
LINE
  8
LAYER
 10
    28462.32
 20
  -282809.74
 30
         .00
 11
    27751.47
 21
  -282015.84
 31
         .00
  0
LINE
  8
LAYER
 10
    27751.47
 20
  -282015.84
 30
         .00
 11
    26963.78
 21
  -281243.99
 31
         .00
  0
LINE
  8
LAYER
 10
    26963.78
 20
  -281243.99
 30
         .00
 11
    26105.24
 21
  -280500.05
 31
         .00
  0
LINE
  8
LAYER
 10
    26105.24
 20
  -280500.05
 30
         .00
 11
    25182.38
 21
  -279789.68
 31
         .00
  0
LINE
  8
LAYER
 10
    25182.38
 20
  -279789.68
 30
         .00
 11
    24202.22
 21
  -279118.31
 31
         .00
  0
LINE
  8
LAYER
 10
    24202.22
 20
  -279118.31
 30
         .00
 11
    23172.24
 21
  -278491.02
 31
         .00
  0
LINE
  8
LAYER
 10
    23172.24
 20
  -278491.02
 30
         .00
 11
    22100.26
 21
  -277912.61
 31
         .00
  0
LINE
  8
LAYER
 10
    22100.26
 20
  -277912.61
 30
         .00
 11
    20994.44
 21
  -277387.47
 31
         .00
  0
LINE
  8
LAYER
 10
    20994.44
 20
  -277387.47
 30
         .00
 11
    19863.20
 21
  -276919.59
 31
         .00
  0
LINE
  8
LAYER
 10
    19863.20
 20
  -276919.59
 30
         .00
 11
    18715.15
 21
  -276512.54
 31
         .00
  0
LINE
  8
LAYER
 10
    18715.15
 20
  -276512.54
 30
         .00
 11
    17559.02
 21
  -276169.42
 31
         .00
  0
LINE
  8
LAYER
 10
    17559.02
 20
  -276169.42
 30
         .00
 11
    16403.62
 21
  -275892.83
 31
         .00
  0
LINE
  8
LAYER
 10
    16403.62
 20
  -275892.83
 30
         .00
 11
    15257.74
 21
  -275684.89
 31
         .00
  0
LINE
  8
LAYER
 10
    15257.74
 20
  -275684.89
 30
         .00
 11
    14130.10
 21
  -275547.17
 31
         .00
  0
LINE
  8
LAYER
 10
    14130.10
 20
  -275547.17
 30
         .00
 11
    13029.28
 21
  -275480.72
 31
         .00
  0
LINE
  8
LAYER
 10
    13029.28
 20
  -275480.72
 30
         .00
 11
    11963.66
 21
  -275486.06
 31
         .00
  0
LINE
  8
LAYER
 10
    11963.66
 20
  -275486.06
 30
         .00
 11
    10941.34
 21
  -275563.13
 31
         .00
  0
LINE
  8
LAYER
 10
    10941.34
 20
  -275563.13
 30
         .00
 11
     9970.12
 21
  -275711.35
 31
         .00
  0
LINE
  8
LAYER
 10
     9970.12
 20
  -275711.35
 30
         .00
 11
     9057.38
 21
  -275929.59
 31
         .00
  0
LINE
  8
LAYER
 10
     9057.38
 20
  -275929.59
 30
         .00
 11
     8210.06
 21
  -276216.20
 31
         .00
  0
LINE
  8
LAYER
 10
     8210.06
 20
  -276216.20
 30
         .00
 11
     7434.63
 21
  -276568.99
 31
         .00
  0
LINE
  8
LAYER
 10
     7434.63
 20
  -276568.99
 30
         .00
 11
     6736.96
 21
  -276985.28
 31
         .00
  0
LINE
  8
LAYER
 10
     6736.96
 20
  -276985.28
 30
         .00
 11
     6122.39
 21
  -277461.89
 31
         .00
  0
LINE
  8
LAYER
 10
     6122.39
 20
  -277461.89
 30
         .00
 11
     5595.58
 21
  -277995.20
 31
         .00
  0
LINE
  8
LAYER
 10
     5595.58
 20
  -277995.20
 30
         .00
 11
     5160.55
 21
  -278581.16
 31
         .00
  0
LINE
  8
LAYER
 10
     5160.55
 20
  -278581.16
 30
         .00
 11
     4820.60
 21
  -279215.30
 31
         .00
  0
LINE
  8
LAYER
 10
     4820.60
 20
  -279215.30
 30
         .00
 11
     4578.32
 21
  -279892.79
 31
         .00
  0
LINE
  8
LAYER
 10
     4578.32
 20
  -279892.79
 30
         .00
 11
     4435.56
 21
  -280608.49
 31
         .00
  0
LINE
  8
LAYER
 10
     4435.56
 20
  -280608.49
 30
         .00
 11
     4393.40
 21
  -281356.94
 31
         .00
  0
LINE
  8
LAYER
 10
     4393.40
 20
  -281356.94
 30
         .00
 11
     4452.16
 21
  -282132.44
 31
         .00
  0
LINE
  8
LAYER
 10
     4452.16
 20
  -282132.44
 30
         .00
 11
     4611.40
 21
  -282929.10
 31
         .00
  0
LINE
  8
LAYER
 10
     4611.40
 20
  -282929.10
 30
         .00
 11
     4869.90
 21
  -283740.85
 31
         .00
  0
LINE
  8
LAYER
 10
     4869.90
 20
  -283740.85
 30
         .00
 11
     5225.70
 21
  -284561.52
 31
         .00
  0
LINE
  8
LAYER
 10
     5225.70
 20
  -284561.52
 30
         .00
 11
     5676.09
 21
  -285384.85
 31
         .00
  0
LINE
  8
LAYER
 10
     5676.09
 20
  -285384.85
 30
         .00
 11
     6217.64
 21
  -286204.59
 31
         .00
  0
LINE
  8
LAYER
 10
     6217.64
 20
  -286204.59
 30
         .00
 11
     6846.23
 21
  -287014.49
 31
         .00
  0
LINE
  8
LAYER
 10
     6846.23
 20
  -287014.49
 30
         .00
 11
     7557.08
 21
  -287808.39
 31
         .00
  0
LINE
  8
LAYER
 10
     7557.08
 20
  -287808.39
 30
         .00
 11
     8344.77
 21
  -288580.25
 31
         .00
  0
LINE
  8
LAYER
 10
     8344.77
 20
  -288580.25
 30
         .00
 11
     9203.31
 21
  -289324.19
 31
         .00
  0
LINE
  8
LAYER
 10
     9203.31
 20
  -289324.19
 30
         .00
 11
    10126.17
 21
  -290034.55
 31
         .00
  0
LINE
  8
LAYER
 10
    10126.17
 20
  -290034.55
 30
         .00
 11
    11106.33
 21
  -290705.93
 31
         .00
  0
LINE
  8
LAYER
 10
    11106.33
 20
  -290705.93
 30
         .00
 11
    12136.31
 21
  -291333.21
 31
         .00
  0
LINE
  8
LAYER
 10
    12136.31
 20
  -291333.21
 30
         .00
 11
    13208.30
 21
  -291911.62
 31
         .00
  0
LINE
  8
LAYER
 10
    13208.30
 20
  -291911.62
 30
         .00
 11
    14314.12
 21
  -292436.77
 31
         .00
  0
LINE
  8
LAYER
 10
    14314.12
 20
  -292436.77
 30
         .00
 11
    15445.35
 21
  -292904.64
 31
         .00
  0
LINE
  8
LAYER
 10
    15445.35
 20
  -292904.64
 30
         .00
 11
    16593.40
 21
  -293311.69
 31
         .00
  0
LINE
  8
LAYER
 10
    16593.40
 20
  -293311.69
 30
         .00
 11
    17749.53
 21
  -293654.81
 31
         .00
  0
LINE
  8
LAYER
 10
    17749.53
 20
  -293654.81
 30
         .00
 11
    18904.93
 21
  -293931.40
 31
         .00
  0
LINE
  8
LAYER
 10
    18904.93
 20
  -293931.40
 30
         .00
 11
    20050.81
 21
  -294139.34
 31
         .00
  0
LINE
  8
LAYER
 10
    20050.81
 20
  -294139.34
 30
         .00
 11
    21178.45
 21
  -294277.06
 31
         .00
  0
LINE
  8
LAYER
 10
    21178.45
 20
  -294277.06
 30
         .00
 11
    22279.27
 21
  -294343.51
 31
         .00
  0
LINE
  8
LAYER
 10
    22279.27
 20
  -294343.51
 30
         .00
 11
    23344.89
 21
  -294338.18
 31
         .00
  0
LINE
  8
LAYER
 10
    23344.89
 20
  -294338.18
 30
         .00
 11
    24367.21
 21
  -294261.11
 31
         .00
  0
LINE
  8
LAYER
 10
    24367.21
 20
  -294261.11
 30
         .00
 11
    25338.43
 21
  -294112.88
 31
         .00
  0
LINE
  8
LAYER
 10
    25338.43
 20
  -294112.88
 30
         .00
 11
    26251.17
 21
  -293894.64
 31
         .00
  0
LINE
  8
LAYER
 10
    26251.17
 20
  -293894.64
 30
         .00
 11
    27098.49
 21
  -293608.03
 31
         .00
  0
LINE
  8
LAYER
 10
    27098.49
 20
  -293608.03
 30
         .00
 11
    27873.93
 21
  -293255.24
 31
         .00
  0
LINE
  8
LAYER
 10
    27873.93
 20
  -293255.24
 30
         .00
 11
    28571.59
 21
  -292838.95
 31
         .00
  0
LINE
  8
LAYER
 10
    28571.59
 20
  -292838.95
 30
         .00
 11
    29186.16
 21
  -292362.34
 31
         .00
  0
LINE
  8
LAYER
 10
    29186.16
 20
  -292362.34
 30
         .00
 11
    29712.97
 21
  -291829.03
 31
         .00
  0
LINE
  8
LAYER
 10
    29712.97
 20
  -291829.03
 30
         .00
 11
    30148.01
 21
  -291243.07
 31
         .00
  0
LINE
  8
LAYER
 10
    30148.01
 20
  -291243.07
 30
         .00
 11
    30487.96
 21
  -290608.93
 31
         .00
  0
LINE
  8
LAYER
 10
    24038.08
 20
  -276140.54
 30
         .00
 11
    24038.08
 21
  -276140.54
 31
         .00
  0
LINE
  8
LAYER
 10
    24038.08
 20
  -276140.54
 30
         .00
 11
    24435.71
 21
  -276657.47
 31
         .00
  0
LINE
  8
LAYER
 10
    24435.71
 20
  -276657.47
 30
         .00
 11
    24912.52
 21
  -277116.59
 31
         .00
  0
LINE
  8
LAYER
 10
    24912.52
 20
  -277116.59
 30
         .00
 11
    25464.88
 21
  -277514.39
 31
         .00
  0
LINE
  8
LAYER
 10
    25464.88
 20
  -277514.39
 30
         .00
 11
    26088.59
 21
  -277847.84
 31
         .00
  0
LINE
  8
LAYER
 10
    26088.59
 20
  -277847.84
 30
         .00
 11
    26778.89
 21
  -278114.41
 31
         .00
  0
LINE
  8
LAYER
 10
    26778.89
 20
  -278114.41
 30
         .00
 11
    27530.54
 21
  -278312.07
 31
         .00
  0
LINE
  8
LAYER
 10
    27530.54
 20
  -278312.07
 30
         .00
 11
    28337.82
 21
  -278439.32
 31
         .00
  0
LINE
  8
LAYER
 10
    28337.82
 20
  -278439.32
 30
         .00
 11
    29194.57
 21
  -278495.19
 31
         .00
  0
LINE
  8
LAYER
 10
    29194.57
 20
  -278495.19
 30
         .00
 11
    30094.28
 21
  -278479.25
 31
         .00
  0
LINE
  8
LAYER
 10
    30094.28
 20
  -278479.25
 30
         .00
 11
    31030.11
 21
  -278391.62
 31
         .00
  0
LINE
  8
LAYER
 10
    31030.11
 20
  -278391.62
 30
         .00
 11
    31994.93
 21
  -278232.97
 31
         .00
  0
LINE
  8
LAYER
 10
    31994.93
 20
  -278232.97
 30
         .00
 11
    32981.40
 21
  -278004.51
 31
         .00
  0
LINE
  8
LAYER
 10
    32981.40
 20
  -278004.51
 30
         .00
 11
    33982.00
 21
  -277707.97
 31
         .00
  0
LINE
  8
LAYER
 10
    33982.00
 20
  -277707.97
 30
         .00
 11
    34989.13
 21
  -277345.62
 31
         .00
  0
LINE
  8
LAYER
 10
    34989.13
 20
  -277345.62
 30
         .00
 11
    35995.12
 21
  -276920.21
 31
         .00
  0
LINE
  8
LAYER
 10
    35995.12
 20
  -276920.21
 30
         .00
 11
    36992.32
 21
  -276434.98
 31
         .00
  0
LINE
  8
LAYER
 10
    36992.32
 20
  -276434.98
 30
         .00
 11
    37973.13
 21
  -275893.62
 31
         .00
  0
LINE
  8
LAYER
 10
    37973.13
 20
  -275893.62
 30
         .00
 11
    38930.09
 21
  -275300.25
 31
         .00
  0
LINE
  8
LAYER
 10
    38930.09
 20
  -275300.25
 30
         .00
 11
    39855.91
 21
  -274659.39
 31
         .00
  0
LINE
  8
LAYER
 10
    39855.91
 20
  -274659.39
 30
         .00
 11
    40743.56
 21
  -273975.91
 31
         .00
  0
LINE
  8
LAYER
 10
    40743.56
 20
  -273975.91
 30
         .00
 11
    41586.27
 21
  -273255.02
 31
         .00
  0
LINE
  8
LAYER
 10
    41586.27
 20
  -273255.02
 30
         .00
 11
    42377.64
 21
  -272502.21
 31
         .00
  0
LINE
  8
LAYER
 10
    42377.64
 20
  -272502.21
 30
         .00
 11
    43111.63
 21
  -271723.19
 31
         .00
  0
LINE
  8
LAYER
 10
    43111.63
 20
  -271723.19
 30
         .00
 11
    43782.67
 21
  -270923.91
 31
         .00
  0
LINE
  8
LAYER
 10
    43782.67
 20
  -270923.91
 30
         .00
 11
    44385.64
 21
  -270110.44
 31
         .00
  0
LINE
  8
LAYER
 10
    44385.64
 20
  -270110.44
 30
         .00
 11
    44915.96
 21
  -269288.97
 31
         .00
  0
LINE
  8
LAYER
 10
    44915.96
 20
  -269288.97
 30
         .00
 11
    45369.59
 21
  -268465.77
 31
         .00
  0
LINE
  8
LAYER
 10
    45369.59
 20
  -268465.77
 30
         .00
 11
    45743.08
 21
  -267647.08
 31
         .00
  0
LINE
  8
LAYER
 10
    45743.08
 20
  -267647.08
 30
         .00
 11
    46033.58
 21
  -266839.15
 31
         .00
  0
LINE
  8
LAYER
 10
    46033.58
 20
  -266839.15
 30
         .00
 11
    46238.89
 21
  -266048.12
 31
         .00
  0
LINE
  8
LAYER
 10
    46238.89
 20
  -266048.12
 30
         .00
 11
    46357.45
 21
  -265280.01
 31
         .00
  0
LINE
  8
LAYER
 10
    46357.45
 20
  -265280.01
 30
         .00
 11
    46388.34
 21
  -264540.66
 31
         .00
  0
LINE
  8
LAYER
 10
    46388.34
 20
  -264540.66
 30
         .00
 11
    46331.34
 21
  -263835.72
 31
         .00
  0
LINE
  8
LAYER
 10
    46331.34
 20
  -263835.72
 30
         .00
 11
    46186.88
 21
  -263170.53
 31
         .00
  0
LINE
  8
LAYER
 10
    46186.88
 20
  -263170.53
 30
         .00
 11
    45956.05
 21
  -262550.16
 31
         .00
  0
LINE
  8
LAYER
 10
    45956.05
 20
  -262550.16
 30
         .00
 11
    45640.62
 21
  -261979.34
 31
         .00
  0
LINE
  8
LAYER
 10
    45640.62
 20
  -261979.34
 30
         .00
 11
    45242.99
 21
  -261462.41
 31
         .00
  0
LINE
  8
LAYER
 10
    45242.99
 20
  -261462.41
 30
         .00
 11
    44766.18
 21
  -261003.29
 31
         .00
  0
LINE
  8
LAYER
 10
    44766.18
 20
  -261003.29
 30
         .00
 11
    44213.82
 21
  -260605.49
 31
         .00
  0
LINE
  8
LAYER
 10
    44213.82
 20
  -260605.49
 30
         .00
 11
    43590.11
 21
  -260272.04
 31
         .00
  0
LINE
  8
LAYER
 10
    43590.11
 20
  -260272.04
 30
         .00
 11
    42899.81
 21
  -260005.47
 31
         .00
  0
LINE
  8
LAYER
 10
    42899.81
 20
  -260005.47
 30
         .00
 11
    42148.16
 21
  -259807.81
 31
         .00
  0
LINE
  8
LAYER
 10
    42148.16
 20
  -259807.81
 30
         .00
 11
    41340.89
 21
  -259680.56
 31
         .00
  0
LINE
  8
LAYER
 10
    41340.89
 20
  -259680.56
 30
         .00
 11
    40484.13
 21
  -259624.69
 31
         .00
  0
LINE
  8
LAYER
 10
    40484.13
 20
  -259624.69
 30
         .00
 11
    39584.42
 21
  -259640.63
 31
         .00
  0
LINE
  8
LAYER
 10
    39584.42
 20
  -259640.63
 30
         .00
 11
    38648.59
 21
  -259728.26
 31
         .00
  0
LINE
  8
LAYER
 10
    38648.59
 20
  -259728.26
 30
         .00
 11
    37683.77
 21
  -259886.91
 31
         .00
  0
LINE
  8
LAYER
 10
    37683.77
 20
  -259886.91
 30
         .00
 11
    36697.31
 21
  -260115.37
 31
         .00
  0
LINE
  8
LAYER
 10
    36697.31
 20
  -260115.37
 30
         .00
 11
    35696.70
 21
  -260411.91
 31
         .00
  0
LINE
  8
LAYER
 10
    35696.70
 20
  -260411.91
 30
         .00
 11
    34689.57
 21
  -260774.26
 31
         .00
  0
LINE
  8
LAYER
 10
    34689.57
 20
  -260774.26
 30
         .00
 11
    33683.58
 21
  -261199.67
 31
         .00
  0
LINE
  8
LAYER
 10
    33683.58
 20
  -261199.67
 30
         .00
 11
    32686.38
 21
  -261684.90
 31
         .00
  0
LINE
  8
LAYER
 10
    32686.38
 20
  -261684.90
 30
         .00
 11
    31705.58
 21
  -262226.26
 31
         .00
  0
LINE
  8
LAYER
 10
    31705.58
 20
  -262226.26
 30
         .00
 11
    30748.62
 21
  -262819.63
 31
         .00
  0
LINE
  8
LAYER
 10
    30748.62
 20
  -262819.63
 30
         .00
 11
    29822.79
 21
  -263460.49
 31
         .00
  0
LINE
  8
LAYER
 10
    29822.79
 20
  -263460.49
 30
         .00
 11
    28935.14
 21
  -264143.97
 31
         .00
  0
LINE
  8
LAYER
 10
    28935.14
 20
  -264143.97
 30
         .00
 11
    28092.43
 21
  -264864.86
 31
         .00
  0
LINE
  8
LAYER
 10
    28092.43
 20
  -264864.86
 30
         .00
 11
    27301.06
 21
  -265617.67
 31
         .00
  0
LINE
  8
LAYER
 10
    27301.06
 20
  -265617.67
 30
         .00
 11
    26567.07
 21
  -266396.69
 31
         .00
  0
LINE
  8
LAYER
 10
    26567.07
 20
  -266396.69
 30
         .00
 11
    25896.03
 21
  -267195.97
 31
         .00
  0
LINE
  8
LAYER
 10
    25896.03
 20
  -267195.97
 30
         .00
 11
    25293.06
 21
  -268009.44
 31
         .00
  0
LINE
  8
LAYER
 10
    25293.06
 20
  -268009.44
 30
         .00
 11
    24762.74
 21
  -268830.91
 31
         .00
  0
LINE
  8
LAYER
 10
    24762.74
 20
  -268830.91
 30
         .00
 11
    24309.11
 21
  -269654.11
 31
         .00
  0
LINE
  8
LAYER
 10
    24309.11
 20
  -269654.11
 30
         .00
 11
    23935.62
 21
  -270472.80
 31
         .00
  0
LINE
  8
LAYER
 10
    23935.62
 20
  -270472.80
 30
         .00
 11
    23645.12
 21
  -271280.73
 31
         .00
  0
LINE
  8
LAYER
 10
    23645.12
 20
  -271280.73
 30
         .00
 11
    23439.81
 21
  -272071.76
 31
         .00
  0
LINE
  8
LAYER
 10
    23439.81
 20
  -272071.76
 30
         .00
 11
    23321.25
 21
  -272839.87
 31
         .00
  0
LINE
  8
LAYER
 10
    23321.25
 20
  -272839.87
 30
         .00
 11
    23290.36
 21
  -273579.22
 31
         .00
  0
LINE
  8
LAYER
 10
    23290.36
 20
  -273579.22
 30
         .00
 11
    23347.36
 21
  -274284.16
 31
         .00
  0
LINE
  8
LAYER
 10
    23347.36
 20
  -274284.16
 30
         .00
 11
    23491.83
 21
  -274949.35
 31
         .00
  0
LINE
  8
LAYER
 10
    23491.83
 20
  -274949.35
 30
         .00
 11
    23722.65
 21
  -275569.72
 31
         .00
  0
LINE
  8
LAYER
 10
    23722.65
 20
  -275569.72
 30
         .00
 11
    24038.08
 21
  -276140.54
 31
         .00
  0
LINE
  8
LAYER
 10
   -22488.58
 20
  -298939.64
 30
         .00
 11
   -12488.58
 21
  -298939.64
 31
         .00
  0
LINE
  8
LAYER
 10
   -22488.58
 20
  -297939.64
 30
         .00
 11
   -22488.58
 21
  -299939.64
 31
         .00
  0
LINE
  8
LAYER
 10
   -12488.58
 20
  -297939.64
 30
         .00
 11
   -12488.58
 21
  -299939.64
 31
         .00
  0
TEXT
  8
LAYER
  1
10 cm
 40
600
 10
   -22488.58
 20
  -296939.64
 30
         .00
  0
ENDSEC
  0
EOF
